<?xml version="1.0" standalone="no"?>
<!DOCTYPE svg PUBLIC "-//W3C//DTD SVG 1.1//EN" "http://www.w3.org/Graphics/SVG/1.1/DTD/svg11.dtd" >
<svg xmlns="http://www.w3.org/2000/svg" xmlns:xlink="http://www.w3.org/1999/xlink" version="1.1">
<metadata>
Created by FontForge 20150824 at Sun Sep 11 13:23:35 2016
 By Everything Fonts
Copyright (C) 1996, 2009 Hoefler &#38; Frere-Jones. http://www.typography.com
</metadata>
<defs>
<font id="WhitneyLightItalProGkCy" horiz-adv-x="360" >
  <font-face 
    font-family="WhitneyLightItalProGkCy"
    font-weight="300"
    font-style="italic"
    font-stretch="normal"
    units-per-em="1000"
    panose-1="0 0 0 0 0 0 0 0 0 0"
    ascent="800"
    descent="-200"
    x-height="470"
    cap-height="690"
    bbox="-130 -257 1082 1014"
    underline-thickness="50"
    underline-position="-150"
    slope="-9"
    unicode-range="U+0020-FB04"
  />
<missing-glyph horiz-adv-x="500" 
d="M0 -200v1000h500v-1000h-500zM71 750l179 -390l179 390h-358zM50 -76l172 376l-172 376v-752zM450 676l-172 -376l172 -376v752zM250 240l-179 -390h358z" />
    <glyph glyph-name="f_f" unicode="ff" horiz-adv-x="538" 
d="M324 665q-20 5 -43 5q-39 0 -58 -19.5t-25 -61.5l-19 -119h100v-39h-106l-95 -602l-47 -10l97 612h-73l5 39h74l20 127q17 115 127 115q23 0 43 -4v-43zM593 665q-20 5 -43 5q-39 0 -58 -19.5t-25 -61.5l-19 -119h100v-39h-106l-95 -602l-47 -10l97 612h-73l5 39h74
l20 127q17 115 127 115q23 0 43 -4v-43z" />
    <glyph glyph-name="fi" unicode="fi" horiz-adv-x="487" 
d="M324 665q-20 5 -43 5q-39 0 -58 -19.5t-25 -61.5l-19 -119h100v-39h-106l-95 -602l-47 -10l97 612h-73l5 39h74l20 127q17 115 127 115q23 0 43 -4v-43zM481 638q0 -16 -12 -28t-28 -12q-15 0 -27 12t-12 28t12 28t27 12q17 0 28.5 -12t11.5 -28zM439 470l-76 -470h-46
l76 470h46z" />
    <glyph glyph-name="fl" unicode="fl" horiz-adv-x="487" 
d="M324 665q-20 5 -43 5q-39 0 -58 -19.5t-25 -61.5l-19 -119h100v-39h-106l-95 -602l-47 -10l97 612h-73l5 39h74l20 127q17 115 127 115q23 0 43 -4v-43zM476 715l-113 -715h-46l112 705z" />
    <glyph glyph-name="f_f_i" unicode="ffi" horiz-adv-x="756" 
d="M324 665q-20 5 -43 5q-39 0 -58 -19.5t-25 -61.5l-19 -119h100v-39h-106l-95 -602l-47 -10l97 612h-73l5 39h74l20 127q17 115 127 115q23 0 43 -4v-43zM593 665q-20 5 -43 5q-39 0 -58 -19.5t-25 -61.5l-19 -119h100v-39h-106l-95 -602l-47 -10l97 612h-73l5 39h74
l20 127q17 115 127 115q23 0 43 -4v-43zM750 638q0 -16 -12 -28t-28 -12q-15 0 -27 12t-12 28t12 28t27 12q16 0 28 -12t12 -28zM708 470l-76 -470h-46l76 470h46z" />
    <glyph glyph-name="f_f_l" unicode="ffl" horiz-adv-x="756" 
d="M324 665q-20 5 -43 5q-39 0 -58 -19.5t-25 -61.5l-19 -119h100v-39h-106l-95 -602l-47 -10l97 612h-73l5 39h74l20 127q17 115 127 115q23 0 43 -4v-43zM593 665q-20 5 -43 5q-39 0 -58 -19.5t-25 -61.5l-19 -119h100v-39h-106l-95 -602l-47 -10l97 612h-73l5 39h74
l20 127q17 115 127 115q23 0 43 -4v-43zM745 715l-113 -715h-46l112 705z" />
    <glyph glyph-name=".notdef" horiz-adv-x="500" 
d="M0 -200v1000h500v-1000h-500zM71 750l179 -390l179 390h-358zM50 -76l172 376l-172 376v-752zM450 676l-172 -376l172 -376v752zM250 240l-179 -390h358z" />
    <glyph glyph-name=".null" horiz-adv-x="0" 
 />
    <glyph glyph-name="nonmarkingreturn" horiz-adv-x="333" 
 />
    <glyph glyph-name="space" unicode=" " horiz-adv-x="220" 
 />
    <glyph glyph-name="exclam" unicode="!" horiz-adv-x="254" 
d="M227 690l-95 -506l-27 -5l65 511h57zM132 81l-13 -81h-59l13 81h59z" />
    <glyph glyph-name="quotedbl" unicode="&#x22;" 
d="M359 676l-44 -166l-25 6l7 160h62zM203 676l-45 -166l-25 6l8 160h62z" />
    <glyph glyph-name="numbersign" unicode="#" horiz-adv-x="620" 
d="M546 675l-42 -185h110v-40h-119l-51 -224h124l7 -40h-140l-42 -188h-39l42 188h-198l-43 -193l-37 8l42 185h-110v40h119l50 224h-122l-7 40h138l43 188h39l-42 -188h197l44 193zM259 450l-52 -224h198l51 224h-197z" />
    <glyph glyph-name="dollar" unicode="$" horiz-adv-x="500" 
d="M418 746l-23 -73q38 -7 95 -31l-8 -46q-42 24 -100 38l-86 -272q79 -43 113 -83t34 -96q0 -87 -61 -138t-157 -51q-23 0 -44 3l-38 -121l-36 8l37 118q-68 12 -129 47l7 46q65 -42 134 -56l94 299q-74 40 -108 78t-34 95q0 75 55 122.5t144 47.5q26 0 50 -3l24 77z
M401 181q0 41 -26.5 72t-91.5 67l-91 -287q12 -2 35 -2q79 0 126.5 40.5t47.5 109.5zM150 512q0 -40 26 -69.5t87 -62.5l82 261q-21 3 -40 3q-73 0 -114 -35.5t-41 -96.5z" />
    <glyph glyph-name="percent" unicode="%" horiz-adv-x="810" 
d="M355 533q0 -86 -45.5 -150.5t-110.5 -64.5q-56 0 -87.5 41t-31.5 110q0 85 45 150t110 65q57 0 88.5 -41.5t31.5 -109.5zM711 675l-262 -330l-276 -352l-41 8l291 367l247 315zM234 648q-47 0 -79 -54.5t-32 -128.5q0 -54 21.5 -82.5t55.5 -28.5q48 0 80 54t32 128
q0 54 -22 83t-56 29zM763 207q0 -85 -45 -150t-110 -65q-57 0 -88.5 41.5t-31.5 109.5q0 86 45.5 150.5t110.5 64.5q56 0 87.5 -41t31.5 -110zM720 211q0 54 -21.5 82.5t-55.5 28.5q-48 0 -80 -54t-32 -128q0 -54 22 -83t56 -29q47 0 79 54.5t32 128.5z" />
    <glyph glyph-name="ampersand" unicode="&#x26;" horiz-adv-x="631" 
d="M209 -13q-75 0 -123.5 44.5t-48.5 120.5q0 157 214 237q-60 83 -60 154t48 115.5t122 44.5q71 0 138 -39l-9 -48q-70 45 -132 45q-54 0 -86.5 -32.5t-32.5 -82.5q0 -60 55 -136l155 -212q50 84 89 206l46 -12q-49 -141 -109 -231l114 -155l-49 -12l-93 127
q-105 -134 -238 -134zM213 29q116 0 208 127l-145 200q-192 -68 -192 -201q0 -58 36.5 -92t92.5 -34z" />
    <glyph glyph-name="quotesingle" unicode="'" horiz-adv-x="203" 
d="M203 676l-45 -166l-25 6l8 160h62z" />
    <glyph glyph-name="parenleft" unicode="(" horiz-adv-x="382" 
d="M396 681q-271 -162 -271 -428q0 -91 35.5 -170.5t114.5 -169.5l-41 -10q-78 86 -117 168t-39 176q0 148 77 265.5t249 214.5z" />
    <glyph glyph-name="parenright" unicode=")" horiz-adv-x="383" 
d="M13 -56q271 162 271 428q0 91 -35.5 170.5t-114.5 169.5l41 10q78 -86 117 -168t39 -176q0 -148 -77 -265.5t-249 -214.5z" />
    <glyph glyph-name="asterisk" unicode="*" horiz-adv-x="401" 
d="M393 581l-122 -50l70 -116l-11 -7l-87 104l-87 -104l-11 7l69 116l-121 50l4 13l128 -30l11 133h14l11 -133l128 30z" />
    <glyph glyph-name="plus" unicode="+" horiz-adv-x="568" 
d="M522 319h-203l-32 -205h-41l32 205h-204l6 38h204l32 205h41l-32 -205h203z" />
    <glyph glyph-name="comma" unicode="," horiz-adv-x="203" 
d="M122 81l-123 -214l-23 6l85 208h61z" />
    <glyph glyph-name="hyphen" unicode="-" horiz-adv-x="364" 
d="M313 307l-7 -50h-240l7 50h240z" />
    <glyph glyph-name="period" unicode="." horiz-adv-x="203" 
d="M107 81l-13 -81h-60l13 81h60z" />
    <glyph glyph-name="slash" unicode="/" horiz-adv-x="492" 
d="M543 685l-594 -806l-41 10l593 806z" />
    <glyph glyph-name="zero" unicode="0" horiz-adv-x="560" 
d="M254 -13q-90 0 -139.5 72.5t-49.5 191.5t33 216t91 155q67 67 150 67q90 0 139.5 -72.5t49.5 -191.5t-33 -216t-91 -155q-67 -67 -150 -67zM255 28q62 0 112 50q52 52 82.5 142.5t30.5 202.5q0 106 -37.5 165.5t-104.5 59.5q-62 0 -112 -50q-52 -52 -82.5 -142.5
t-30.5 -202.5q0 -106 37.5 -165.5t104.5 -59.5z" />
    <glyph glyph-name="one" unicode="1" horiz-adv-x="334" 
d="M298 680l-108 -680h-46l100 626l-155 -60v39l176 75h33z" />
    <glyph glyph-name="two" unicode="2" horiz-adv-x="504" 
d="M478 533q0 -62 -30.5 -114.5t-108.5 -128.5l-257 -249h325v-41h-395l5 32l293 285q64 63 91.5 111.5t27.5 101.5q0 54 -31.5 86t-88.5 32q-76 0 -182 -69v45q96 65 185 65q78 0 122 -42.5t44 -113.5z" />
    <glyph glyph-name="three" unicode="3" horiz-adv-x="489" 
d="M465 538q0 -135 -166 -182q123 -46 123 -161q0 -91 -63.5 -149.5t-158.5 -58.5q-96 0 -186 56l14 43q89 -59 174 -59q74 0 123 45.5t49 122.5q0 67 -46.5 104.5t-126.5 37.5h-23v41h17q100 0 161 40t61 115q0 53 -36.5 84t-92.5 31q-81 0 -171 -59v45q88 55 173 55
q78 0 126.5 -41.5t48.5 -109.5z" />
    <glyph glyph-name="four" unicode="4" horiz-adv-x="568" 
d="M527 204l-6 -38h-114l-27 -166h-43l27 166h-332l5 29l395 485h57l-76 -476h114zM369 204l68 425l-343 -425h275z" />
    <glyph glyph-name="five" unicode="5" horiz-adv-x="487" 
d="M474 637h-267l-51 -225q270 -32 270 -215q0 -95 -64.5 -152.5t-157.5 -57.5q-92 0 -183 47l14 42q89 -49 171 -49q75 0 124.5 45.5t49.5 121.5q0 81 -65.5 125t-209.5 56l67 301h302v-39z" />
    <glyph glyph-name="six" unicode="6" horiz-adv-x="527" 
d="M461 647q-135 -28 -223.5 -113t-116.5 -204q100 70 192 70q76 0 121 -45.5t45 -128.5q0 -98 -67.5 -168.5t-159.5 -70.5q-90 0 -140 62t-50 174q0 170 106.5 300.5t292.5 167.5v-44zM307 360q-88 0 -195 -76q-3 -29 -3 -58q0 -95 38.5 -147t106.5 -52q73 0 124.5 58.5
t51.5 138.5q0 64 -33 100t-90 36z" />
    <glyph glyph-name="seven" unicode="7" horiz-adv-x="495" 
d="M512 676l-5 -30l-380 -653l-41 11l367 633h-337v39h396z" />
    <glyph glyph-name="eight" unicode="8" horiz-adv-x="520" 
d="M38 164q0 67 44.5 115.5t128.5 85.5q-96 56 -96 148q0 73 53.5 124.5t144.5 51.5q84 0 132.5 -44.5t48.5 -113.5q0 -63 -39 -105.5t-112 -75.5q64 -34 93.5 -75t29.5 -96q0 -82 -63 -136.5t-154 -54.5q-99 0 -155 49.5t-56 126.5zM85 164q0 -57 47 -96.5t119 -39.5
q68 0 117 42.5t49 107.5q0 52 -35 88.5t-130 78.5q-167 -71 -167 -181zM163 514q0 -42 30 -76t107 -68q147 62 147 160q0 54 -37.5 86t-98.5 32q-68 0 -108 -39.5t-40 -94.5z" />
    <glyph glyph-name="nine" unicode="9" horiz-adv-x="527" 
d="M98 29q130 26 217.5 107.5t118.5 195.5q-97 -66 -188 -66q-77 0 -121.5 47t-44.5 132q0 100 67 172t160 72q90 0 140 -62t50 -174q0 -170 -106.5 -300.5t-292.5 -167.5v44zM252 306q88 0 192 75q6 33 6 69q0 95 -38.5 147t-106.5 52q-74 0 -125 -60t-51 -142
q0 -66 32.5 -103.5t90.5 -37.5z" />
    <glyph glyph-name="colon" unicode=":" horiz-adv-x="212" 
d="M172 470l-13 -80h-60l13 80h60zM113 81l-12 -81h-61l13 81h60z" />
    <glyph glyph-name="semicolon" unicode=";" horiz-adv-x="212" 
d="M177 470l-13 -80h-60l13 80h60zM118 81l-123 -214l-23 6l85 208h61z" />
    <glyph glyph-name="less" unicode="&#x3c;" horiz-adv-x="568" 
d="M467 94l-395 225l6 38l467 225l-8 -49l-413 -197l351 -198z" />
    <glyph glyph-name="equal" unicode="=" horiz-adv-x="615" 
d="M562 425h-455l7 43h455zM527 208h-455l7 43h455z" />
    <glyph glyph-name="greater" unicode="&#x3e;" horiz-adv-x="568" 
d="M135 582l395 -225l-6 -38l-466 -225l7 49l414 197l-352 198z" />
    <glyph glyph-name="question" unicode="?" horiz-adv-x="438" 
d="M442 554q0 -80 -50 -131.5t-153 -100.5l-32 -137l-35 -7l18 170l20 8q94 37 139 84t45 111q0 52 -33.5 81.5t-87.5 29.5q-78 0 -173 -60v46q86 55 177 55q77 0 121 -40.5t44 -108.5zM204 81l-13 -81h-58l12 81h59z" />
    <glyph glyph-name="at" unicode="@" horiz-adv-x="832" 
d="M599 49q-52 0 -81 28t-29 75q-46 -53 -79.5 -77.5t-69.5 -24.5q-43 0 -71.5 36t-28.5 98q0 111 66 185t155 74q54 0 112 -29l-36 -213q-5 -25 -5 -52q0 -32 17.5 -52t55.5 -20q60 0 102 64.5t42 176.5q0 132 -74 206t-212 74q-162 0 -270.5 -115.5t-108.5 -299.5
q0 -145 77.5 -221.5t215.5 -76.5q125 0 214 47l4 -24q-93 -48 -222 -48q-151 0 -234.5 83.5t-83.5 238.5q0 193 117.5 317t293.5 124q148 0 229.5 -81.5t81.5 -222.5q0 -124 -52 -197t-126 -73zM349 89q29 0 60 25.5t85 89.5l33 184q-36 17 -70 17q-69 0 -121 -61t-52 -158
q0 -48 17.5 -72.5t47.5 -24.5z" />
    <glyph glyph-name="A" unicode="A" horiz-adv-x="644" 
d="M525 -7l-53 243h-294l-125 -236h-51l375 694h39l154 -690zM387 627l-187 -350h264z" />
    <glyph glyph-name="B" unicode="B" horiz-adv-x="525" 
d="M486 536q0 -63 -38.5 -107t-99.5 -66q119 -46 119 -153q0 -96 -65.5 -153t-169.5 -57h-174l110 690h142q80 0 128 -40.5t48 -113.5zM437 534q0 54 -34.5 84t-98.5 30h-96l-42 -266h92q75 0 127 44t52 108zM418 209q0 61 -46 96.5t-123 35.5h-90l-48 -299h124q83 0 133 46
t50 121z" />
    <glyph glyph-name="C" unicode="C" horiz-adv-x="570" 
d="M575 645l-8 -54q-74 68 -162 68q-122 0 -204 -112t-82 -266q0 -115 55.5 -182.5t144.5 -67.5q91 0 178 59v-51q-88 -51 -182 -51q-107 0 -176.5 78t-69.5 215q0 170 97.5 295.5t237.5 125.5q98 0 171 -57z" />
    <glyph glyph-name="D" unicode="D" horiz-adv-x="642" 
d="M607 404q0 -183 -117 -300q-104 -104 -257 -104h-175l110 690h155q138 0 211 -76.5t73 -209.5zM557 404q0 114 -60.5 179t-179.5 65h-108l-97 -606h124q126 0 215 87q106 106 106 275z" />
    <glyph glyph-name="E" unicode="E" horiz-adv-x="476" 
d="M497 690l-7 -43h-282l-42 -264h222v-43h-229l-48 -297h293l-7 -43h-339l110 690h329z" />
    <glyph glyph-name="F" unicode="F" horiz-adv-x="447" 
d="M483 690l-7 -43h-268l-44 -275h214v-43h-221l-52 -329h-47l110 690h315z" />
    <glyph glyph-name="G" unicode="G" horiz-adv-x="625" 
d="M572 350l-50 -303q-96 -59 -195 -59q-115 0 -186.5 81t-71.5 210q0 111 43.5 208t122 156t172.5 59q104 0 176 -60l-9 -53q-75 70 -166 70q-81 0 -148 -52.5t-104 -139.5t-37 -188q0 -113 59.5 -181t151.5 -68q84 0 149 40l39 238h-175v42h229z" />
    <glyph glyph-name="H" unicode="H" horiz-adv-x="662" 
d="M639 690l-110 -690h-47l54 340h-377l-54 -340h-47l110 690h47l-49 -308h377l49 308h47z" />
    <glyph glyph-name="I" unicode="I" horiz-adv-x="254" 
d="M223 690l-110 -690h-47l110 690h47z" />
    <glyph glyph-name="J" unicode="J" horiz-adv-x="342" 
d="M324 690l-81 -514q-28 -182 -185 -182q-19 0 -62 8v45q37 -11 65 -11q57 0 90.5 34t45.5 108l80 512h47z" />
    <glyph glyph-name="K" unicode="K" horiz-adv-x="565" 
d="M598 690l-381 -324l293 -361l-51 -12l-297 368l-57 -361h-47l110 690h47l-51 -318l369 318h65z" />
    <glyph glyph-name="L" unicode="L" horiz-adv-x="438" 
d="M375 0h-317l110 690h47l-104 -647h264v-43z" />
    <glyph glyph-name="M" unicode="M" horiz-adv-x="867" 
d="M803 690l-54 -690h-45l50 617l-345 -621h-27l-149 621l-145 -617h-44l166 690h54l142 -618l338 618h59z" />
    <glyph glyph-name="N" unicode="N" horiz-adv-x="662" 
d="M639 690l-110 -690h-28l-302 608l-96 -608h-45l110 690h42l291 -591l93 591h45z" />
    <glyph glyph-name="O" unicode="O" horiz-adv-x="698" 
d="M326 -13q-117 0 -186.5 86.5t-69.5 217.5q0 96 34 179.5t94 143.5q89 89 209 89q117 0 186.5 -86.5t69.5 -217.5q0 -96 -34 -179.5t-94 -143.5q-89 -89 -209 -89zM328 30q97 0 174 77q111 111 111 292q0 116 -56.5 188.5t-151.5 72.5q-97 0 -174 -77q-111 -111 -111 -292
q0 -116 56.5 -188.5t151.5 -72.5z" />
    <glyph glyph-name="P" unicode="P" horiz-adv-x="504" 
d="M499 518q0 -98 -70.5 -158t-182.5 -60h-93l-48 -300h-47l110 690h136q93 0 144 -45.5t51 -126.5zM451 516q0 132 -153 132h-90l-49 -306h88q93 0 148.5 47.5t55.5 126.5z" />
    <glyph glyph-name="Q" unicode="Q" horiz-adv-x="698" 
d="M559 -96l-9 -50l-305 145q-175 84 -175 294q0 94 34 177.5t94 143.5q89 89 209 89q117 0 186.5 -86.5t69.5 -217.5q0 -162 -85.5 -273t-209.5 -135zM328 29q96 0 174 78q111 111 111 292q0 116 -56.5 188.5t-151.5 72.5q-97 0 -174 -77q-111 -111 -111 -292
q0 -116 56.5 -189t151.5 -73z" />
    <glyph glyph-name="R" unicode="R" horiz-adv-x="534" 
d="M495 523q0 -81 -52 -136t-138 -69l177 -314l-48 -11l-181 318h-99l-49 -311h-47l110 690h128q94 0 146.5 -43.5t52.5 -123.5zM447 521q0 127 -156 127h-83l-47 -295h91q88 0 141.5 47.5t53.5 120.5z" />
    <glyph glyph-name="S" unicode="S" horiz-adv-x="479" 
d="M459 660l-8 -51q-72 49 -148 49q-67 0 -107 -40t-40 -97q0 -41 27 -73t92 -70q84 -49 116 -90.5t32 -102.5q0 -85 -62 -139.5t-155 -54.5q-100 0 -180 53l8 50q82 -62 176 -62q70 0 117.5 41.5t47.5 105.5q0 48 -24.5 80.5t-92.5 72.5q-85 50 -117 89t-32 96
q0 77 55 129.5t143 52.5q80 0 152 -39z" />
    <glyph glyph-name="T" unicode="T" horiz-adv-x="524" 
d="M567 647h-214l-103 -647h-47l103 647h-211l7 43h465v-43z" />
    <glyph glyph-name="U" unicode="U" horiz-adv-x="675" 
d="M661 690l-70 -444q-19 -119 -89.5 -187.5t-183.5 -68.5q-104 0 -166 59t-62 165q0 38 6 76l63 400h47l-65 -413q-5 -33 -5 -61q0 -86 48.5 -135.5t136.5 -49.5q93 0 149.5 57.5t73.5 163.5l70 438h47z" />
    <glyph glyph-name="V" unicode="V" horiz-adv-x="638" 
d="M670 690l-373 -694h-36l-151 690l45 11l134 -635l330 628h51z" />
    <glyph glyph-name="W" unicode="W" horiz-adv-x="985" 
d="M1009 690l-315 -690h-35l-107 618l-301 -618h-35l-95 686l48 11l79 -616l292 609h46l102 -609l271 609h50z" />
    <glyph glyph-name="X" unicode="X" horiz-adv-x="595" 
d="M605 690l-264 -332l175 -353l-48 -10l-158 330l-254 -325h-55l289 362l-159 322l48 10l142 -298l229 294h55z" />
    <glyph glyph-name="Y" unicode="Y" horiz-adv-x="576" 
d="M617 690l-294 -393l-47 -297h-47l47 296l-169 391l47 10l151 -361l258 354h54z" />
    <glyph glyph-name="Z" unicode="Z" horiz-adv-x="568" 
d="M577 690l-5 -32l-482 -617h387v-41h-454l5 32l483 617h-360v41h426z" />
    <glyph glyph-name="bracketleft" unicode="[" horiz-adv-x="369" 
d="M392 690l-6 -37h-175l-115 -722h173v-37h-222l126 796h219z" />
    <glyph glyph-name="backslash" unicode="\" horiz-adv-x="492" 
d="M531 -113l-42 -9l-473 808l43 9z" />
    <glyph glyph-name="bracketright" unicode="]" horiz-adv-x="369" 
d="M340 690l-126 -796h-219l6 37h175l115 722h-173v37h222z" />
    <glyph glyph-name="asciicircum" unicode="^" horiz-adv-x="457" 
d="M404 553h-26l-86 95l-110 -95h-34l132 148h42z" />
    <glyph glyph-name="underscore" unicode="_" horiz-adv-x="467" 
d="M421 -66l-7 -39h-470l7 39h470z" />
    <glyph glyph-name="grave" unicode="`" horiz-adv-x="457" 
d="M355 552h-33l-116 140l70 15z" />
    <glyph glyph-name="a" unicode="a" horiz-adv-x="478" 
d="M337 113q-60 -64 -100.5 -93.5t-77.5 -29.5q-54 0 -84.5 41.5t-30.5 114.5q0 138 76.5 234.5t185.5 96.5q63 0 125 -31l-50 -300v-146h-40zM338 164l44 256q-38 16 -83 16q-84 0 -146 -81t-62 -206q0 -58 19.5 -88.5t52.5 -30.5q29 0 66.5 29t108.5 105z" />
    <glyph glyph-name="b" unicode="b" horiz-adv-x="479" 
d="M48 29l107 676l47 10l-54 -335q45 52 80.5 76t75.5 24q62 0 96.5 -47t34.5 -132q0 -133 -71.5 -220t-181.5 -87q-64 0 -134 35zM97 55q47 -21 91 -21q85 0 142.5 72t57.5 192q0 66 -24.5 104t-65.5 38q-31 0 -67 -27.5t-92 -92.5z" />
    <glyph glyph-name="c" unicode="c" horiz-adv-x="408" 
d="M389 440l-8 -48q-60 47 -112 47q-73 0 -125 -74.5t-52 -171.5q0 -77 34.5 -119.5t94.5 -42.5q54 0 118 45v-45q-57 -41 -122 -41q-77 0 -124.5 53.5t-47.5 147.5q0 117 66 203t160 86q63 0 118 -40z" />
    <glyph glyph-name="d" unicode="d" horiz-adv-x="481" 
d="M474 715l-89 -567v-148h-40l-5 100q-51 -59 -87 -84.5t-78 -25.5q-62 0 -96.5 47t-34.5 132q0 133 71.5 220t179.5 87q47 0 94 -17l38 246zM382 417q-46 19 -89 19q-86 0 -144 -72.5t-58 -191.5q0 -66 24.5 -104t65.5 -38q31 0 67 27.5t92 92.5z" />
    <glyph glyph-name="e" unicode="e" horiz-adv-x="439" 
d="M216 31q65 0 145 60v-47q-75 -54 -148 -54q-81 0 -124.5 53t-43.5 144q0 129 65 211t150 82q67 0 103 -44t36 -125q0 -27 -7 -72h-297q-3 -24 -3 -50q0 -74 33 -116t91 -42zM258 440q-51 0 -94.5 -44.5t-61.5 -119.5h248q9 78 -14.5 121t-77.5 43z" />
    <glyph glyph-name="f" unicode="f" horiz-adv-x="269" 
d="M324 665q-20 5 -43 5q-39 0 -58 -19.5t-25 -61.5l-19 -119h100v-39h-106l-95 -602l-47 -10l97 612h-73l5 39h74l20 127q17 115 127 115q23 0 43 -4v-43z" />
    <glyph glyph-name="g" unicode="g" horiz-adv-x="479" 
d="M431 441l-69 -435q-14 -91 -64 -137.5t-130 -46.5q-69 0 -150 34l8 43q78 -35 147 -35q123 0 145 146l14 92q-45 -52 -80 -76.5t-75 -24.5q-62 0 -97 46t-35 128q0 130 71 216t180 86q63 0 135 -36zM382 415q-48 21 -91 21q-85 0 -142 -70.5t-57 -187.5
q0 -64 24.5 -100.5t65.5 -36.5q31 0 66.5 28t92.5 92z" />
    <glyph glyph-name="h" unicode="h" horiz-adv-x="482" 
d="M429 376q0 -16 -4 -44l-53 -332h-46l53 334q4 28 4 40q0 30 -17 47t-49 17q-35 0 -75.5 -31.5t-105.5 -104.5l-47 -302h-46l112 705l47 10l-56 -351q53 58 94.5 87t80.5 29q52 0 80 -26.5t28 -77.5z" />
    <glyph glyph-name="i" unicode="i" horiz-adv-x="220" 
d="M213 638q0 -16 -12 -28t-28 -12q-15 0 -27 12t-12 28t12 28t27 12q17 0 28.5 -12t11.5 -28zM171 470l-76 -470h-46l76 470h46z" />
    <glyph glyph-name="j" unicode="j" horiz-adv-x="220" 
d="M213 638q0 -16 -12 -28t-28 -12q-15 0 -27 12t-12 28t12 28t27 12q17 0 28.5 -12t11.5 -28zM171 470l-89 -553q-9 -52 -35.5 -73.5t-72.5 -21.5q-17 0 -33 2v41q26 -2 35 -2q52 0 62 59l87 548h46z" />
    <glyph glyph-name="k" unicode="k" horiz-adv-x="422" 
d="M89 0h-46l112 705l47 10l-71 -451l231 206h65l-247 -214l190 -251l-50 -12l-191 260z" />
    <glyph glyph-name="l" unicode="l" horiz-adv-x="220" 
d="M208 715l-113 -715h-46l112 705z" />
    <glyph glyph-name="m" unicode="m" horiz-adv-x="755" 
d="M703 376q0 -16 -4 -44l-53 -332h-46l53 334q4 26 4 40q0 30 -16 47t-45 17q-35 0 -76 -32t-104 -104l-48 -302h-46l53 334q4 26 4 40q0 30 -16 47t-45 17q-35 0 -76 -32t-104 -104l-47 -302h-46l51 322v148h40l5 -114q55 62 98 93t85 31q101 0 101 -104q0 -7 -1 -14
q54 59 95.5 88.5t82.5 29.5q101 0 101 -104z" />
    <glyph glyph-name="n" unicode="n" horiz-adv-x="484" 
d="M431 376q0 -16 -4 -44l-53 -332h-46l53 334q4 28 4 40q0 30 -17 47t-49 17q-35 0 -75.5 -31.5t-105.5 -104.5l-47 -302h-46l51 322v148h40l5 -114q56 62 98.5 93t83.5 31q52 0 80 -26.5t28 -77.5z" />
    <glyph glyph-name="o" unicode="o" horiz-adv-x="468" 
d="M423 281q0 -118 -63.5 -204.5t-157.5 -86.5q-74 0 -115.5 54t-41.5 145q0 118 63.5 204.5t157.5 86.5q74 0 115.5 -54.5t41.5 -144.5zM376 279q0 78 -30.5 119.5t-81.5 41.5q-71 0 -121.5 -74.5t-50.5 -174.5q0 -78 31 -119.5t82 -41.5q71 0 121 74.5t50 174.5z" />
    <glyph glyph-name="p" unicode="p" horiz-adv-x="481" 
d="M16 -181l80 503v148h40l5 -100q51 59 87 84.5t78 25.5q62 0 96.5 -47t34.5 -132q0 -133 -71.5 -220t-179.5 -87q-47 0 -94 17l-29 -182zM99 53q46 -19 89 -19q86 0 144 72.5t58 191.5q0 66 -24.5 104t-65.5 38q-31 0 -67 -27.5t-92 -92.5z" />
    <glyph glyph-name="q" unicode="q" horiz-adv-x="479" 
d="M431 441l-97 -612l-47 -10l43 272q-45 -52 -80 -76.5t-75 -24.5q-62 0 -96.5 47.5t-34.5 131.5q0 134 71.5 221t180.5 87q63 0 135 -36zM382 415q-48 21 -91 21q-85 0 -142.5 -71.5t-57.5 -192.5q0 -66 24 -104t65 -38q31 0 66.5 28t92.5 92z" />
    <glyph glyph-name="r" unicode="r" horiz-adv-x="307" 
d="M317 430q-54 -5 -92.5 -39t-88.5 -106l-45 -285h-46l51 322v148h40l5 -125q41 64 83 98t93 34v-47z" />
    <glyph glyph-name="s" unicode="s" horiz-adv-x="375" 
d="M337 447l-9 -47q-60 41 -116 41q-41 0 -68.5 -23.5t-27.5 -58.5q0 -27 17.5 -45.5t64.5 -44.5q70 -38 94 -66t24 -74q0 -66 -43 -102.5t-110 -36.5q-85 0 -152 47l10 46q66 -54 146 -54q43 0 73.5 26t30.5 67q0 32 -18.5 52.5t-72.5 49.5q-60 32 -84.5 59t-24.5 68
q0 58 41.5 93.5t101.5 35.5q65 0 123 -33z" />
    <glyph glyph-name="t" unicode="t" horiz-adv-x="311" 
d="M298 431h-120l-46 -290q-6 -42 -6 -54q0 -55 60 -55q22 0 50 6v-39q-28 -7 -58 -7q-98 0 -98 89q0 28 5 58l47 292h-74l7 39h73l26 167l47 10l-27 -177h114v-39z" />
    <glyph glyph-name="u" unicode="u" horiz-adv-x="484" 
d="M53 94q0 16 4 44l53 332h46l-53 -334q-4 -28 -4 -40q0 -30 17 -47t49 -17q35 0 75.5 31.5t105.5 104.5l47 302h46l-51 -322v-148h-40l-5 114q-56 -62 -98.5 -93t-83.5 -31q-52 0 -80 26.5t-28 77.5z" />
    <glyph glyph-name="v" unicode="v" horiz-adv-x="436" 
d="M441 470l-245 -475h-36l-92 470l45 10l75 -415l203 410h50z" />
    <glyph glyph-name="w" unicode="w" horiz-adv-x="681" 
d="M686 470l-232 -475h-33l-55 399l-178 -399h-34l-82 473l43 10l66 -412l180 407h36l53 -407l189 404h47z" />
    <glyph glyph-name="x" unicode="x" horiz-adv-x="434" 
d="M426 470l-183 -228l118 -238l-44 -11l-104 215l-160 -208h-53l193 244l-110 222l45 12l95 -200l150 192h53z" />
    <glyph glyph-name="y" unicode="y" horiz-adv-x="445" 
d="M450 470l-277 -548q-28 -55 -56.5 -77.5t-70.5 -22.5q-12 0 -26 2v41q14 -2 28 -2q29 0 48.5 16.5t40.5 56.5l33 63l-102 466l45 10l86 -419l201 414h50z" />
    <glyph glyph-name="z" unicode="z" horiz-adv-x="421" 
d="M405 470l-5 -35l-334 -396h273v-39h-334l5 36l334 395h-252v39h313z" />
    <glyph glyph-name="braceleft" unicode="{" horiz-adv-x="443" 
d="M453 690l-6 -37h-66q-116 0 -116 -118v-77q0 -79 -32.5 -117t-95.5 -50v-2q84 -16 84 -90q0 -31 -21 -103.5t-21 -98.5q0 -66 86 -66h65v-37h-71q-124 0 -124 100q0 28 21 101t21 101q0 41 -24.5 59.5t-78.5 18.5h-20v35h23q143 0 143 144v77q0 78 41.5 119t121.5 41h70z
" />
    <glyph glyph-name="bar" unicode="|" horiz-adv-x="266" 
d="M154 -184l-42 -7v907l42 7v-907z" />
    <glyph glyph-name="braceright" unicode="}" horiz-adv-x="443" 
d="M8 -106l6 37h66q116 0 116 118v77q0 79 32.5 117t95.5 50v2q-84 16 -84 90q0 31 21 103.5t21 98.5q0 66 -86 66h-65v37h71q124 0 124 -100q0 -28 -21 -101t-21 -101q0 -41 24.5 -59.5t78.5 -18.5h20v-35h-23q-143 0 -143 -144v-77q0 -78 -41.5 -119t-121.5 -41h-70z" />
    <glyph glyph-name="asciitilde" unicode="~" horiz-adv-x="399" 
d="M357 323q-17 -46 -40.5 -70.5t-49.5 -24.5q-29 0 -72 27q-42 27 -59 27q-26 0 -48 -55l-33 7q17 46 40.5 70.5t49.5 24.5q29 0 72 -27q42 -27 59 -27q26 0 48 55z" />
    <glyph glyph-name="uni00A0" unicode="&#xa0;" horiz-adv-x="110" 
 />
    <glyph glyph-name="exclamdown" unicode="&#xa1;" horiz-adv-x="254" 
d="M229 690l-13 -81h-59l13 81h59zM184 511l-65 -511h-57l95 506z" />
    <glyph glyph-name="cent" unicode="&#xa2;" horiz-adv-x="450" 
d="M383 678l-34 -107q51 -11 90 -47l-15 -37q-42 37 -86 49l-125 -399q15 -4 35 -4q62 0 138 47v-38q-71 -45 -140 -45q-26 0 -44 5l-35 -112l-35 7l36 116q-48 21 -77 68t-29 112q0 114 71.5 199t169.5 85h11l34 108zM106 296q0 -104 74 -146l123 391h-4
q-80 0 -136.5 -74.5t-56.5 -170.5z" />
    <glyph glyph-name="sterling" unicode="&#xa3;" horiz-adv-x="522" 
d="M79 353h100l83 195q30 72 68.5 106.5t98.5 34.5q45 0 94 -19l-10 -40q-47 18 -87 18q-42 0 -71 -27.5t-53 -85.5l-77 -182h186v-40h-203l-114 -274h364v-39h-420l6 32l118 281h-90z" />
    <glyph glyph-name="yen" unicode="&#xa5;" horiz-adv-x="580" 
d="M112 256l6 38h158l-168 376l43 13l154 -359l260 352h52l-292 -382h152v-38h-162l-17 -104h160l-6 -38h-160l-18 -114h-40l18 114h-161v38h167l16 104h-162z" />
    <glyph glyph-name="section" unicode="&#xa7;" horiz-adv-x="506" 
d="M469 359q0 -53 -42 -97l-37 12q34 43 34 80q0 23 -19 40t-70 35l-68 23q-57 19 -85 43.5t-28 68.5q0 53 43.5 86.5t109.5 33.5q76 0 149 -34l-13 -40q-73 35 -140 35q-47 0 -76.5 -22t-29.5 -55q0 -28 20.5 -45t66.5 -32l74 -25q59 -20 85 -45.5t26 -61.5zM71 317
q0 53 42 97l37 -12q-34 -43 -34 -80q0 -23 19 -40.5t70 -34.5l68 -23q57 -19 85 -43.5t28 -68.5q0 -53 -43.5 -86.5t-109.5 -33.5q-76 0 -149 34l13 40q73 -35 140 -35q47 0 76.5 22t29.5 55q0 28 -20.5 45t-66.5 32l-74 25q-59 20 -85 45.5t-26 61.5z" />
    <glyph glyph-name="dieresis" unicode="&#xa8;" horiz-adv-x="457" 
d="M400 566h-70l13 79h70zM233 566h-69l13 79h69z" />
    <glyph glyph-name="copyright" unicode="&#xa9;" horiz-adv-x="811" 
d="M766 345q0 -158 -94 -258t-249 -100t-250 100.5t-95 257.5q0 158 94.5 258t248.5 100q155 0 250 -100t95 -258zM739 345q0 148 -87 241t-231 93t-229.5 -93t-85.5 -241t86.5 -241t231.5 -93q144 0 229.5 93t85.5 241zM554 188q-58 -43 -126 -43q-76 0 -125 57t-49 146
q0 90 50 147t127 57q61 0 117 -36l-8 -43q-53 41 -110 41q-61 0 -97.5 -46t-36.5 -120q0 -73 37 -119.5t97 -46.5q58 0 119 47z" />
    <glyph glyph-name="ordfeminine" unicode="&#xaa;" horiz-adv-x="356" 
d="M303 245h-246l6 37h240v-37zM284 454l13 74q-173 -13 -173 -94q0 -22 11.5 -34.5t32.5 -12.5q46 0 116 67zM141 616v38q62 26 111 26q110 0 92 -106l-23 -129l-4 -85h-34v54q-63 -60 -118 -60q-37 0 -59.5 21.5t-22.5 56.5q0 113 219 127l3 15q12 72 -57 72
q-43 0 -107 -30z" />
    <glyph glyph-name="guillemotleft" unicode="&#xab;" horiz-adv-x="503" 
d="M482 470l-182 -239l106 -227l-34 -9l-130 241l201 234h39zM283 470l-182 -239l106 -227l-34 -9l-130 241l201 234h39z" />
    <glyph glyph-name="registered" unicode="&#xae;" horiz-adv-x="569" 
d="M548 465q0 -102 -62.5 -167t-163.5 -65t-164 65.5t-63 168.5q0 101 63 166t164 65t163.5 -65.5t62.5 -167.5zM527 465q0 93 -57 153t-149 60q-91 0 -147.5 -59.5t-56.5 -151.5q0 -94 56.5 -154t148.5 -60q91 0 148 60t57 152zM425 350l-34 -7l-77 109h-31v-107h-31v258
h64q41 0 64.5 -20t23.5 -54q0 -55 -57 -72zM373 527q0 48 -59 48h-32v-96h31q28 0 44 12.5t16 35.5z" />
    <glyph glyph-name="macron" unicode="&#xaf;" horiz-adv-x="457" 
d="M411 583h-255l7 43h255z" />
    <glyph glyph-name="degree" unicode="&#xb0;" horiz-adv-x="419" 
d="M409 530q0 -65 -43.5 -108.5t-108.5 -43.5q-64 0 -108 43.5t-44 108.5q0 64 44 107.5t108 43.5q65 0 108.5 -43.5t43.5 -107.5zM368 530q0 49 -31.5 83t-80.5 34q-48 0 -79 -34t-31 -83t32 -83.5t80 -34.5q49 0 79.5 34t30.5 84z" />
    <glyph glyph-name="plusminus" unicode="&#xb1;" horiz-adv-x="540" 
d="M312 386l-26 -164h-42l26 164h-161l6 39h161l26 162h42l-26 -162h161l-6 -39h-161zM464 128h-428l7 42h428z" />
    <glyph glyph-name="two.sup" unicode="&#xb2;" 
d="M332 411h-241l4 29l164 146q63 57 63 104q0 26 -19 43.5t-52 17.5q-46 0 -98 -34v37q52 31 103 31q49 0 78 -26.5t29 -65.5q0 -36 -19.5 -65t-64.5 -68l-130 -113h183v-36z" />
    <glyph glyph-name="three.sup" unicode="&#xb3;" 
d="M331 514q0 -51 -36.5 -81.5t-92.5 -30.5q-59 0 -114 35l16 33q50 -34 99 -34q38 0 62.5 21t24.5 54q0 37 -28 56.5t-79 19.5h-8v33h29q48 0 78 20.5t30 55.5q0 27 -19 41t-50 14q-50 0 -100 -34v38q47 30 104 30q46 0 76.5 -22.5t30.5 -62.5q0 -76 -95 -100
q72 -22 72 -86z" />
    <glyph glyph-name="acute" unicode="&#xb4;" horiz-adv-x="457" 
d="M395 692l-160 -140h-40l131 155z" />
    <glyph glyph-name="paragraph" unicode="&#xb6;" horiz-adv-x="492" 
d="M365 0h-42l101 641h-91l-23 -144l-54 -170q-80 5 -126.5 44t-46.5 110q0 86 62.5 140.5t173.5 54.5h153z" />
    <glyph glyph-name="periodcentered" unicode="&#xb7;" horiz-adv-x="203" 
d="M133 242h-61l13 81h60z" />
    <glyph glyph-name="cedilla" unicode="&#xb8;" horiz-adv-x="457" 
d="M231 -77l-140 -119h-36l111 135z" />
    <glyph glyph-name="one.sup" unicode="&#xb9;" 
d="M324 411h-211l6 34h87l48 297l-97 -38l6 38l108 45h27l-54 -342h80v-34z" />
    <glyph glyph-name="ordmasculine" unicode="&#xba;" horiz-adv-x="368" 
d="M206 354q-54 0 -84.5 35t-30.5 98q0 77 45 135t112 58q54 0 84.5 -35t30.5 -97q0 -78 -45 -136t-112 -58zM316 245h-257l6 37h251v-37zM246 643q-48 0 -80.5 -46.5t-32.5 -108.5q0 -51 22 -74t54 -23q48 0 80 46.5t32 108.5q0 51 -21.5 74t-53.5 23z" />
    <glyph glyph-name="guillemotright" unicode="&#xbb;" horiz-adv-x="503" 
d="M220 0l182 239l-106 227l34 9l130 -241l-201 -234h-39zM21 0l182 239l-106 227l34 9l130 -241l-201 -234h-39z" />
    <glyph glyph-name="onequarter" unicode="&#xbc;" horiz-adv-x="810" 
d="M738 84h-55l-13 -86h-37l14 86h-171l4 25l203 259h45l-40 -252h55zM465 331l-261 -339l-34 9l272 350l261 339l33 -10zM315 311h-211l6 34h87l48 297l-97 -38l6 38l108 45h27l-54 -342h80v-34zM651 116l23 145l11 63h-1l-46 -60l-86 -108l-32 -39l1 -1h130z" />
    <glyph glyph-name="onehalf" unicode="&#xbd;" horiz-adv-x="810" 
d="M445 331l-261 -339l-34 9l272 350l261 339l33 -10zM315 311h-211l6 34h87l48 297l-97 -38l6 38l108 45h27l-54 -342h80v-34zM723 0h-241l4 29l164 146q63 57 63 104q0 26 -19 43.5t-52 17.5q-46 0 -98 -34v37q52 31 103 31q49 0 78 -26.5t29 -65.5q0 -36 -19.5 -65
t-64.5 -68l-130 -113h183v-36z" />
    <glyph glyph-name="threequarters" unicode="&#xbe;" horiz-adv-x="810" 
d="M738 84h-55l-13 -86h-37l14 86h-171l4 25l203 259h45l-40 -252h55zM322 414q0 -51 -36.5 -81.5t-92.5 -30.5q-59 0 -114 35l16 33q50 -34 99 -34q38 0 62.5 21t24.5 54q0 37 -28 56.5t-79 19.5h-8v33h29q48 0 78 20.5t30 55.5q0 27 -19 41t-50 14q-50 0 -100 -34v38
q47 30 104 30q46 0 76.5 -22.5t30.5 -62.5q0 -76 -95 -100q72 -22 72 -86zM465 331l-261 -339l-34 9l272 350l261 339l33 -10zM651 116l23 145l11 63h-1l-46 -60l-86 -108l-32 -39l1 -1h130z" />
    <glyph glyph-name="questiondown" unicode="&#xbf;" horiz-adv-x="438" 
d="M200 28q78 0 173 60v-46q-86 -55 -177 -55q-77 0 -121 40.5t-44 108.5q0 80 50 131.5t153 100.5l32 137l35 7l-18 -170l-20 -8q-94 -37 -139 -84t-45 -111q0 -52 33.5 -81.5t87.5 -29.5zM269 609l13 81h58l-12 -81h-59z" />
    <glyph glyph-name="Agrave" unicode="&#xc0;" horiz-adv-x="644" 
d="M525 -7l-53 243h-294l-125 -236h-51l375 694h39l154 -690zM387 627l-187 -350h264zM422 762h-33l-116 140l70 15z" />
    <glyph glyph-name="Aacute" unicode="&#xc1;" horiz-adv-x="644" 
d="M525 -7l-53 243h-294l-125 -236h-51l375 694h39l154 -690zM387 627l-187 -350h264zM583 902l-160 -140h-40l131 155z" />
    <glyph glyph-name="Acircumflex" unicode="&#xc2;" horiz-adv-x="644" 
d="M525 -7l-53 243h-294l-125 -236h-51l375 694h39l154 -690zM387 627l-187 -350h264zM532 752h-26l-86 96l-110 -96h-34l132 149h42z" />
    <glyph glyph-name="Atilde" unicode="&#xc3;" horiz-adv-x="644" 
d="M525 -7l-53 243h-294l-125 -236h-51l375 694h39l154 -690zM387 627l-187 -350h264zM571 866q-17 -46 -40.5 -70.5t-49.5 -24.5q-29 0 -72 27q-42 27 -59 27q-26 0 -48 -55l-33 7q17 46 40.5 70.5t49.5 24.5q29 0 72 -27q42 -27 59 -27q26 0 48 55z" />
    <glyph glyph-name="Adieresis" unicode="&#xc4;" horiz-adv-x="644" 
d="M525 -7l-53 243h-294l-125 -236h-51l375 694h39l154 -690zM387 627l-187 -350h264zM528 776h-70l13 79h70zM361 776h-69l13 79h69z" />
    <glyph glyph-name="Aring" unicode="&#xc5;" horiz-adv-x="644" 
d="M525 -7l-53 243h-294l-125 -236h-51l354 656q-48 25 -48 81q0 39 27 66.5t67 27.5q39 0 66 -27.5t27 -66.5q0 -33 -19 -57t-50 -32l144 -644zM387 627l-187 -350h264zM402 675q26 0 42.5 17.5t16.5 44.5t-17 45t-42 18q-26 0 -43 -18t-17 -45t17 -44.5t43 -17.5z" />
    <glyph glyph-name="AE" unicode="&#xc6;" horiz-adv-x="855" 
d="M31 0h-51l519 690h359l-7 -42h-282l-42 -266h222v-42h-229l-48 -298h293l-7 -42h-339l37 236h-248zM239 277h224l60 377z" />
    <glyph glyph-name="Ccedilla" unicode="&#xc7;" horiz-adv-x="570" 
d="M575 645l-8 -54q-74 68 -162 68q-122 0 -204 -112t-82 -266q0 -115 55.5 -182.5t144.5 -67.5q91 0 178 59v-51q-88 -51 -182 -51q-107 0 -176.5 78t-69.5 215q0 170 97.5 295.5t237.5 125.5q98 0 171 -57zM337 -77l-140 -119h-36l111 135z" />
    <glyph glyph-name="Egrave" unicode="&#xc8;" horiz-adv-x="476" 
d="M497 690l-7 -43h-282l-42 -264h222v-43h-229l-48 -297h293l-7 -43h-339l110 690h329zM356 752h-33l-116 140l70 15z" />
    <glyph glyph-name="Eacute" unicode="&#xc9;" horiz-adv-x="476" 
d="M497 690l-7 -43h-282l-42 -264h222v-43h-229l-48 -297h293l-7 -43h-339l110 690h329zM517 892l-160 -140h-40l131 155z" />
    <glyph glyph-name="Ecircumflex" unicode="&#xca;" horiz-adv-x="476" 
d="M497 690l-7 -43h-282l-42 -264h222v-43h-229l-48 -297h293l-7 -43h-339l110 690h329zM468 752h-26l-86 96l-110 -96h-34l132 149h42z" />
    <glyph glyph-name="Edieresis" unicode="&#xcb;" horiz-adv-x="476" 
d="M497 690l-7 -43h-282l-42 -264h222v-43h-229l-48 -297h293l-7 -43h-339l110 690h329zM462 766h-70l13 79h70zM295 766h-69l13 79h69z" />
    <glyph glyph-name="Igrave" unicode="&#xcc;" horiz-adv-x="254" 
d="M223 690l-110 -690h-47l110 690h47zM224 752h-33l-116 140l70 15z" />
    <glyph glyph-name="Iacute" unicode="&#xcd;" horiz-adv-x="254" 
d="M223 690l-110 -690h-47l110 690h47zM385 892l-160 -140h-40l131 155z" />
    <glyph glyph-name="Icircumflex" unicode="&#xce;" horiz-adv-x="254" 
d="M223 690l-110 -690h-47l110 690h47zM336 752h-26l-86 96l-110 -96h-34l132 149h42z" />
    <glyph glyph-name="Idieresis" unicode="&#xcf;" horiz-adv-x="254" 
d="M223 690l-110 -690h-47l110 690h47zM330 766h-70l13 79h70zM163 766h-69l13 79h69z" />
    <glyph glyph-name="Eth" unicode="&#xd0;" horiz-adv-x="650" 
d="M615 404q0 -183 -117 -300q-104 -104 -257 -104h-175l54 341h-83v41h90l49 308h155q138 0 211 -76.5t73 -209.5zM335 341h-167l-48 -299h124q126 0 215 87q106 106 106 275q0 114 -60.5 179t-179.5 65h-108l-43 -266h167z" />
    <glyph glyph-name="Ntilde" unicode="&#xd1;" horiz-adv-x="662" 
d="M639 690l-110 -690h-28l-302 608l-96 -608h-45l110 690h42l291 -591l93 591h45zM581 856q-17 -46 -40.5 -70.5t-49.5 -24.5q-29 0 -72 27q-42 27 -59 27q-26 0 -48 -55l-33 7q17 46 40.5 70.5t49.5 24.5q29 0 72 -27q42 -27 59 -27q26 0 48 55z" />
    <glyph glyph-name="Ograve" unicode="&#xd2;" horiz-adv-x="698" 
d="M326 -13q-117 0 -186.5 86.5t-69.5 217.5q0 96 34 179.5t94 143.5q89 89 209 89q117 0 186.5 -86.5t69.5 -217.5q0 -96 -34 -179.5t-94 -143.5q-89 -89 -209 -89zM328 30q97 0 174 77q111 111 111 292q0 116 -56.5 188.5t-151.5 72.5q-97 0 -174 -77q-111 -111 -111 -292
q0 -116 56.5 -188.5t151.5 -72.5zM455 762h-33l-116 140l70 15z" />
    <glyph glyph-name="Oacute" unicode="&#xd3;" horiz-adv-x="698" 
d="M326 -13q-117 0 -186.5 86.5t-69.5 217.5q0 96 34 179.5t94 143.5q89 89 209 89q117 0 186.5 -86.5t69.5 -217.5q0 -96 -34 -179.5t-94 -143.5q-89 -89 -209 -89zM328 30q97 0 174 77q111 111 111 292q0 116 -56.5 188.5t-151.5 72.5q-97 0 -174 -77q-111 -111 -111 -292
q0 -116 56.5 -188.5t151.5 -72.5zM616 902l-160 -140h-40l131 155z" />
    <glyph glyph-name="Ocircumflex" unicode="&#xd4;" horiz-adv-x="698" 
d="M326 -13q-117 0 -186.5 86.5t-69.5 217.5q0 96 34 179.5t94 143.5q89 89 209 89q117 0 186.5 -86.5t69.5 -217.5q0 -96 -34 -179.5t-94 -143.5q-89 -89 -209 -89zM328 30q97 0 174 77q111 111 111 292q0 116 -56.5 188.5t-151.5 72.5q-97 0 -174 -77q-111 -111 -111 -292
q0 -116 56.5 -188.5t151.5 -72.5zM568 762h-26l-86 96l-110 -96h-34l132 149h42z" />
    <glyph glyph-name="Otilde" unicode="&#xd5;" horiz-adv-x="698" 
d="M326 -13q-117 0 -186.5 86.5t-69.5 217.5q0 96 34 179.5t94 143.5q89 89 209 89q117 0 186.5 -86.5t69.5 -217.5q0 -96 -34 -179.5t-94 -143.5q-89 -89 -209 -89zM328 30q97 0 174 77q111 111 111 292q0 116 -56.5 188.5t-151.5 72.5q-97 0 -174 -77q-111 -111 -111 -292
q0 -116 56.5 -188.5t151.5 -72.5zM604 866q-17 -46 -40.5 -70.5t-49.5 -24.5q-28 0 -72 27q-42 27 -59 27q-26 0 -48 -55l-33 7q17 46 40.5 70.5t49.5 24.5q28 0 72 -27q42 -27 59 -27q26 0 48 55z" />
    <glyph glyph-name="Odieresis" unicode="&#xd6;" horiz-adv-x="698" 
d="M326 -13q-117 0 -186.5 86.5t-69.5 217.5q0 96 34 179.5t94 143.5q89 89 209 89q117 0 186.5 -86.5t69.5 -217.5q0 -96 -34 -179.5t-94 -143.5q-89 -89 -209 -89zM328 30q97 0 174 77q111 111 111 292q0 116 -56.5 188.5t-151.5 72.5q-97 0 -174 -77q-111 -111 -111 -292
q0 -116 56.5 -188.5t151.5 -72.5zM561 776h-70l13 79h70zM394 776h-69l13 79h69z" />
    <glyph glyph-name="multiply" unicode="&#xd7;" horiz-adv-x="568" 
d="M440 139l-143 172l-197 -171l-25 29l198 170l-145 171l32 27l143 -172l197 171l25 -29l-198 -170l145 -171z" />
    <glyph glyph-name="Oslash" unicode="&#xd8;" horiz-adv-x="698" 
d="M326 -13q-110 0 -179 77l-63 -71l-43 9l82 94q-53 81 -53 195q0 96 34 179.5t94 143.5q89 89 209 89q111 0 180 -79l64 73l43 -9l-84 -95q53 -83 53 -194q0 -96 -34 -179.5t-94 -143.5q-89 -89 -209 -89zM120 291q0 -92 37 -158l399 455q-58 72 -151 72q-97 0 -174 -77
q-111 -111 -111 -292zM328 30q97 0 174 77q111 111 111 292q0 90 -36 157l-399 -456q57 -70 150 -70z" />
    <glyph glyph-name="Ugrave" unicode="&#xd9;" horiz-adv-x="675" 
d="M661 690l-70 -444q-19 -119 -89.5 -187.5t-183.5 -68.5q-104 0 -166 59t-62 165q0 38 6 76l63 400h47l-65 -413q-5 -33 -5 -61q0 -86 48.5 -135.5t136.5 -49.5q93 0 149.5 57.5t73.5 163.5l70 438h47zM433 752h-33l-116 140l70 15z" />
    <glyph glyph-name="Uacute" unicode="&#xda;" horiz-adv-x="675" 
d="M661 690l-70 -444q-19 -119 -89.5 -187.5t-183.5 -68.5q-104 0 -166 59t-62 165q0 38 6 76l63 400h47l-65 -413q-5 -33 -5 -61q0 -86 48.5 -135.5t136.5 -49.5q93 0 149.5 57.5t73.5 163.5l70 438h47zM594 892l-160 -140h-40l131 155z" />
    <glyph glyph-name="Ucircumflex" unicode="&#xdb;" horiz-adv-x="675" 
d="M661 690l-70 -444q-19 -119 -89.5 -187.5t-183.5 -68.5q-104 0 -166 59t-62 165q0 38 6 76l63 400h47l-65 -413q-5 -33 -5 -61q0 -86 48.5 -135.5t136.5 -49.5q93 0 149.5 57.5t73.5 163.5l70 438h47zM545 752h-26l-86 96l-110 -96h-34l132 149h42z" />
    <glyph glyph-name="Udieresis" unicode="&#xdc;" horiz-adv-x="675" 
d="M661 690l-70 -444q-19 -119 -89.5 -187.5t-183.5 -68.5q-104 0 -166 59t-62 165q0 38 6 76l63 400h47l-65 -413q-5 -33 -5 -61q0 -86 48.5 -135.5t136.5 -49.5q93 0 149.5 57.5t73.5 163.5l70 438h47zM539 766h-70l13 79h70zM372 766h-69l13 79h69z" />
    <glyph glyph-name="Yacute" unicode="&#xdd;" horiz-adv-x="576" 
d="M617 690l-294 -393l-47 -297h-47l47 296l-169 391l47 10l151 -361l258 354h54zM545 892l-160 -140h-40l131 155z" />
    <glyph glyph-name="Thorn" unicode="&#xde;" horiz-adv-x="500" 
d="M471 372q0 -94 -68.5 -154t-175.5 -60h-97l-25 -158h-47l110 690h47l-22 -142h78q96 0 148 -45.5t52 -130.5zM424 369q0 137 -158 137h-80l-49 -305h97q89 0 139.5 49.5t50.5 118.5z" />
    <glyph glyph-name="germandbls" unicode="&#xdf;" horiz-adv-x="558" 
d="M509 157q0 -75 -49.5 -120.5t-127.5 -45.5q-64 0 -134 35l8 43q68 -38 132 -38q53 0 88.5 33.5t35.5 86.5q0 59 -46.5 97t-149.5 67v27q74 74 105 125.5t31 109.5q0 44 -25 70t-65 26q-102 0 -123 -137l-111 -707l-47 -10l97 612h-73l5 39h74l11 74q12 78 56 123t114 45
q61 0 97.5 -35.5t36.5 -95.5q0 -67 -30.5 -118t-99.5 -120q190 -58 190 -186z" />
    <glyph glyph-name="agrave" unicode="&#xe0;" horiz-adv-x="478" 
d="M337 113q-60 -64 -100.5 -93.5t-77.5 -29.5q-54 0 -84.5 41.5t-30.5 114.5q0 138 76.5 234.5t185.5 96.5q63 0 125 -31l-50 -300v-146h-40zM338 164l44 256q-38 16 -83 16q-84 0 -146 -81t-62 -206q0 -58 19.5 -88.5t52.5 -30.5q29 0 66.5 29t108.5 105zM312 552h-33
l-116 140l70 15z" />
    <glyph glyph-name="aacute" unicode="&#xe1;" horiz-adv-x="478" 
d="M337 113q-60 -64 -100.5 -93.5t-77.5 -29.5q-54 0 -84.5 41.5t-30.5 114.5q0 138 76.5 234.5t185.5 96.5q63 0 125 -31l-50 -300v-146h-40zM338 164l44 256q-38 16 -83 16q-84 0 -146 -81t-62 -206q0 -58 19.5 -88.5t52.5 -30.5q29 0 66.5 29t108.5 105zM473 692
l-160 -140h-40l131 155z" />
    <glyph glyph-name="acircumflex" unicode="&#xe2;" horiz-adv-x="478" 
d="M337 113q-60 -64 -100.5 -93.5t-77.5 -29.5q-54 0 -84.5 41.5t-30.5 114.5q0 138 76.5 234.5t185.5 96.5q63 0 125 -31l-50 -300v-146h-40zM338 164l44 256q-38 16 -83 16q-84 0 -146 -81t-62 -206q0 -58 19.5 -88.5t52.5 -30.5q29 0 66.5 29t108.5 105zM424 552h-26
l-86 96l-110 -96h-34l132 149h42z" />
    <glyph glyph-name="atilde" unicode="&#xe3;" horiz-adv-x="478" 
d="M337 113q-60 -64 -100.5 -93.5t-77.5 -29.5q-54 0 -84.5 41.5t-30.5 114.5q0 138 76.5 234.5t185.5 96.5q63 0 125 -31l-50 -300v-146h-40zM338 164l44 256q-38 16 -83 16q-84 0 -146 -81t-62 -206q0 -58 19.5 -88.5t52.5 -30.5q29 0 66.5 29t108.5 105zM461 656
q-17 -46 -40.5 -70.5t-49.5 -24.5q-29 0 -72 27q-42 27 -59 27q-26 0 -48 -55l-33 7q17 46 40.5 70.5t49.5 24.5q29 0 72 -27q42 -27 59 -27q26 0 48 55z" />
    <glyph glyph-name="adieresis" unicode="&#xe4;" horiz-adv-x="478" 
d="M337 113q-60 -64 -100.5 -93.5t-77.5 -29.5q-54 0 -84.5 41.5t-30.5 114.5q0 138 76.5 234.5t185.5 96.5q63 0 125 -31l-50 -300v-146h-40zM338 164l44 256q-38 16 -83 16q-84 0 -146 -81t-62 -206q0 -58 19.5 -88.5t52.5 -30.5q29 0 66.5 29t108.5 105zM418 566h-70
l13 79h70zM251 566h-69l13 79h69z" />
    <glyph glyph-name="aring" unicode="&#xe5;" horiz-adv-x="478" 
d="M337 113q-60 -64 -100.5 -93.5t-77.5 -29.5q-54 0 -84.5 41.5t-30.5 114.5q0 138 76.5 234.5t185.5 96.5q63 0 125 -31l-50 -300v-146h-40zM338 164l44 256q-38 16 -83 16q-84 0 -146 -81t-62 -206q0 -58 19.5 -88.5t52.5 -30.5q29 0 66.5 29t108.5 105zM313 580
q26 0 42.5 17.5t16.5 44.5t-17 45t-42 18q-26 0 -43 -18t-17 -45t17 -44.5t43 -17.5zM313 550q-40 0 -67 26t-27 66q0 39 27 66.5t67 27.5q39 0 66 -27.5t27 -66.5q0 -40 -26.5 -66t-66.5 -26z" />
    <glyph glyph-name="ae" unicode="&#xe6;" horiz-adv-x="715" 
d="M675 311q0 -27 -7 -72h-297q-3 -22 -3 -46q0 -77 34 -119.5t92 -42.5q63 0 143 60v-47q-75 -54 -148 -54q-107 0 -148 94q-105 -93 -190 -93q-56 0 -92 31t-36 88q0 161 311 184l4 31q8 60 -12.5 88t-73.5 28q-58 0 -144 -42v43q80 38 147 38q115 0 128 -89q64 89 153 89
q67 0 103 -44t36 -125zM626 276q9 78 -14.5 121t-77.5 43q-51 0 -95 -45t-62 -119h249zM328 121q-7 39 -7 70q0 35 6 67q-257 -19 -257 -145q0 -40 23.5 -61t62.5 -21q69 0 172 90z" />
    <glyph glyph-name="ccedilla" unicode="&#xe7;" horiz-adv-x="408" 
d="M389 440l-8 -48q-60 47 -112 47q-73 0 -125 -74.5t-52 -171.5q0 -77 34.5 -119.5t94.5 -42.5q54 0 118 45v-45q-57 -41 -122 -41q-77 0 -124.5 53.5t-47.5 147.5q0 117 66 203t160 86q63 0 118 -40zM227 -77l-140 -119h-36l111 135z" />
    <glyph glyph-name="egrave" unicode="&#xe8;" horiz-adv-x="439" 
d="M216 31q65 0 145 60v-47q-75 -54 -148 -54q-81 0 -124.5 53t-43.5 144q0 129 65 211t150 82q67 0 103 -44t36 -125q0 -27 -7 -72h-297q-3 -24 -3 -50q0 -74 33 -116t91 -42zM258 440q-51 0 -94.5 -44.5t-61.5 -119.5h248q9 78 -14.5 121t-77.5 43zM293 552h-33l-116 140
l70 15z" />
    <glyph glyph-name="eacute" unicode="&#xe9;" horiz-adv-x="439" 
d="M216 31q65 0 145 60v-47q-75 -54 -148 -54q-81 0 -124.5 53t-43.5 144q0 129 65 211t150 82q67 0 103 -44t36 -125q0 -27 -7 -72h-297q-3 -24 -3 -50q0 -74 33 -116t91 -42zM258 440q-51 0 -94.5 -44.5t-61.5 -119.5h248q9 78 -14.5 121t-77.5 43zM454 692l-160 -140h-40
l131 155z" />
    <glyph glyph-name="ecircumflex" unicode="&#xea;" horiz-adv-x="439" 
d="M216 31q65 0 145 60v-47q-75 -54 -148 -54q-81 0 -124.5 53t-43.5 144q0 129 65 211t150 82q67 0 103 -44t36 -125q0 -27 -7 -72h-297q-3 -24 -3 -50q0 -74 33 -116t91 -42zM258 440q-51 0 -94.5 -44.5t-61.5 -119.5h248q9 78 -14.5 121t-77.5 43zM405 552h-26l-86 96
l-110 -96h-34l132 149h42z" />
    <glyph glyph-name="edieresis" unicode="&#xeb;" horiz-adv-x="439" 
d="M216 31q65 0 145 60v-47q-75 -54 -148 -54q-81 0 -124.5 53t-43.5 144q0 129 65 211t150 82q67 0 103 -44t36 -125q0 -27 -7 -72h-297q-3 -24 -3 -50q0 -74 33 -116t91 -42zM258 440q-51 0 -94.5 -44.5t-61.5 -119.5h248q9 78 -14.5 121t-77.5 43zM399 566h-70l13 79h70z
M232 566h-69l13 79h69z" />
    <glyph glyph-name="igrave" unicode="&#xec;" horiz-adv-x="220" 
d="M171 470l-76 -470h-46l76 470h46zM175 552h-33l-116 140l70 15z" />
    <glyph glyph-name="iacute" unicode="&#xed;" horiz-adv-x="220" 
d="M171 470l-76 -470h-46l76 470h46zM336 692l-160 -140h-40l131 155z" />
    <glyph glyph-name="icircumflex" unicode="&#xee;" horiz-adv-x="220" 
d="M171 470l-76 -470h-46l76 470h46zM287 552h-26l-86 96l-110 -96h-34l132 149h42z" />
    <glyph glyph-name="idieresis" unicode="&#xef;" horiz-adv-x="220" 
d="M171 470l-76 -470h-46l76 470h46zM281 566h-70l13 79h70zM114 566h-69l13 79h69z" />
    <glyph glyph-name="eth" unicode="&#xf0;" horiz-adv-x="481" 
d="M278 515h-40l74 100q-36 33 -102 59l13 41q70 -26 114 -66l49 66l35 -10l-60 -80q75 -84 75 -226q0 -234 -118 -354q-55 -55 -124 -55q-65 0 -108.5 48t-43.5 135q0 112 60.5 192t142.5 80q81 0 145 -80q1 10 1 32q0 125 -56 194zM198 30q68 0 120 79.5t67 201.5
q-63 94 -141 94q-63 0 -108.5 -69t-45.5 -166q0 -68 29.5 -104t78.5 -36z" />
    <glyph glyph-name="ntilde" unicode="&#xf1;" horiz-adv-x="484" 
d="M431 376q0 -16 -4 -44l-53 -332h-46l53 334q4 28 4 40q0 30 -17 47t-49 17q-35 0 -75.5 -31.5t-105.5 -104.5l-47 -302h-46l51 322v148h40l5 -114q56 62 98.5 93t83.5 31q52 0 80 -26.5t28 -77.5zM454 656q-17 -46 -40.5 -70.5t-49.5 -24.5q-28 0 -72 27q-42 27 -59 27
q-26 0 -48 -55l-33 7q17 46 40.5 70.5t49.5 24.5q28 0 72 -27q42 -27 59 -27q26 0 48 55z" />
    <glyph glyph-name="ograve" unicode="&#xf2;" horiz-adv-x="468" 
d="M423 281q0 -118 -63.5 -204.5t-157.5 -86.5q-74 0 -115.5 54t-41.5 145q0 118 63.5 204.5t157.5 86.5q74 0 115.5 -54.5t41.5 -144.5zM376 279q0 78 -30.5 119.5t-81.5 41.5q-71 0 -121.5 -74.5t-50.5 -174.5q0 -78 31 -119.5t82 -41.5q71 0 121 74.5t50 174.5zM299 552
h-33l-116 140l70 15z" />
    <glyph glyph-name="oacute" unicode="&#xf3;" horiz-adv-x="468" 
d="M423 281q0 -118 -63.5 -204.5t-157.5 -86.5q-74 0 -115.5 54t-41.5 145q0 118 63.5 204.5t157.5 86.5q74 0 115.5 -54.5t41.5 -144.5zM376 279q0 78 -30.5 119.5t-81.5 41.5q-71 0 -121.5 -74.5t-50.5 -174.5q0 -78 31 -119.5t82 -41.5q71 0 121 74.5t50 174.5zM460 692
l-160 -140h-40l131 155z" />
    <glyph glyph-name="ocircumflex" unicode="&#xf4;" horiz-adv-x="468" 
d="M423 281q0 -118 -63.5 -204.5t-157.5 -86.5q-74 0 -115.5 54t-41.5 145q0 118 63.5 204.5t157.5 86.5q74 0 115.5 -54.5t41.5 -144.5zM376 279q0 78 -30.5 119.5t-81.5 41.5q-71 0 -121.5 -74.5t-50.5 -174.5q0 -78 31 -119.5t82 -41.5q71 0 121 74.5t50 174.5zM411 552
h-26l-86 96l-110 -96h-34l132 149h42z" />
    <glyph glyph-name="otilde" unicode="&#xf5;" horiz-adv-x="468" 
d="M423 281q0 -118 -63.5 -204.5t-157.5 -86.5q-74 0 -115.5 54t-41.5 145q0 118 63.5 204.5t157.5 86.5q74 0 115.5 -54.5t41.5 -144.5zM376 279q0 78 -30.5 119.5t-81.5 41.5q-71 0 -121.5 -74.5t-50.5 -174.5q0 -78 31 -119.5t82 -41.5q71 0 121 74.5t50 174.5zM448 656
q-17 -46 -40.5 -70.5t-49.5 -24.5q-28 0 -72 27q-42 27 -59 27q-26 0 -48 -55l-33 7q17 46 40.5 70.5t49.5 24.5q28 0 72 -27q42 -27 59 -27q26 0 48 55z" />
    <glyph glyph-name="odieresis" unicode="&#xf6;" horiz-adv-x="468" 
d="M423 281q0 -118 -63.5 -204.5t-157.5 -86.5q-74 0 -115.5 54t-41.5 145q0 118 63.5 204.5t157.5 86.5q74 0 115.5 -54.5t41.5 -144.5zM376 279q0 78 -30.5 119.5t-81.5 41.5q-71 0 -121.5 -74.5t-50.5 -174.5q0 -78 31 -119.5t82 -41.5q71 0 121 74.5t50 174.5zM405 566
h-70l13 79h70zM238 566h-69l13 79h69z" />
    <glyph glyph-name="divide" unicode="&#xf7;" horiz-adv-x="568" 
d="M354 486h-59l12 76h59zM522 319h-448l6 38h448zM296 114h-59l12 76h59z" />
    <glyph glyph-name="oslash" unicode="&#xf8;" horiz-adv-x="468" 
d="M454 469l-57 -68q26 -50 26 -120q0 -118 -63.5 -204.5t-157.5 -86.5q-69 0 -110 47l-37 -44l-39 9l55 66q-26 49 -26 121q0 118 63.5 204.5t157.5 86.5q67 0 110 -48l39 46zM91 191q0 -52 13 -85l243 291q-31 43 -83 43q-71 0 -122 -75t-51 -174zM377 279q0 47 -13 84
l-243 -290q31 -43 84 -43q71 0 121.5 74.5t50.5 174.5z" />
    <glyph glyph-name="ugrave" unicode="&#xf9;" horiz-adv-x="484" 
d="M53 94q0 16 4 44l53 332h46l-53 -334q-4 -28 -4 -40q0 -30 17 -47t49 -17q35 0 75.5 31.5t105.5 104.5l47 302h46l-51 -322v-148h-40l-5 114q-56 -62 -98.5 -93t-83.5 -31q-52 0 -80 26.5t-28 77.5zM297 547h-33l-116 140l70 15z" />
    <glyph glyph-name="uacute" unicode="&#xfa;" horiz-adv-x="484" 
d="M53 94q0 16 4 44l53 332h46l-53 -334q-4 -28 -4 -40q0 -30 17 -47t49 -17q35 0 75.5 31.5t105.5 104.5l47 302h46l-51 -322v-148h-40l-5 114q-56 -62 -98.5 -93t-83.5 -31q-52 0 -80 26.5t-28 77.5zM458 687l-160 -140h-40l131 155z" />
    <glyph glyph-name="ucircumflex" unicode="&#xfb;" horiz-adv-x="484" 
d="M53 94q0 16 4 44l53 332h46l-53 -334q-4 -28 -4 -40q0 -30 17 -47t49 -17q35 0 75.5 31.5t105.5 104.5l47 302h46l-51 -322v-148h-40l-5 114q-56 -62 -98.5 -93t-83.5 -31q-52 0 -80 26.5t-28 77.5zM409 547h-26l-86 96l-110 -96h-34l132 149h42z" />
    <glyph glyph-name="udieresis" unicode="&#xfc;" horiz-adv-x="484" 
d="M53 94q0 16 4 44l53 332h46l-53 -334q-4 -28 -4 -40q0 -30 17 -47t49 -17q35 0 75.5 31.5t105.5 104.5l47 302h46l-51 -322v-148h-40l-5 114q-56 -62 -98.5 -93t-83.5 -31q-52 0 -80 26.5t-28 77.5zM403 561h-70l13 79h70zM236 561h-69l13 79h69z" />
    <glyph glyph-name="yacute" unicode="&#xfd;" horiz-adv-x="445" 
d="M450 470l-277 -548q-28 -55 -56.5 -77.5t-70.5 -22.5q-12 0 -26 2v41q14 -2 28 -2q29 0 48.5 16.5t40.5 56.5l33 63l-102 466l45 10l86 -419l201 414h50zM453 687l-160 -140h-40l131 155z" />
    <glyph glyph-name="thorn" unicode="&#xfe;" horiz-adv-x="479" 
d="M435 301q0 -133 -71.5 -220t-179.5 -87q-47 0 -94 17l-29 -182l-47 -10l141 886l47 10l-54 -335q45 52 80.5 76t75.5 24q62 0 96.5 -47t34.5 -132zM97 53q46 -19 89 -19q86 0 144.5 72.5t58.5 191.5q0 66 -25 104t-66 38q-31 0 -67 -27.5t-92 -92.5z" />
    <glyph glyph-name="ydieresis" unicode="&#xff;" horiz-adv-x="445" 
d="M450 470l-277 -548q-28 -55 -56.5 -77.5t-70.5 -22.5q-12 0 -26 2v41q14 -2 28 -2q29 0 48.5 16.5t40.5 56.5l33 63l-102 466l45 10l86 -419l201 414h50zM398 561h-70l13 79h70zM231 561h-69l13 79h69z" />
    <glyph glyph-name="Amacron" unicode="&#x100;" horiz-adv-x="644" 
d="M525 -7l-53 243h-294l-125 -236h-51l375 694h39l154 -690zM387 627l-187 -350h264zM540 793h-255l7 43h255z" />
    <glyph glyph-name="amacron" unicode="&#x101;" horiz-adv-x="478" 
d="M337 113q-60 -64 -100.5 -93.5t-77.5 -29.5q-54 0 -84.5 41.5t-30.5 114.5q0 138 76.5 234.5t185.5 96.5q63 0 125 -31l-50 -300v-146h-40zM338 164l44 256q-38 16 -83 16q-84 0 -146 -81t-62 -206q0 -58 19.5 -88.5t52.5 -30.5q29 0 66.5 29t108.5 105zM430 583h-255
l7 43h255z" />
    <glyph glyph-name="Abreve" unicode="&#x102;" horiz-adv-x="644" 
d="M525 -7l-53 243h-294l-125 -236h-51l375 694h39l154 -690zM387 627l-187 -350h264zM549 876q-14 -45 -50 -77t-92 -32t-82 32t-24 77l36 5q4 -32 24.5 -49.5t53.5 -17.5q68 0 100 67z" />
    <glyph glyph-name="abreve" unicode="&#x103;" horiz-adv-x="478" 
d="M337 113q-60 -64 -100.5 -93.5t-77.5 -29.5q-54 0 -84.5 41.5t-30.5 114.5q0 138 76.5 234.5t185.5 96.5q63 0 125 -31l-50 -300v-146h-40zM338 164l44 256q-38 16 -83 16q-84 0 -146 -81t-62 -206q0 -58 19.5 -88.5t52.5 -30.5q29 0 66.5 29t108.5 105zM439 666
q-14 -45 -50 -77t-92 -32t-82 32t-24 77l36 5q4 -32 24.5 -49.5t53.5 -17.5q68 0 100 67z" />
    <glyph glyph-name="Aogonek" unicode="&#x104;" horiz-adv-x="644" 
d="M570 4l-9 -2l-29 -36q-41 -50 -41 -75q0 -29 35 -29q20 0 36 5l-5 -32q-24 -8 -46 -8q-63 0 -63 51q0 25 12 45t44 55l19 22l-51 236h-294l-125 -236h-51l375 694h39zM387 627l-187 -350h264z" />
    <glyph glyph-name="aogonek" unicode="&#x105;" horiz-adv-x="478" 
d="M337 113q-60 -64 -100.5 -93.5t-77.5 -29.5q-54 0 -84.5 41.5t-30.5 114.5q0 138 76.5 234.5t185.5 96.5q63 0 125 -31l-50 -300v-146h-14l-28 -34q-41 -50 -41 -75q0 -29 35 -29q20 0 36 5l-5 -32q-24 -8 -46 -8q-63 0 -63 51q0 25 12 45t44 55l29 33zM338 164l44 256
q-38 16 -83 16q-84 0 -146 -81t-62 -206q0 -58 19.5 -88.5t52.5 -30.5q29 0 66.5 29t108.5 105z" />
    <glyph glyph-name="Cacute" unicode="&#x106;" horiz-adv-x="570" 
d="M575 645l-8 -54q-74 68 -162 68q-122 0 -204 -112t-82 -266q0 -115 55.5 -182.5t144.5 -67.5q91 0 178 59v-51q-88 -51 -182 -51q-107 0 -176.5 78t-69.5 215q0 170 97.5 295.5t237.5 125.5q98 0 171 -57zM603 902l-160 -140h-40l131 155z" />
    <glyph glyph-name="cacute" unicode="&#x107;" horiz-adv-x="408" 
d="M389 440l-8 -48q-60 47 -112 47q-73 0 -125 -74.5t-52 -171.5q0 -77 34.5 -119.5t94.5 -42.5q54 0 118 45v-45q-57 -41 -122 -41q-77 0 -124.5 53.5t-47.5 147.5q0 117 66 203t160 86q63 0 118 -40zM461 692l-160 -140h-40l131 155z" />
    <glyph glyph-name="Cdotaccent" unicode="&#x10a;" horiz-adv-x="570" 
d="M575 645l-8 -54q-74 68 -162 68q-122 0 -204 -112t-82 -266q0 -115 55.5 -182.5t144.5 -67.5q91 0 178 59v-51q-88 -51 -182 -51q-107 0 -176.5 78t-69.5 215q0 170 97.5 295.5t237.5 125.5q98 0 171 -57zM465 771h-71l13 81h71z" />
    <glyph glyph-name="cdotaccent" unicode="&#x10b;" horiz-adv-x="408" 
d="M389 440l-8 -48q-60 47 -112 47q-73 0 -125 -74.5t-52 -171.5q0 -77 34.5 -119.5t94.5 -42.5q54 0 118 45v-45q-57 -41 -122 -41q-77 0 -124.5 53.5t-47.5 147.5q0 117 66 203t160 86q63 0 118 -40zM322 561h-71l13 81h71z" />
    <glyph glyph-name="Ccaron" unicode="&#x10c;" horiz-adv-x="570" 
d="M575 645l-8 -54q-74 68 -162 68q-122 0 -204 -112t-82 -266q0 -115 55.5 -182.5t144.5 -67.5q91 0 178 59v-51q-88 -51 -182 -51q-107 0 -176.5 78t-69.5 215q0 170 97.5 295.5t237.5 125.5q98 0 171 -57zM324 911h26l86 -96l110 96h34l-132 -149h-42z" />
    <glyph glyph-name="ccaron" unicode="&#x10d;" horiz-adv-x="408" 
d="M389 440l-8 -48q-60 47 -112 47q-73 0 -125 -74.5t-52 -171.5q0 -77 34.5 -119.5t94.5 -42.5q54 0 118 45v-45q-57 -41 -122 -41q-77 0 -124.5 53.5t-47.5 147.5q0 117 66 203t160 86q63 0 118 -40zM181 701h26l86 -96l110 96h34l-132 -149h-42z" />
    <glyph glyph-name="Dcaron" unicode="&#x10e;" horiz-adv-x="642" 
d="M607 404q0 -183 -117 -300q-104 -104 -257 -104h-175l110 690h155q138 0 211 -76.5t73 -209.5zM557 404q0 114 -60.5 179t-179.5 65h-108l-97 -606h124q126 0 215 87q106 106 106 275zM281 901h26l86 -96l110 96h34l-132 -149h-42z" />
    <glyph glyph-name="dcaron" unicode="&#x10f;" horiz-adv-x="481" 
d="M474 715l-89 -567v-148h-40l-5 100q-51 -59 -87 -84.5t-78 -25.5q-62 0 -96.5 47t-34.5 132q0 133 71.5 220t179.5 87q47 0 94 -17l38 246zM382 417q-46 19 -89 19q-86 0 -144 -72.5t-58 -191.5q0 -66 24.5 -104t65.5 -38q31 0 67 27.5t92 92.5zM579 719q10 -27 10 -50
q0 -73 -81 -138l-23 5q54 62 54 115q0 22 -10 57z" />
    <glyph glyph-name="Dcroat" unicode="&#x110;" horiz-adv-x="650" 
d="M615 404q0 -183 -117 -300q-104 -104 -257 -104h-175l54 341h-83v41h90l49 308h155q138 0 211 -76.5t73 -209.5zM335 341h-167l-48 -299h124q126 0 215 87q106 106 106 275q0 114 -60.5 179t-179.5 65h-108l-43 -266h167z" />
    <glyph glyph-name="dcroat" unicode="&#x111;" horiz-adv-x="481" 
d="M474 715l-13 -84h82l-6 -40h-83l-69 -443v-148h-40l-5 100q-51 -59 -87 -84.5t-78 -25.5q-62 0 -96.5 47t-34.5 132q0 133 71.5 220t179.5 87q47 0 94 -17l20 132h-135v40h141l12 74zM382 417q-46 19 -89 19q-86 0 -144 -72.5t-58 -191.5q0 -66 24.5 -104t65.5 -38
q31 0 67 27.5t92 92.5z" />
    <glyph glyph-name="Emacron" unicode="&#x112;" horiz-adv-x="476" 
d="M497 690l-7 -43h-282l-42 -264h222v-43h-229l-48 -297h293l-7 -43h-339l110 690h329zM474 783h-255l7 43h255z" />
    <glyph glyph-name="emacron" unicode="&#x113;" horiz-adv-x="439" 
d="M216 31q65 0 145 60v-47q-75 -54 -148 -54q-81 0 -124.5 53t-43.5 144q0 129 65 211t150 82q67 0 103 -44t36 -125q0 -27 -7 -72h-297q-3 -24 -3 -50q0 -74 33 -116t91 -42zM258 440q-51 0 -94.5 -44.5t-61.5 -119.5h248q9 78 -14.5 121t-77.5 43zM410 583h-255l7 43h255
z" />
    <glyph glyph-name="Ebreve" unicode="&#x114;" horiz-adv-x="476" 
d="M497 690l-7 -43h-282l-42 -264h222v-43h-229l-48 -297h293l-7 -43h-339l110 690h329zM483 866q-14 -45 -50 -77t-92 -32t-82 32t-24 77l36 5q4 -32 24.5 -49.5t53.5 -17.5q68 0 100 67z" />
    <glyph glyph-name="ebreve" unicode="&#x115;" horiz-adv-x="439" 
d="M216 31q65 0 145 60v-47q-75 -54 -148 -54q-81 0 -124.5 53t-43.5 144q0 129 65 211t150 82q67 0 103 -44t36 -125q0 -27 -7 -72h-297q-3 -24 -3 -50q0 -74 33 -116t91 -42zM258 440q-51 0 -94.5 -44.5t-61.5 -119.5h248q9 78 -14.5 121t-77.5 43zM420 666
q-14 -45 -50 -77t-92 -32t-82 32t-24 77l36 5q4 -32 24.5 -49.5t53.5 -17.5q68 0 100 67z" />
    <glyph glyph-name="Edotaccent" unicode="&#x116;" horiz-adv-x="476" 
d="M497 690l-7 -43h-282l-42 -264h222v-43h-229l-48 -297h293l-7 -43h-339l110 690h329zM378 761h-71l13 81h71z" />
    <glyph glyph-name="edotaccent" unicode="&#x117;" horiz-adv-x="439" 
d="M216 31q65 0 145 60v-47q-75 -54 -148 -54q-81 0 -124.5 53t-43.5 144q0 129 65 211t150 82q67 0 103 -44t36 -125q0 -27 -7 -72h-297q-3 -24 -3 -50q0 -74 33 -116t91 -42zM258 440q-51 0 -94.5 -44.5t-61.5 -119.5h248q9 78 -14.5 121t-77.5 43zM315 561h-71l13 81h71z
" />
    <glyph glyph-name="Eogonek" unicode="&#x118;" horiz-adv-x="476" 
d="M497 690l-7 -43h-282l-42 -264h222v-43h-229l-48 -297h293l-7 -43h-21l-28 -34q-41 -50 -41 -75q0 -29 35 -29q20 0 36 5l-5 -32q-24 -8 -46 -8q-63 0 -63 51q0 25 12 45t44 55l19 22h-281l110 690h329z" />
    <glyph glyph-name="eogonek" unicode="&#x119;" horiz-adv-x="439" 
d="M216 31q65 0 145 60v-44l-67 -81q-41 -50 -41 -75q0 -29 35 -29q20 0 36 5l-5 -32q-24 -8 -46 -8q-63 0 -63 51q0 25 12 45t44 55l23 26q-39 -14 -76 -14q-81 0 -124.5 53t-43.5 144q0 129 65 211t150 82q67 0 103 -44t36 -125q0 -27 -7 -72h-297q-3 -23 -3 -50
q0 -74 33 -116t91 -42zM258 440q-52 0 -95 -44.5t-62 -119.5h249q9 78 -14.5 121t-77.5 43z" />
    <glyph glyph-name="Ecaron" unicode="&#x11a;" horiz-adv-x="476" 
d="M497 690l-7 -43h-282l-42 -264h222v-43h-229l-48 -297h293l-7 -43h-339l110 690h329zM237 901h26l86 -96l110 96h34l-132 -149h-42z" />
    <glyph glyph-name="ecaron" unicode="&#x11b;" horiz-adv-x="439" 
d="M216 31q65 0 145 60v-47q-75 -54 -148 -54q-81 0 -124.5 53t-43.5 144q0 129 65 211t150 82q67 0 103 -44t36 -125q0 -27 -7 -72h-297q-3 -24 -3 -50q0 -74 33 -116t91 -42zM258 440q-51 0 -94.5 -44.5t-61.5 -119.5h248q9 78 -14.5 121t-77.5 43zM174 701h26l86 -96
l110 96h34l-132 -149h-42z" />
    <glyph glyph-name="Gbreve" unicode="&#x11e;" horiz-adv-x="625" 
d="M572 350l-50 -303q-96 -59 -195 -59q-115 0 -186.5 81t-71.5 210q0 111 43.5 208t122 156t172.5 59q104 0 176 -60l-9 -53q-75 70 -166 70q-81 0 -148 -52.5t-104 -139.5t-37 -188q0 -113 59.5 -181t151.5 -68q84 0 149 40l39 238h-175v42h229zM563 876q-14 -45 -50 -77
t-92 -32t-82 32t-24 77l36 5q4 -32 24.5 -49.5t53.5 -17.5q68 0 100 67z" />
    <glyph glyph-name="gbreve" unicode="&#x11f;" horiz-adv-x="479" 
d="M431 441l-69 -435q-14 -91 -64 -137.5t-130 -46.5q-69 0 -150 34l8 43q78 -35 147 -35q123 0 145 146l14 92q-45 -52 -80 -76.5t-75 -24.5q-62 0 -97 46t-35 128q0 130 71 216t180 86q63 0 135 -36zM382 415q-48 21 -91 21q-85 0 -142 -70.5t-57 -187.5
q0 -64 24.5 -100.5t65.5 -36.5q31 0 66.5 28t92.5 92zM453 666q-14 -45 -50 -77t-92 -32t-82 32t-24 77l36 5q4 -32 24.5 -49.5t53.5 -17.5q68 0 100 67z" />
    <glyph glyph-name="Gdotaccent" unicode="&#x120;" horiz-adv-x="625" 
d="M572 350l-50 -303q-96 -59 -195 -59q-115 0 -186.5 81t-71.5 210q0 111 43.5 208t122 156t172.5 59q104 0 176 -60l-9 -53q-75 70 -166 70q-81 0 -148 -52.5t-104 -139.5t-37 -188q0 -113 59.5 -181t151.5 -68q84 0 149 40l39 238h-175v42h229zM458 771h-71l13 81h71z
" />
    <glyph glyph-name="gdotaccent" unicode="&#x121;" horiz-adv-x="479" 
d="M431 441l-69 -435q-14 -91 -64 -137.5t-130 -46.5q-69 0 -150 34l8 43q78 -35 147 -35q123 0 145 146l14 92q-45 -52 -80 -76.5t-75 -24.5q-62 0 -97 46t-35 128q0 130 71 216t180 86q63 0 135 -36zM382 415q-48 21 -91 21q-85 0 -142 -70.5t-57 -187.5
q0 -64 24.5 -100.5t65.5 -36.5q31 0 66.5 28t92.5 92zM348 561h-71l13 81h71z" />
    <glyph glyph-name="Gcommaaccent" unicode="&#x122;" horiz-adv-x="625" 
d="M572 350l-50 -303q-96 -59 -195 -59q-115 0 -186.5 81t-71.5 210q0 111 43.5 208t122 156t172.5 59q104 0 176 -60l-9 -53q-75 70 -166 70q-81 0 -148 -52.5t-104 -139.5t-37 -188q0 -113 59.5 -181t151.5 -68q84 0 149 40l39 238h-175v42h229zM242 -87l44 21
q37 -29 37 -67q0 -59 -92 -124l-32 4q78 65 78 108q0 27 -35 58z" />
    <glyph glyph-name="gcommaaccent" unicode="&#x123;" horiz-adv-x="479" 
d="M431 441l-69 -435q-14 -91 -64 -137.5t-130 -46.5q-69 0 -150 34l8 43q78 -35 147 -35q123 0 145 146l14 92q-45 -52 -80 -76.5t-75 -24.5q-62 0 -97 46t-35 128q0 130 71 216t180 86q63 0 135 -36zM382 415q-48 21 -91 21q-85 0 -142 -70.5t-57 -187.5
q0 -64 24.5 -100.5t65.5 -36.5q31 0 66.5 28t92.5 92zM355 578l-44 -21q-37 29 -37 67q0 59 92 124l32 -4q-78 -64 -78 -108q0 -27 35 -58z" />
    <glyph glyph-name="Hbar" unicode="&#x126;" horiz-adv-x="678" 
d="M710 539h-87l-86 -539h-47l54 340h-377l-54 -340h-47l86 539h-84v41h90l18 110h47l-18 -110h377l18 110h47l-18 -110h88zM174 382h377l25 157h-377z" />
    <glyph glyph-name="hbar" unicode="&#x127;" horiz-adv-x="482" 
d="M429 376q0 -16 -4 -44l-53 -332h-46l53 334q4 28 4 40q0 30 -17 47t-49 17q-35 0 -75.5 -31.5t-105.5 -104.5l-47 -302h-46l94 591h-78v40h84l12 74l47 10l-14 -84h140l-6 -40h-140l-36 -227q53 58 94.5 87t80.5 29q52 0 80 -26.5t28 -77.5z" />
    <glyph glyph-name="Imacron" unicode="&#x12a;" horiz-adv-x="254" 
d="M223 690l-110 -690h-47l110 690h47zM342 783h-255l7 43h255z" />
    <glyph glyph-name="imacron" unicode="&#x12b;" horiz-adv-x="220" 
d="M171 470l-76 -470h-46l76 470h46zM292 583h-255l7 43h255z" />
    <glyph glyph-name="Ibreve" unicode="&#x12c;" horiz-adv-x="254" 
d="M223 690l-110 -690h-47l110 690h47zM351 866q-14 -45 -50 -77t-92 -32t-82 32t-24 77l36 5q4 -32 24.5 -49.5t53.5 -17.5q68 0 100 67z" />
    <glyph glyph-name="ibreve" unicode="&#x12d;" horiz-adv-x="220" 
d="M171 470l-76 -470h-46l76 470h46zM302 666q-14 -45 -50 -77t-92 -32t-82 32t-24 77l36 5q4 -32 24.5 -49.5t53.5 -17.5q68 0 100 67z" />
    <glyph glyph-name="Iogonek" unicode="&#x12e;" horiz-adv-x="254" 
d="M223 690l-110 -690h-5l-28 -34q-41 -50 -41 -75q0 -29 35 -29q20 0 36 5l-5 -32q-24 -8 -46 -8q-63 0 -63 51q0 25 12 45t44 55l19 22h-5l110 690h47z" />
    <glyph glyph-name="iogonek" unicode="&#x12f;" horiz-adv-x="220" 
d="M171 470l-76 -470h-5l-28 -34q-41 -50 -41 -75q0 -29 35 -29q20 0 36 5l-5 -32q-24 -8 -46 -8q-63 0 -63 51q0 25 12 45t44 55l19 22h-4l76 470h46zM213 638q0 -16 -12 -28t-28 -12q-15 0 -27 12t-12 28t12 28t27 12q17 0 28.5 -12t11.5 -28z" />
    <glyph glyph-name="Idotaccent" unicode="&#x130;" horiz-adv-x="254" 
d="M223 690l-110 -690h-47l110 690h47zM246 761h-71l13 81h71z" />
    <glyph glyph-name="dotlessi" unicode="&#x131;" horiz-adv-x="220" 
d="M171 470l-76 -470h-46l76 470h46z" />
    <glyph glyph-name="Kcommaaccent" unicode="&#x136;" horiz-adv-x="565" 
d="M598 690l-381 -324l293 -361l-51 -12l-297 368l-57 -361h-47l110 690h47l-51 -318l369 318h65zM205 -87l44 21q37 -29 37 -67q0 -59 -92 -124l-32 4q78 65 78 108q0 27 -35 58z" />
    <glyph glyph-name="kcommaaccent" unicode="&#x137;" horiz-adv-x="422" 
d="M89 0h-46l112 705l47 10l-71 -451l231 206h65l-247 -214l190 -251l-50 -12l-191 260zM130 -87l44 21q37 -29 37 -67q0 -59 -92 -124l-32 4q78 65 78 108q0 27 -35 58z" />
    <glyph glyph-name="Lacute" unicode="&#x139;" horiz-adv-x="438" 
d="M375 0h-317l110 690h47l-104 -647h264v-43zM387 882l-160 -140h-40l131 155z" />
    <glyph glyph-name="lacute" unicode="&#x13a;" horiz-adv-x="220" 
d="M208 715l-113 -715h-46l112 705zM370 897l-160 -140h-40l131 155z" />
    <glyph glyph-name="Lcommaaccent" unicode="&#x13b;" horiz-adv-x="438" 
d="M375 0h-317l110 690h47l-104 -647h264v-43zM154 -87l44 21q37 -29 37 -67q0 -59 -92 -124l-32 4q78 65 78 108q0 27 -35 58z" />
    <glyph glyph-name="lcommaaccent" unicode="&#x13c;" horiz-adv-x="220" 
d="M208 715l-113 -715h-46l112 705zM13 -87l44 21q37 -29 37 -67q0 -59 -92 -124l-32 4q78 65 78 108q0 27 -35 58z" />
    <glyph glyph-name="Lcaron" unicode="&#x13d;" horiz-adv-x="438" 
d="M375 0h-317l110 690h47l-104 -647h264v-43zM344 694q10 -27 10 -50q0 -73 -81 -138l-23 5q54 61 54 115q0 22 -10 57z" />
    <glyph glyph-name="lcaron" unicode="&#x13e;" horiz-adv-x="231" 
d="M208 715l-113 -715h-46l112 705zM312 719q10 -27 10 -50q0 -73 -81 -138l-23 5q54 62 54 115q0 22 -10 57z" />
    <glyph glyph-name="Ldot" unicode="&#x13f;" horiz-adv-x="438" 
d="M371 307h-67l13 77h67zM375 0h-317l110 690h47l-104 -647h264v-43z" />
    <glyph glyph-name="ldot" unicode="&#x140;" horiz-adv-x="255" 
d="M277 317h-55l12 77h55zM208 715l-113 -715h-46l112 705z" />
    <glyph glyph-name="Lslash" unicode="&#x141;" horiz-adv-x="446" 
d="M383 0h-317l46 290l-91 -47v45l99 50l56 352h47l-53 -326l176 90l-8 -49l-175 -89l-44 -274h264v-42z" />
    <glyph glyph-name="lslash" unicode="&#x142;" horiz-adv-x="257" 
d="M227 715l-52 -326l96 49l-7 -48l-96 -48l-54 -342h-46l50 316l-90 -46v44l98 50l54 341z" />
    <glyph glyph-name="Nacute" unicode="&#x143;" horiz-adv-x="662" 
d="M639 690l-110 -690h-28l-302 608l-96 -608h-45l110 690h42l291 -591l93 591h45zM593 892l-160 -140h-40l131 155z" />
    <glyph glyph-name="nacute" unicode="&#x144;" horiz-adv-x="484" 
d="M431 376q0 -16 -4 -44l-53 -332h-46l53 334q4 28 4 40q0 30 -17 47t-49 17q-35 0 -75.5 -31.5t-105.5 -104.5l-47 -302h-46l51 322v148h40l5 -114q56 62 98.5 93t83.5 31q52 0 80 -26.5t28 -77.5zM466 692l-160 -140h-40l131 155z" />
    <glyph glyph-name="Ncommaaccent" unicode="&#x145;" horiz-adv-x="662" 
d="M639 690l-110 -690h-28l-302 608l-96 -608h-45l110 690h42l291 -591l93 591h45zM240 -87l44 21q37 -29 37 -67q0 -59 -92 -124l-32 4q78 65 78 108q0 27 -35 58z" />
    <glyph glyph-name="ncommaaccent" unicode="&#x146;" horiz-adv-x="484" 
d="M431 376q0 -16 -4 -44l-53 -332h-46l53 334q4 28 4 40q0 30 -17 47t-49 17q-35 0 -75.5 -31.5t-105.5 -104.5l-47 -302h-46l51 322v148h40l5 -114q56 62 98.5 93t83.5 31q52 0 80 -26.5t28 -77.5zM145 -87l44 21q37 -29 37 -67q0 -59 -92 -124l-32 4q78 65 78 108
q0 27 -35 58z" />
    <glyph glyph-name="Ncaron" unicode="&#x147;" horiz-adv-x="662" 
d="M639 690l-110 -690h-28l-302 608l-96 -608h-45l110 690h42l291 -591l93 591h45zM313 901h26l86 -96l110 96h34l-132 -149h-42z" />
    <glyph glyph-name="ncaron" unicode="&#x148;" horiz-adv-x="484" 
d="M431 376q0 -16 -4 -44l-53 -332h-46l53 334q4 28 4 40q0 30 -17 47t-49 17q-35 0 -75.5 -31.5t-105.5 -104.5l-47 -302h-46l51 322v148h40l5 -114q56 62 98.5 93t83.5 31q52 0 80 -26.5t28 -77.5zM186 701h26l86 -96l110 96h34l-132 -149h-42z" />
    <glyph glyph-name="Omacron" unicode="&#x14c;" horiz-adv-x="698" 
d="M326 -13q-117 0 -186.5 86.5t-69.5 217.5q0 96 34 179.5t94 143.5q89 89 209 89q117 0 186.5 -86.5t69.5 -217.5q0 -96 -34 -179.5t-94 -143.5q-89 -89 -209 -89zM328 30q97 0 174 77q111 111 111 292q0 116 -56.5 188.5t-151.5 72.5q-97 0 -174 -77q-111 -111 -111 -292
q0 -116 56.5 -188.5t151.5 -72.5zM573 793h-255l7 43h255z" />
    <glyph glyph-name="omacron" unicode="&#x14d;" horiz-adv-x="468" 
d="M423 281q0 -118 -63.5 -204.5t-157.5 -86.5q-74 0 -115.5 54t-41.5 145q0 118 63.5 204.5t157.5 86.5q74 0 115.5 -54.5t41.5 -144.5zM376 279q0 78 -30.5 119.5t-81.5 41.5q-71 0 -121.5 -74.5t-50.5 -174.5q0 -78 31 -119.5t82 -41.5q71 0 121 74.5t50 174.5zM416 583
h-255l7 43h255z" />
    <glyph glyph-name="Obreve" unicode="&#x14e;" horiz-adv-x="698" 
d="M326 -13q-117 0 -186.5 86.5t-69.5 217.5q0 96 34 179.5t94 143.5q89 89 209 89q117 0 186.5 -86.5t69.5 -217.5q0 -96 -34 -179.5t-94 -143.5q-89 -89 -209 -89zM328 30q97 0 174 77q111 111 111 292q0 116 -56.5 188.5t-151.5 72.5q-97 0 -174 -77q-111 -111 -111 -292
q0 -116 56.5 -188.5t151.5 -72.5zM583 876q-14 -45 -50 -77t-92 -32t-82 32t-24 77l36 5q4 -32 24.5 -49.5t53.5 -17.5q68 0 100 67z" />
    <glyph glyph-name="obreve" unicode="&#x14f;" horiz-adv-x="468" 
d="M423 281q0 -118 -63.5 -204.5t-157.5 -86.5q-74 0 -115.5 54t-41.5 145q0 118 63.5 204.5t157.5 86.5q74 0 115.5 -54.5t41.5 -144.5zM376 279q0 78 -30.5 119.5t-81.5 41.5q-71 0 -121.5 -74.5t-50.5 -174.5q0 -78 31 -119.5t82 -41.5q71 0 121 74.5t50 174.5zM426 666
q-14 -45 -50 -77t-92 -32t-82 32t-24 77l36 5q4 -32 24.5 -49.5t53.5 -17.5q68 0 100 67z" />
    <glyph glyph-name="Ohungarumlaut" unicode="&#x150;" horiz-adv-x="698" 
d="M326 -13q-117 0 -186.5 86.5t-69.5 217.5q0 96 34 179.5t94 143.5q89 89 209 89q117 0 186.5 -86.5t69.5 -217.5q0 -96 -34 -179.5t-94 -143.5q-89 -89 -209 -89zM328 30q97 0 174 77q111 111 111 292q0 116 -56.5 188.5t-151.5 72.5q-97 0 -174 -77q-111 -111 -111 -292
q0 -116 56.5 -188.5t151.5 -72.5zM692 906l-160 -140h-35l130 157zM531 906l-161 -140h-35l131 157z" />
    <glyph glyph-name="ohungarumlaut" unicode="&#x151;" horiz-adv-x="468" 
d="M423 281q0 -118 -63.5 -204.5t-157.5 -86.5q-74 0 -115.5 54t-41.5 145q0 118 63.5 204.5t157.5 86.5q74 0 115.5 -54.5t41.5 -144.5zM376 279q0 78 -30.5 119.5t-81.5 41.5q-71 0 -121.5 -74.5t-50.5 -174.5q0 -78 31 -119.5t82 -41.5q71 0 121 74.5t50 174.5zM535 696
l-160 -140h-35l130 157zM374 696l-161 -140h-35l131 157z" />
    <glyph glyph-name="OE" unicode="&#x152;" horiz-adv-x="869" 
d="M120 286q0 -114 60.5 -179.5t179.5 -65.5h98l97 608h-114q-125 0 -215 -88q-106 -106 -106 -275zM444 690h446l-7 -42h-282l-42 -266h222v-42h-229l-48 -298h293l-7 -42h-436q-138 0 -211 76.5t-73 209.5q0 183 117 300q104 104 257 104z" />
    <glyph glyph-name="oe" unicode="&#x153;" horiz-adv-x="764" 
d="M724 311q0 -27 -7 -72h-297q-3 -22 -3 -46q0 -76 34 -119t92 -43q63 0 143 60v-47q-75 -54 -148 -54q-61 0 -101 33t-55 92q-29 -58 -74.5 -91.5t-101.5 -33.5q-75 0 -118 53t-43 146q0 117 62 204t155 87q58 0 96.5 -31.5t52.5 -90.5q30 57 76 89.5t98 32.5
q67 0 103 -44t36 -125zM376 280q0 81 -34 120.5t-82 39.5q-71 0 -119.5 -76.5t-48.5 -172.5q0 -81 34 -121t83 -40q71 0 119 76.5t48 173.5zM583 440q-51 0 -94.5 -45t-61.5 -119h248q9 78 -14.5 121t-77.5 43z" />
    <glyph glyph-name="Racute" unicode="&#x154;" horiz-adv-x="534" 
d="M495 523q0 -81 -52 -136t-138 -69l177 -314l-48 -11l-181 318h-99l-49 -311h-47l110 690h128q94 0 146.5 -43.5t52.5 -123.5zM447 521q0 127 -156 127h-83l-47 -295h91q88 0 141.5 47.5t53.5 120.5zM499 892l-160 -140h-40l131 155z" />
    <glyph glyph-name="racute" unicode="&#x155;" horiz-adv-x="307" 
d="M317 430q-54 -5 -92.5 -39t-88.5 -106l-45 -285h-46l51 322v148h40l5 -125q41 64 83 98t93 34v-47zM374 692l-160 -140h-40l131 155z" />
    <glyph glyph-name="Rcommaaccent" unicode="&#x156;" horiz-adv-x="534" 
d="M495 523q0 -81 -52 -136t-138 -69l177 -314l-48 -11l-181 318h-99l-49 -311h-47l110 690h128q94 0 146.5 -43.5t52.5 -123.5zM447 521q0 127 -156 127h-83l-47 -295h91q88 0 141.5 47.5t53.5 120.5zM188 -87l44 21q37 -29 37 -67q0 -59 -92 -124l-32 4q78 65 78 108
q0 27 -35 58z" />
    <glyph glyph-name="rcommaaccent" unicode="&#x157;" horiz-adv-x="307" 
d="M317 430q-54 -5 -92.5 -39t-88.5 -106l-45 -285h-46l51 322v148h40l5 -125q41 64 83 98t93 34v-47zM18 -87l44 21q37 -29 37 -67q0 -59 -92 -124l-32 4q78 65 78 108q0 27 -35 58z" />
    <glyph glyph-name="Rcaron" unicode="&#x158;" horiz-adv-x="534" 
d="M495 523q0 -81 -52 -136t-138 -69l177 -314l-48 -11l-181 318h-99l-49 -311h-47l110 690h128q94 0 146.5 -43.5t52.5 -123.5zM447 521q0 127 -156 127h-83l-47 -295h91q88 0 141.5 47.5t53.5 120.5zM220 901h26l86 -96l110 96h34l-132 -149h-42z" />
    <glyph glyph-name="rcaron" unicode="&#x159;" horiz-adv-x="307" 
d="M317 430q-54 -5 -92.5 -39t-88.5 -106l-45 -285h-46l51 322v148h40l5 -125q41 64 83 98t93 34v-47zM95 701h26l86 -96l110 96h34l-132 -149h-42z" />
    <glyph glyph-name="Sacute" unicode="&#x15a;" horiz-adv-x="479" 
d="M459 660l-8 -51q-72 49 -148 49q-67 0 -107 -40t-40 -97q0 -41 27 -73t92 -70q84 -49 116 -90.5t32 -102.5q0 -85 -62 -139.5t-155 -54.5q-100 0 -180 53l8 50q82 -62 176 -62q70 0 117.5 41.5t47.5 105.5q0 48 -24.5 80.5t-92.5 72.5q-85 50 -117 89t-32 96
q0 77 55 129.5t143 52.5q80 0 152 -39zM500 902l-160 -140h-40l131 155z" />
    <glyph glyph-name="sacute" unicode="&#x15b;" horiz-adv-x="375" 
d="M337 447l-9 -47q-60 41 -116 41q-41 0 -68.5 -23.5t-27.5 -58.5q0 -27 17.5 -45.5t64.5 -44.5q70 -38 94 -66t24 -74q0 -66 -43 -102.5t-110 -36.5q-85 0 -152 47l10 46q66 -54 146 -54q43 0 73.5 26t30.5 67q0 32 -18.5 52.5t-72.5 49.5q-60 32 -84.5 59t-24.5 68
q0 58 41.5 93.5t101.5 35.5q65 0 123 -33zM408 692l-160 -140h-40l131 155z" />
    <glyph glyph-name="Scedilla" unicode="&#x15e;" horiz-adv-x="479" 
d="M459 660l-8 -51q-72 49 -148 49q-67 0 -107 -40t-40 -97q0 -41 27 -73t92 -70q84 -49 116 -90.5t32 -102.5q0 -85 -62 -139.5t-155 -54.5q-100 0 -180 53l8 50q82 -62 176 -62q70 0 117.5 41.5t47.5 105.5q0 48 -24.5 80.5t-92.5 72.5q-85 50 -117 89t-32 96
q0 77 55 129.5t143 52.5q80 0 152 -39zM234 -77l-140 -119h-36l111 135z" />
    <glyph glyph-name="scedilla" unicode="&#x15f;" horiz-adv-x="375" 
d="M337 447l-9 -47q-60 41 -116 41q-41 0 -68.5 -23.5t-27.5 -58.5q0 -27 17.5 -45.5t64.5 -44.5q70 -38 94 -66t24 -74q0 -66 -43 -102.5t-110 -36.5q-85 0 -152 47l10 46q66 -54 146 -54q43 0 73.5 26t30.5 67q0 32 -18.5 52.5t-72.5 49.5q-60 32 -84.5 59t-24.5 68
q0 58 41.5 93.5t101.5 35.5q65 0 123 -33zM174 -77l-140 -119h-36l111 135z" />
    <glyph glyph-name="Scaron" unicode="&#x160;" horiz-adv-x="479" 
d="M459 660l-8 -51q-72 49 -148 49q-67 0 -107 -40t-40 -97q0 -41 27 -73t92 -70q84 -49 116 -90.5t32 -102.5q0 -85 -62 -139.5t-155 -54.5q-100 0 -180 53l8 50q82 -62 176 -62q70 0 117.5 41.5t47.5 105.5q0 48 -24.5 80.5t-92.5 72.5q-85 50 -117 89t-32 96
q0 77 55 129.5t143 52.5q80 0 152 -39zM221 911h26l86 -96l110 96h34l-132 -149h-42z" />
    <glyph glyph-name="scaron" unicode="&#x161;" horiz-adv-x="375" 
d="M337 447l-9 -47q-60 41 -116 41q-41 0 -68.5 -23.5t-27.5 -58.5q0 -27 17.5 -45.5t64.5 -44.5q70 -38 94 -66t24 -74q0 -66 -43 -102.5t-110 -36.5q-85 0 -152 47l10 46q66 -54 146 -54q43 0 73.5 26t30.5 67q0 32 -18.5 52.5t-72.5 49.5q-60 32 -84.5 59t-24.5 68
q0 58 41.5 93.5t101.5 35.5q65 0 123 -33zM128 701h26l86 -96l110 96h34l-132 -149h-42z" />
    <glyph glyph-name="Tcommaaccent" unicode="&#x162;" horiz-adv-x="524" 
d="M567 647h-214l-103 -647h-47l103 647h-211l7 43h465v-43zM169 -87l44 21q37 -29 37 -67q0 -59 -92 -124l-32 4q78 65 78 108q0 27 -35 58z" />
    <glyph glyph-name="Tcommaaccent" unicode="&#x21a;" horiz-adv-x="524" 
d="M567 647h-214l-103 -647h-47l103 647h-211l7 43h465v-43zM169 -87l44 21q37 -29 37 -67q0 -59 -92 -124l-32 4q78 65 78 108q0 27 -35 58z" />
    <glyph glyph-name="tcommaaccent" unicode="&#x163;" horiz-adv-x="311" 
d="M298 431h-120l-46 -290q-6 -42 -6 -54q0 -55 60 -55q22 0 50 6v-39q-28 -7 -58 -7q-98 0 -98 89q0 28 5 58l47 292h-74l7 39h73l26 167l47 10l-27 -177h114v-39zM87 -87l44 21q37 -29 37 -67q0 -59 -92 -124l-32 4q78 65 78 108q0 27 -35 58z" />
    <glyph glyph-name="tcommaaccent" unicode="&#x21b;" horiz-adv-x="311" 
d="M298 431h-120l-46 -290q-6 -42 -6 -54q0 -55 60 -55q22 0 50 6v-39q-28 -7 -58 -7q-98 0 -98 89q0 28 5 58l47 292h-74l7 39h73l26 167l47 10l-27 -177h114v-39zM87 -87l44 21q37 -29 37 -67q0 -59 -92 -124l-32 4q78 65 78 108q0 27 -35 58z" />
    <glyph glyph-name="Tcaron" unicode="&#x164;" horiz-adv-x="524" 
d="M567 647h-214l-103 -647h-47l103 647h-211l7 43h465v-43zM242 901h26l86 -96l110 96h34l-132 -149h-42z" />
    <glyph glyph-name="tcaron" unicode="&#x165;" horiz-adv-x="311" 
d="M298 431h-120l-46 -290q-6 -42 -6 -54q0 -55 60 -55q22 0 50 6v-39q-28 -7 -58 -7q-98 0 -98 89q0 28 5 58l47 292h-74l7 39h73l26 167l47 10l-27 -177h114v-39zM338 725q10 -27 10 -50q0 -73 -81 -138l-23 5q54 62 54 115q0 22 -10 57z" />
    <glyph glyph-name="Umacron" unicode="&#x16a;" horiz-adv-x="675" 
d="M661 690l-70 -444q-19 -119 -89.5 -187.5t-183.5 -68.5q-104 0 -166 59t-62 165q0 38 6 76l63 400h47l-65 -413q-5 -33 -5 -61q0 -86 48.5 -135.5t136.5 -49.5q93 0 149.5 57.5t73.5 163.5l70 438h47zM550 783h-255l7 43h255z" />
    <glyph glyph-name="umacron" unicode="&#x16b;" horiz-adv-x="484" 
d="M53 94q0 16 4 44l53 332h46l-53 -334q-4 -28 -4 -40q0 -30 17 -47t49 -17q35 0 75.5 31.5t105.5 104.5l47 302h46l-51 -322v-148h-40l-5 114q-56 -62 -98.5 -93t-83.5 -31q-52 0 -80 26.5t-28 77.5zM414 578h-255l7 43h255z" />
    <glyph glyph-name="Ubreve" unicode="&#x16c;" horiz-adv-x="675" 
d="M661 690l-70 -444q-19 -119 -89.5 -187.5t-183.5 -68.5q-104 0 -166 59t-62 165q0 38 6 76l63 400h47l-65 -413q-5 -33 -5 -61q0 -86 48.5 -135.5t136.5 -49.5q93 0 149.5 57.5t73.5 163.5l70 438h47zM560 861q-14 -45 -50 -77t-92 -32t-82 32t-24 77l36 5
q4 -32 24.5 -49.5t53.5 -17.5q68 0 100 67z" />
    <glyph glyph-name="ubreve" unicode="&#x16d;" horiz-adv-x="484" 
d="M53 94q0 16 4 44l53 332h46l-53 -334q-4 -28 -4 -40q0 -30 17 -47t49 -17q35 0 75.5 31.5t105.5 104.5l47 302h46l-51 -322v-148h-40l-5 114q-56 -62 -98.5 -93t-83.5 -31q-52 0 -80 26.5t-28 77.5zM424 656q-14 -45 -50 -77t-92 -32t-82 32t-24 77l36 5
q4 -32 24.5 -49.5t53.5 -17.5q68 0 100 67z" />
    <glyph glyph-name="Uring" unicode="&#x16e;" horiz-adv-x="675" 
d="M661 690l-70 -444q-19 -119 -89.5 -187.5t-183.5 -68.5q-104 0 -166 59t-62 165q0 38 6 76l63 400h47l-65 -413q-5 -33 -5 -61q0 -86 48.5 -135.5t136.5 -49.5q93 0 149.5 57.5t73.5 163.5l70 438h47zM432 770q26 0 42.5 17.5t16.5 44.5t-17 45t-42 18q-26 0 -43 -18
t-17 -45t17 -44.5t43 -17.5zM432 740q-40 0 -67 26t-27 66q0 39 27 66.5t67 27.5q39 0 66 -27.5t27 -66.5q0 -40 -26.5 -66t-66.5 -26z" />
    <glyph glyph-name="uring" unicode="&#x16f;" horiz-adv-x="482" 
d="M53 94q0 16 4 44l53 332h46l-53 -334q-4 -28 -4 -40q0 -30 17 -47t49 -17q35 0 75.5 31.5t105.5 104.5l47 302h46l-51 -322v-148h-40l-5 114q-56 -62 -98.5 -93t-83.5 -31q-52 0 -80 26.5t-28 77.5zM297 565q26 0 42.5 17.5t16.5 44.5t-17 45t-42 18q-26 0 -43 -18
t-17 -45t17 -44.5t43 -17.5zM297 535q-40 0 -67 26t-27 66q0 39 27 66.5t67 27.5q39 0 66 -27.5t27 -66.5q0 -40 -26.5 -66t-66.5 -26z" />
    <glyph glyph-name="Uhungarumlaut" unicode="&#x170;" horiz-adv-x="675" 
d="M661 690l-70 -444q-19 -119 -89.5 -187.5t-183.5 -68.5q-104 0 -166 59t-62 165q0 38 6 76l63 400h47l-65 -413q-5 -33 -5 -61q0 -86 48.5 -135.5t136.5 -49.5q93 0 149.5 57.5t73.5 163.5l70 438h47zM669 896l-160 -140h-35l130 157zM508 896l-161 -140h-35l131 157z
" />
    <glyph glyph-name="uhungarumlaut" unicode="&#x171;" horiz-adv-x="484" 
d="M53 94q0 16 4 44l53 332h46l-53 -334q-4 -28 -4 -40q0 -30 17 -47t49 -17q35 0 75.5 31.5t105.5 104.5l47 302h46l-51 -322v-148h-40l-5 114q-56 -62 -98.5 -93t-83.5 -31q-52 0 -80 26.5t-28 77.5zM533 691l-160 -140h-35l130 157zM372 691l-161 -140h-35l131 157z" />
    <glyph glyph-name="Uogonek" unicode="&#x172;" horiz-adv-x="675" 
d="M661 690l-70 -444q-18 -115 -85 -183t-173 -73l-20 -24q-41 -50 -41 -75q0 -29 35 -29q20 0 36 5l-5 -32q-24 -8 -46 -8q-63 0 -63 51q0 25 12 45t44 55l11 13q-95 6 -150.5 64t-55.5 159q0 38 6 76l63 400h47l-65 -413q-5 -33 -5 -61q0 -86 48.5 -135.5t136.5 -49.5
q93 0 149.5 57.5t73.5 163.5l70 438h47z" />
    <glyph glyph-name="uogonek" unicode="&#x173;" horiz-adv-x="482" 
d="M53 94q0 16 4 44l53 332h46l-53 -334q-4 -28 -4 -40q0 -30 17 -47t49 -17q35 0 75.5 31.5t105.5 104.5l47 302h46l-51 -322v-148h-14l-28 -34q-41 -50 -41 -75q0 -29 35 -29q20 0 36 5l-5 -32q-24 -8 -46 -8q-63 0 -63 51q0 25 12 45t44 55l29 33l-4 103
q-56 -62 -98.5 -93t-83.5 -31q-52 0 -80 26.5t-28 77.5z" />
    <glyph glyph-name="Wcircumflex" unicode="&#x174;" horiz-adv-x="985" 
d="M1009 690l-315 -690h-35l-107 618l-301 -618h-35l-95 686l48 11l79 -616l292 609h46l102 -609l271 609h50zM701 752h-26l-86 96l-110 -96h-34l132 149h42z" />
    <glyph glyph-name="wcircumflex" unicode="&#x175;" horiz-adv-x="681" 
d="M686 470l-232 -475h-33l-55 399l-178 -399h-34l-82 473l43 10l66 -412l180 407h36l53 -407l189 404h47zM519 552h-26l-86 96l-110 -96h-34l132 149h42z" />
    <glyph glyph-name="Ycircumflex" unicode="&#x176;" horiz-adv-x="576" 
d="M617 690l-294 -393l-47 -297h-47l47 296l-169 391l47 10l151 -361l258 354h54zM497 752h-26l-86 96l-110 -96h-34l132 149h42z" />
    <glyph glyph-name="ycircumflex" unicode="&#x177;" horiz-adv-x="445" 
d="M450 470l-277 -548q-28 -55 -56.5 -77.5t-70.5 -22.5q-12 0 -26 2v41q14 -2 28 -2q29 0 48.5 16.5t40.5 56.5l33 63l-102 466l45 10l86 -419l201 414h50zM404 547h-26l-86 96l-110 -96h-34l132 149h42z" />
    <glyph glyph-name="Ydieresis" unicode="&#x178;" horiz-adv-x="576" 
d="M617 690l-294 -393l-47 -297h-47l47 296l-169 391l47 10l151 -361l258 354h54zM490 766h-70l13 79h70zM323 766h-69l13 79h69z" />
    <glyph glyph-name="Zacute" unicode="&#x179;" horiz-adv-x="568" 
d="M577 690l-5 -32l-482 -617h387v-41h-454l5 32l483 617h-360v41h426zM542 892l-160 -140h-40l131 155z" />
    <glyph glyph-name="zacute" unicode="&#x17a;" horiz-adv-x="421" 
d="M405 470l-5 -35l-334 -396h273v-39h-334l5 36l334 395h-252v39h313zM431 692l-160 -140h-40l131 155z" />
    <glyph glyph-name="Zdotaccent" unicode="&#x17b;" horiz-adv-x="568" 
d="M577 690l-5 -32l-482 -617h387v-41h-454l5 32l483 617h-360v41h426zM403 761h-71l13 81h71z" />
    <glyph glyph-name="zdotaccent" unicode="&#x17c;" horiz-adv-x="421" 
d="M405 470l-5 -35l-334 -396h273v-39h-334l5 36l334 395h-252v39h313zM292 561h-71l13 81h71z" />
    <glyph glyph-name="Zcaron" unicode="&#x17d;" horiz-adv-x="568" 
d="M577 690l-5 -32l-482 -617h387v-41h-454l5 32l483 617h-360v41h426zM262 901h26l86 -96l110 96h34l-132 -149h-42z" />
    <glyph glyph-name="zcaron" unicode="&#x17e;" horiz-adv-x="421" 
d="M405 470l-5 -35l-334 -396h273v-39h-334l5 36l334 395h-252v39h313zM151 701h26l86 -96l110 96h34l-132 -149h-42z" />
    <glyph glyph-name="uni018F" unicode="&#x18f;" horiz-adv-x="653" 
d="M72 254q0 60 9 114h486q3 25 3 53q0 114 -55 176.5t-149 62.5q-105 0 -211 -68v50q105 61 215 61q115 0 181.5 -73.5t66.5 -206.5q0 -180 -97.5 -308t-236.5 -128q-105 0 -158.5 68t-53.5 199zM287 30q97 0 174 84t100 213h-437q-4 -29 -4 -71q0 -226 167 -226z" />
    <glyph glyph-name="florin" unicode="&#x192;" 
d="M74 453h70l19 115q18 116 128 116q24 0 38 -3v-42q-15 4 -40 4q-70 0 -82 -79l-18 -111h97v-39h-104l-66 -414h-45l67 414h-71z" />
    <glyph glyph-name="Aringacute" unicode="&#x1fa;" horiz-adv-x="644" 
d="M525 -7l-53 243h-294l-125 -236h-51l354 656q-48 25 -48 81q0 39 27 66.5t67 27.5q39 0 66 -27.5t27 -66.5q0 -33 -19 -57t-50 -32l144 -644zM387 627l-187 -350h264zM402 675q26 0 42.5 17.5t16.5 44.5t-17 45t-42 18q-26 0 -43 -18t-17 -45t17 -44.5t43 -17.5zM587 999
l-160 -140h-40l131 155z" />
    <glyph glyph-name="aringacute" unicode="&#x1fb;" horiz-adv-x="478" 
d="M337 113q-60 -64 -100.5 -93.5t-77.5 -29.5q-54 0 -84.5 41.5t-30.5 114.5q0 138 76.5 234.5t185.5 96.5q63 0 125 -31l-50 -300v-146h-40zM338 164l44 256q-38 16 -83 16q-84 0 -146 -81t-62 -206q0 -58 19.5 -88.5t52.5 -30.5q29 0 66.5 29t108.5 105zM313 580
q26 0 42.5 17.5t16.5 44.5t-17 45t-42 18q-26 0 -43 -18t-17 -45t17 -44.5t43 -17.5zM313 550q-40 0 -67 26t-27 66q0 39 27 66.5t67 27.5q39 0 66 -27.5t27 -66.5q0 -40 -26.5 -66t-66.5 -26zM506 921l-160 -140h-40l131 155z" />
    <glyph glyph-name="AEacute" unicode="&#x1fc;" horiz-adv-x="855" 
d="M31 0h-51l519 690h359l-7 -42h-282l-42 -266h222v-42h-229l-48 -298h293l-7 -42h-339l37 236h-248zM239 277h224l60 377zM770 892l-160 -140h-40l131 155z" />
    <glyph glyph-name="aeacute" unicode="&#x1fd;" horiz-adv-x="715" 
d="M675 311q0 -27 -7 -72h-297q-3 -22 -3 -46q0 -77 34 -119.5t92 -42.5q63 0 143 60v-47q-75 -54 -148 -54q-107 0 -148 94q-105 -93 -190 -93q-56 0 -92 31t-36 88q0 161 311 184l4 31q8 60 -12.5 88t-73.5 28q-58 0 -144 -42v43q80 38 147 38q115 0 128 -89q64 89 153 89
q67 0 103 -44t36 -125zM626 276q9 78 -14.5 121t-77.5 43q-51 0 -95 -45t-62 -119h249zM328 121q-7 39 -7 70q0 35 6 67q-257 -19 -257 -145q0 -40 23.5 -61t62.5 -21q69 0 172 90zM575 692l-160 -140h-40l131 155z" />
    <glyph glyph-name="Oslashacute" unicode="&#x1fe;" horiz-adv-x="698" 
d="M326 -13q-110 0 -179 77l-63 -71l-43 9l82 94q-53 81 -53 195q0 96 34 179.5t94 143.5q89 89 209 89q111 0 180 -79l64 73l43 -9l-84 -95q53 -83 53 -194q0 -96 -34 -179.5t-94 -143.5q-89 -89 -209 -89zM120 291q0 -92 37 -158l399 455q-58 72 -151 72q-97 0 -174 -77
q-111 -111 -111 -292zM328 30q97 0 174 77q111 111 111 292q0 90 -36 157l-399 -456q57 -70 150 -70zM616 902l-160 -140h-40l131 155z" />
    <glyph glyph-name="oslashacute" unicode="&#x1ff;" horiz-adv-x="468" 
d="M454 469l-57 -68q26 -50 26 -120q0 -118 -63.5 -204.5t-157.5 -86.5q-69 0 -110 47l-37 -44l-39 9l55 66q-26 49 -26 121q0 118 63.5 204.5t157.5 86.5q67 0 110 -48l39 46zM91 191q0 -52 13 -85l243 291q-31 43 -83 43q-71 0 -122 -75t-51 -174zM377 279q0 47 -13 84
l-243 -290q31 -43 84 -43q71 0 121.5 74.5t50.5 174.5zM460 692l-160 -140h-40l131 155z" />
    <glyph glyph-name="Scommaaccent" unicode="&#x218;" horiz-adv-x="479" 
d="M459 660l-8 -51q-72 49 -148 49q-67 0 -107 -40t-40 -97q0 -41 27 -73t92 -70q84 -49 116 -90.5t32 -102.5q0 -85 -62 -139.5t-155 -54.5q-100 0 -180 53l8 50q82 -62 176 -62q70 0 117.5 41.5t47.5 105.5q0 48 -24.5 80.5t-92.5 72.5q-85 50 -117 89t-32 96
q0 77 55 129.5t143 52.5q80 0 152 -39zM146 -87l44 21q37 -29 37 -67q0 -59 -92 -124l-32 4q78 65 78 108q0 27 -35 58z" />
    <glyph glyph-name="scommaaccent" unicode="&#x219;" horiz-adv-x="375" 
d="M337 447l-9 -47q-60 41 -116 41q-41 0 -68.5 -23.5t-27.5 -58.5q0 -27 17.5 -45.5t64.5 -44.5q70 -38 94 -66t24 -74q0 -66 -43 -102.5t-110 -36.5q-85 0 -152 47l10 46q66 -54 146 -54q43 0 73.5 26t30.5 67q0 32 -18.5 52.5t-72.5 49.5q-60 32 -84.5 59t-24.5 68
q0 58 41.5 93.5t101.5 35.5q65 0 123 -33zM86 -87l44 21q37 -29 37 -67q0 -59 -92 -124l-32 4q78 65 78 108q0 27 -35 58z" />
    <glyph glyph-name="schwa" unicode="&#x259;" horiz-adv-x="439" 
d="M223 439q-65 0 -145 -60v47q75 54 148 54q81 0 124.5 -53t43.5 -144q0 -129 -65 -211t-150 -82q-67 0 -103 44t-36 125q0 27 7 72h296q4 32 4 50q0 74 -33 116t-91 42zM181 30q50 0 94 44.5t62 119.5h-248q-9 -78 14.5 -121t77.5 -43z" />
    <glyph glyph-name="circumflex" unicode="&#x2c6;" horiz-adv-x="457" 
d="M404 552h-26l-86 96l-110 -96h-34l132 149h42z" />
    <glyph glyph-name="caron" unicode="&#x2c7;" horiz-adv-x="457" 
d="M174 701h26l86 -96l110 96h34l-132 -149h-42z" />
    <glyph glyph-name="breve" unicode="&#x2d8;" horiz-adv-x="457" 
d="M425 666q-14 -45 -50 -77t-92 -32t-82 32t-24 77l36 5q4 -32 24.5 -49.5t53.5 -17.5q68 0 100 67z" />
    <glyph glyph-name="dotaccent" unicode="&#x2d9;" horiz-adv-x="457" 
d="M316 561h-71l13 81h71z" />
    <glyph glyph-name="ring" unicode="&#x2da;" horiz-adv-x="457" 
d="M292 580q26 0 42.5 17.5t16.5 44.5t-17 45t-42 18q-26 0 -43 -18t-17 -45t17 -44.5t43 -17.5zM292 550q-40 0 -67 26t-27 66q0 39 27 66.5t67 27.5q39 0 66 -27.5t27 -66.5q0 -40 -26.5 -66t-66.5 -26z" />
    <glyph glyph-name="ogonek" unicode="&#x2db;" horiz-adv-x="457" 
d="M256 23l21 -17l-33 -40q-41 -50 -41 -75q0 -29 35 -29q20 0 36 5l-5 -32q-24 -8 -46 -8q-63 0 -63 51q0 25 12 45t44 55z" />
    <glyph glyph-name="tilde" unicode="&#x2dc;" horiz-adv-x="457" 
d="M440 656q-17 -46 -40.5 -70.5t-49.5 -24.5q-28 0 -72 27q-42 27 -59 27q-26 0 -48 -55l-33 7q17 46 40.5 70.5t49.5 24.5q28 0 72 -27q42 -27 59 -27q26 0 48 55z" />
    <glyph glyph-name="hungarumlaut" unicode="&#x2dd;" horiz-adv-x="457" 
d="M464 696l-160 -140h-35l130 157zM303 696l-161 -140h-35l131 157z" />
    <glyph glyph-name="commaaccent" unicode="&#x326;" horiz-adv-x="454" 
d="M152 -87l44 21q37 -29 37 -67q0 -59 -92 -124l-32 4q78 65 78 108q0 27 -35 58z" />
    <glyph glyph-name="uni0384" unicode="&#x384;" horiz-adv-x="457" 
d="M341 703l-85 -151h-30l54 151h61z" />
    <glyph glyph-name="uni0385" unicode="&#x385;" horiz-adv-x="457" 
d="M420 566h-68l12 79h68zM211 566h-67l12 79h67zM360 703l-86 -151h-28l54 151h60z" />
    <glyph glyph-name="uni0386" unicode="&#x386;" horiz-adv-x="644" 
d="M525 -7l-53 243h-294l-125 -236h-51l375 694h39l154 -690zM387 627l-187 -350h264zM201 694l-79 -168h-30l45 168h64z" />
    <glyph glyph-name="uni0387" unicode="&#x387;" horiz-adv-x="212" 
d="M172 470l-13 -80h-60l13 80h60z" />
    <glyph glyph-name="uni0388" unicode="&#x388;" horiz-adv-x="476" 
d="M497 690l-7 -43h-282l-42 -264h222v-43h-229l-48 -297h293l-7 -43h-339l110 690h329zM94 690l-79 -168h-30l45 168h64z" />
    <glyph glyph-name="uni0389" unicode="&#x389;" horiz-adv-x="662" 
d="M639 690l-110 -690h-47l54 340h-377l-54 -340h-47l110 690h47l-49 -308h377l49 308h47zM94 690l-79 -168h-30l45 168h64z" />
    <glyph glyph-name="uni038A" unicode="&#x38a;" horiz-adv-x="254" 
d="M223 690l-110 -690h-47l110 690h47zM94 690l-79 -168h-30l45 168h64z" />
    <glyph glyph-name="uni038C" unicode="&#x38c;" horiz-adv-x="686" 
d="M311 -13q-117 0 -186.5 86.5t-69.5 217.5q0 96 34 179.5t94 143.5q89 89 209 89q117 0 186.5 -86.5t69.5 -217.5q0 -96 -34 -179.5t-94 -143.5q-89 -89 -209 -89zM313 30q97 0 174 77q111 111 111 292q0 116 -56.5 188.5t-151.5 72.5q-97 0 -174 -77q-111 -111 -111 -292
q0 -116 56.5 -188.5t151.5 -72.5zM101 703l-79 -168h-30l45 168h64z" />
    <glyph glyph-name="uni038E" unicode="&#x38e;" horiz-adv-x="576" 
d="M617 690l-294 -393l-47 -297h-47l47 296l-169 391l47 10l151 -361l258 354h54zM84 697l-79 -168h-30l45 168h64z" />
    <glyph glyph-name="uni038F" unicode="&#x38f;" horiz-adv-x="671" 
d="M420 703q123 0 192 -74.5t69 -193.5q0 -105 -49.5 -190.5t-148.5 -166.5l-45 -37l164 1l-6 -42h-225v40l76 63q91 76 137.5 155t46.5 173q0 103 -55 166t-157 63q-119 0 -203 -94.5t-84 -224.5q0 -132 97 -242l52 -59l-12 -40h-225l7 42l168 -1l-36 41q-101 113 -101 260
q0 151 99 256t239 105zM102 703l-79 -168h-30l45 168h64z" />
    <glyph glyph-name="uni0390" unicode="&#x390;" horiz-adv-x="234" 
d="M173 1q-25 -9 -50 -9q-67 0 -67 68q0 16 5 48l59 362h46l-59 -365q-4 -28 -4 -40q0 -32 28 -32q18 0 42 9v-41zM309 566h-68l12 79h68zM100 566h-67l12 79h67zM249 703l-86 -151h-28l54 151h60z" />
    <glyph glyph-name="uni0391" unicode="&#x391;" horiz-adv-x="644" 
d="M525 -7l-53 243h-294l-125 -236h-51l375 694h39l154 -690zM387 627l-187 -350h264z" />
    <glyph glyph-name="uni0392" unicode="&#x392;" horiz-adv-x="525" 
d="M486 536q0 -63 -38.5 -107t-99.5 -66q119 -46 119 -153q0 -96 -65.5 -153t-169.5 -57h-174l110 690h142q80 0 128 -40.5t48 -113.5zM437 534q0 54 -34.5 84t-98.5 30h-96l-42 -266h92q75 0 127 44t52 108zM418 209q0 61 -46 96.5t-123 35.5h-90l-48 -299h124q83 0 133 46
t50 121z" />
    <glyph glyph-name="uni0393" unicode="&#x393;" horiz-adv-x="430" 
d="M168 690h303v-43h-263l-103 -647h-47z" />
    <glyph glyph-name="uni0394" unicode="&#x394;" horiz-adv-x="663" 
d="M582 0h-575v32l370 662h51l164 -662zM396 644l-333 -604h478z" />
    <glyph glyph-name="uni0395" unicode="&#x395;" horiz-adv-x="476" 
d="M497 690l-7 -43h-282l-42 -264h222v-43h-229l-48 -297h293l-7 -43h-339l110 690h329z" />
    <glyph glyph-name="uni0396" unicode="&#x396;" horiz-adv-x="568" 
d="M577 690l-5 -32l-482 -617h387v-41h-454l5 32l483 617h-360v41h426z" />
    <glyph glyph-name="uni0397" unicode="&#x397;" horiz-adv-x="662" 
d="M639 690l-110 -690h-47l54 340h-377l-54 -340h-47l110 690h47l-49 -308h377l49 308h47z" />
    <glyph glyph-name="uni0398" unicode="&#x398;" horiz-adv-x="698" 
d="M531 322h-336l7 45h336zM326 -13q-117 0 -186.5 86.5t-69.5 217.5q0 96 34 179.5t94 143.5q89 89 209 89q117 0 186.5 -86.5t69.5 -217.5q0 -96 -34 -179.5t-94 -143.5q-89 -89 -209 -89zM328 30q97 0 174 77q111 111 111 292q0 116 -56.5 188.5t-151.5 72.5
q-97 0 -174 -77q-111 -111 -111 -292q0 -116 56.5 -188.5t151.5 -72.5z" />
    <glyph glyph-name="uni0399" unicode="&#x399;" horiz-adv-x="254" 
d="M223 690l-110 -690h-47l110 690h47z" />
    <glyph glyph-name="uni039A" unicode="&#x39a;" horiz-adv-x="565" 
d="M598 690l-381 -324l293 -361l-51 -12l-297 368l-57 -361h-47l110 690h47l-51 -318l369 318h65z" />
    <glyph glyph-name="uni039B" unicode="&#x39b;" horiz-adv-x="642" 
d="M416 694l152 -690l-45 -11l-137 635l-333 -628h-51l374 694h40z" />
    <glyph glyph-name="uni039C" unicode="&#x39c;" horiz-adv-x="867" 
d="M803 690l-54 -690h-45l50 617l-345 -621h-27l-149 621l-145 -617h-44l166 690h54l142 -618l338 618h59z" />
    <glyph glyph-name="uni039D" unicode="&#x39d;" horiz-adv-x="662" 
d="M639 690l-110 -690h-28l-302 608l-96 -608h-45l110 690h42l291 -591l93 591h45z" />
    <glyph glyph-name="uni039E" unicode="&#x39e;" horiz-adv-x="517" 
d="M432 0h-421l7 43h421zM529 647h-411l7 43h411zM446 340h-338l7 43h331v-43z" />
    <glyph glyph-name="uni039F" unicode="&#x39f;" horiz-adv-x="698" 
d="M326 -13q-117 0 -186.5 86.5t-69.5 217.5q0 96 34 179.5t94 143.5q89 89 209 89q117 0 186.5 -86.5t69.5 -217.5q0 -96 -34 -179.5t-94 -143.5q-89 -89 -209 -89zM328 30q97 0 174 77q111 111 111 292q0 116 -56.5 188.5t-151.5 72.5q-97 0 -174 -77q-111 -111 -111 -292
q0 -116 56.5 -188.5t151.5 -72.5z" />
    <glyph glyph-name="uni03A0" unicode="&#x3a0;" horiz-adv-x="659" 
d="M636 690l-110 -690h-47l104 648h-375l-103 -648h-47l110 690h468z" />
    <glyph glyph-name="uni03A1" unicode="&#x3a1;" horiz-adv-x="493" 
d="M499 518q0 -98 -70.5 -158t-182.5 -60h-93l-48 -300h-47l110 690h136q93 0 144 -45.5t51 -126.5zM451 516q0 132 -153 132h-90l-49 -306h88q93 0 148.5 47.5t55.5 126.5z" />
    <glyph glyph-name="uni03A3" unicode="&#x3a3;" horiz-adv-x="549" 
d="M324 363l-197 295l5 32h441l-7 -41h-383l197 -289l-297 -319h394v-41h-464l5 32z" />
    <glyph glyph-name="uni03A4" unicode="&#x3a4;" horiz-adv-x="524" 
d="M567 647h-214l-103 -647h-47l103 647h-211l7 43h465v-43z" />
    <glyph glyph-name="uni03A5" unicode="&#x3a5;" horiz-adv-x="576" 
d="M617 690l-294 -393l-47 -297h-47l47 296l-169 391l47 10l151 -361l258 354h54z" />
    <glyph glyph-name="uni03A6" unicode="&#x3a6;" horiz-adv-x="830" 
d="M400 -13h-46l13 83q-141 6 -222 71.5t-81 180.5q0 129 108 214.5t282 86.5l14 80h46l-14 -81q139 -6 219.5 -71.5t80.5 -179.5q0 -129 -107.5 -214.5t-279.5 -86.5zM113 324q0 -98 67 -152.5t194 -59.5l74 469q-150 -1 -242.5 -74.5t-92.5 -182.5zM751 369
q0 97 -66.5 151.5t-192.5 59.5l-74 -468q150 1 241.5 74.5t91.5 182.5z" />
    <glyph glyph-name="uni03A7" unicode="&#x3a7;" horiz-adv-x="595" 
d="M605 690l-264 -332l175 -353l-48 -10l-158 330l-254 -325h-55l289 362l-159 322l48 10l142 -298l229 294h55z" />
    <glyph glyph-name="uni03A8" unicode="&#x3a8;" horiz-adv-x="752" 
d="M424 690h47l-67 -416q125 1 189 51.5t77 152.5l34 212h47l-33 -217q-34 -240 -320 -240l-36 -233h-47l36 233q-245 9 -245 195q0 25 5 60l33 202h47l-33 -207q-4 -28 -4 -54q0 -75 48 -113t155 -42z" />
    <glyph glyph-name="uni03A9" unicode="&#x3a9;" horiz-adv-x="714" 
d="M420 703q123 0 192 -74.5t69 -193.5q0 -105 -49.5 -190.5t-148.5 -166.5l-45 -37l164 1l-6 -42h-225v40l76 63q91 76 137.5 155t46.5 173q0 103 -55 166t-157 63q-119 0 -203 -94.5t-84 -224.5q0 -132 97 -242l52 -59l-12 -40h-225l7 42l168 -1l-36 41q-101 113 -101 260
q0 151 99 256t239 105z" />
    <glyph glyph-name="uni03AA" unicode="&#x3aa;" horiz-adv-x="254" 
d="M223 690l-110 -690h-47l110 690h47zM330 766h-70l13 79h70zM163 766h-69l13 79h69z" />
    <glyph glyph-name="uni03AB" unicode="&#x3ab;" horiz-adv-x="576" 
d="M617 690l-294 -393l-47 -297h-47l47 296l-169 391l47 10l151 -361l258 354h54zM490 766h-70l13 79h70zM323 766h-69l13 79h69z" />
    <glyph glyph-name="uni03AC" unicode="&#x3ac;" horiz-adv-x="560" 
d="M243 480q61 0 92 -44.5t52 -157.5l120 192h50l-158 -246l26 -138q6 -31 16.5 -42t34.5 -11q17 0 40 7l-12 -41q-23 -7 -43 -7q-34 0 -53 19.5t-27 64.5l-16 99q-69 -109 -111 -147t-91 -38q-59 0 -90 45t-31 125q0 129 56.5 224.5t144.5 95.5zM167 30q34 0 71.5 36.5
t106.5 148.5l9 14l-5 28q-19 104 -43 143.5t-66 39.5q-62 0 -106.5 -84t-44.5 -194q0 -132 78 -132zM425 703l-85 -151h-30l54 151h61z" />
    <glyph glyph-name="uni03AD" unicode="&#x3ad;" horiz-adv-x="431" 
d="M314 260v-41h-59q-80 0 -126 -29t-46 -75q0 -40 30.5 -61.5t84.5 -21.5q76 0 166 50v-45q-89 -46 -168 -46q-76 0 -118 32t-42 89q0 49 35 83t97 47q-85 28 -85 108q0 55 46 92t125 37q86 0 164 -45l-17 -40q-75 44 -151 44q-55 0 -87.5 -24.5t-32.5 -61.5q0 -42 34 -67
t101 -25h49zM372 703l-85 -151h-30l54 151h61z" />
    <glyph glyph-name="uni03AE" unicode="&#x3ae;" horiz-adv-x="484" 
d="M431 376q0 -16 -4 -44l-81 -503l-47 -10l82 515q4 28 4 40q0 30 -17 47t-49 17q-35 0 -75.5 -31.5t-105.5 -104.5l-47 -302h-46l51 322v148h40l5 -114q56 62 98.5 93t83.5 31q52 0 80 -26.5t28 -77.5zM381 703l-85 -151h-30l54 151h61z" />
    <glyph glyph-name="uni03AF" unicode="&#x3af;" horiz-adv-x="234" 
d="M173 1q-25 -9 -50 -9q-67 0 -67 68q0 16 5 48l59 362h46l-59 -365q-4 -28 -4 -40q0 -32 28 -32q18 0 42 9v-41zM255 703l-85 -151h-30l54 151h61z" />
    <glyph glyph-name="uni03B0" unicode="&#x3b0;" horiz-adv-x="479" 
d="M398 178q-14 -91 -62 -139.5t-125 -48.5q-70 0 -109.5 41.5t-39.5 113.5q0 27 6 65l41 260h46l-42 -267q-4 -28 -4 -55q0 -55 27 -86t78 -31q115 0 139 154l45 285h46zM427 561h-68l12 79h68zM218 561h-67l12 79h67zM367 698l-86 -151h-28l54 151h60z" />
    <glyph glyph-name="uni03B1" unicode="&#x3b1;" horiz-adv-x="560" 
d="M243 480q61 0 92 -44.5t52 -157.5l120 192h50l-158 -246l26 -138q6 -31 16.5 -42t34.5 -11q17 0 40 7l-12 -41q-23 -7 -43 -7q-34 0 -53 19.5t-27 64.5l-16 99q-69 -109 -111 -147t-91 -38q-59 0 -90 45t-31 125q0 129 56.5 224.5t144.5 95.5zM167 30q34 0 71.5 36.5
t106.5 148.5l9 14l-5 28q-19 104 -43 143.5t-66 39.5q-62 0 -106.5 -84t-44.5 -194q0 -132 78 -132z" />
    <glyph glyph-name="uni03B2" unicode="&#x3b2;" horiz-adv-x="518" 
d="M266 -9q-92 0 -170 58l-35 -221l-47 -9l112 707q13 84 65 135t131 51q76 0 122 -46t46 -117q0 -74 -50.5 -123t-132.5 -72q78 -32 116 -76t38 -111q0 -74 -54.5 -125t-140.5 -51zM250 341v32q194 44 194 175q0 54 -34.5 88.5t-88.5 34.5q-60 0 -100 -41.5t-51 -110.5
l-67 -425q80 -63 165 -63q64 0 105 40t41 96q0 60 -38 100.5t-126 73.5z" />
    <glyph glyph-name="uni03B3" unicode="&#x3b3;" horiz-adv-x="446" 
d="M451 470l-48 -90q-128 -239 -164.5 -320.5t-48.5 -153.5l-12 -77l-47 -10l14 91q11 88 1 171.5t-54 276.5l-24 107l45 10l22 -104q50 -235 52 -347q25 67 55.5 132.5t122.5 243.5l36 70h50z" />
    <glyph glyph-name="uni03B4" unicode="&#x3b4;" horiz-adv-x="474" 
d="M175 598q0 50 39.5 82t110.5 32q70 0 146 -32l-7 -46q-74 37 -141 37q-48 0 -75 -20t-27 -52q0 -29 17 -53t69 -73q67 -62 95 -117t28 -128q0 -100 -59.5 -169t-150.5 -69q-81 0 -128.5 55.5t-47.5 144.5q0 182 205 276q-40 38 -57 67t-17 65zM383 228q0 61 -23 107.5
t-79 101.5q-190 -85 -190 -247q0 -69 36 -114.5t94 -45.5q70 0 116 58t46 140z" />
    <glyph glyph-name="uni03B5" unicode="&#x3b5;" horiz-adv-x="431" 
d="M314 260v-41h-59q-80 0 -126 -29t-46 -75q0 -40 30.5 -61.5t84.5 -21.5q76 0 166 50v-45q-89 -46 -168 -46q-76 0 -118 32t-42 89q0 49 35 83t97 47q-85 28 -85 108q0 55 46 92t125 37q86 0 164 -45l-17 -40q-75 44 -151 44q-55 0 -87.5 -24.5t-32.5 -61.5q0 -42 34 -67
t101 -25h49z" />
    <glyph glyph-name="uni03B6" unicode="&#x3b6;" horiz-adv-x="415" 
d="M42 163q0 48 31 98t128 161l217 248h-258l6 39h305v-35l-238 -277q-85 -100 -114.5 -147.5t-29.5 -85.5q0 -41 30.5 -65t104.5 -52q81 -30 107 -51t26 -54q0 -24 -16 -49.5t-63 -73.5l-46 8q50 53 64.5 73.5t14.5 37.5t-19.5 30t-85.5 38q-91 34 -127.5 67t-36.5 90z" />
    <glyph glyph-name="uni03B7" unicode="&#x3b7;" horiz-adv-x="484" 
d="M431 376q0 -16 -4 -44l-81 -503l-47 -10l82 515q4 28 4 40q0 30 -17 47t-49 17q-35 0 -75.5 -31.5t-105.5 -104.5l-47 -302h-46l51 322v148h40l5 -114q56 62 98.5 93t83.5 31q52 0 80 -26.5t28 -77.5z" />
    <glyph glyph-name="uni03B8" unicode="&#x3b8;" horiz-adv-x="550" 
d="M241 -13q-86 0 -131 73.5t-45 192.5q0 124 35 229t94 164q66 66 143 66q86 0 131 -73.5t45 -192.5q0 -124 -35 -229t-94 -164q-66 -66 -143 -66zM242 27q58 0 108 52q83 84 109 255h-344q-4 -35 -4 -79q0 -106 33.5 -167t97.5 -61zM228 620q-80 -80 -107 -244h343
q3 33 3 68q0 106 -33.5 167t-97.5 61q-58 0 -108 -52z" />
    <glyph glyph-name="uni03B9" unicode="&#x3b9;" horiz-adv-x="234" 
d="M173 1q-25 -9 -50 -9q-67 0 -67 68q0 16 5 48l59 362h46l-59 -365q-4 -28 -4 -40q0 -32 28 -32q18 0 42 9v-41z" />
    <glyph glyph-name="uni03BA" unicode="&#x3ba;" horiz-adv-x="422" 
d="M118 470h46l-36 -216l170 155q66 60 127 63v-45q-50 -4 -101 -50l-147 -130l193 -242l-49 -12l-194 250l-38 -243h-46z" />
    <glyph glyph-name="uni03BB" unicode="&#x3bb;" horiz-adv-x="447" 
d="M339 -5l-78 414l-213 -409h-50l225 423l25 47l-26 131q-8 40 -23 54.5t-43 14.5q-12 0 -29 -3l7 42q14 3 29 3q45 0 68.5 -22t33.5 -77l119 -608z" />
    <glyph glyph-name="uni03BC" unicode="&#x3bc;" horiz-adv-x="512" 
d="M60 -171l-46 -10l104 651h46l-53 -334q-4 -24 -4 -37q0 -32 17 -49.5t49 -17.5q35 0 75.5 31.5t105.5 104.5l47 302h46l-57 -365q-4 -28 -4 -40q0 -32 28 -32q18 0 42 9v-41q-25 -9 -50 -9q-67 0 -67 68q0 20 3 45q-52 -58 -93 -86.5t-86 -28.5q-55 0 -75 43
q-7 -71 -17 -135z" />
    <glyph glyph-name="uni03BD" unicode="&#x3bd;" horiz-adv-x="444" 
d="M372 470h47q-12 -262 -227 -475h-39l-83 470l45 10l71 -428q176 183 186 423z" />
    <glyph glyph-name="uni03BE" unicode="&#x3be;" horiz-adv-x="423" 
d="M359 -59q0 -25 -16 -48.5t-63 -73.5l-46 8q48 51 63.5 72.5t15.5 37.5q0 17 -19 29.5t-92 41.5q-88 35 -124.5 73t-36.5 93q0 72 55.5 123t161.5 71q-115 31 -115 136q0 53 35 97t99 69h-142l6 39h329v-37h-25q-114 0 -184.5 -47.5t-70.5 -120.5q0 -56 44.5 -87.5
t127.5 -31.5h26v-42h-17q-135 0 -209 -47t-74 -119q0 -44 31 -73t101 -56q88 -34 113.5 -54t25.5 -53z" />
    <glyph glyph-name="uni03BF" unicode="&#x3bf;" horiz-adv-x="468" 
d="M423 281q0 -118 -63.5 -204.5t-157.5 -86.5q-74 0 -115.5 54t-41.5 145q0 118 63.5 204.5t157.5 86.5q74 0 115.5 -54.5t41.5 -144.5zM376 279q0 78 -30.5 119.5t-81.5 41.5q-71 0 -121.5 -74.5t-50.5 -174.5q0 -78 31 -119.5t82 -41.5q71 0 121 74.5t50 174.5z" />
    <glyph glyph-name="uni03C0" unicode="&#x3c0;" horiz-adv-x="565" 
d="M473 3q-26 -11 -52 -11q-70 0 -70 70q0 15 6 53l50 316h-203l-68 -431h-46l68 431h-97v39h495l-6 -39h-97l-51 -327q-4 -26 -4 -39q0 -32 31 -32q17 0 44 10v-40z" />
    <glyph glyph-name="uni03C1" unicode="&#x3c1;" horiz-adv-x="475" 
d="M5 -181l71 446q18 101 68.5 158t130.5 57q74 0 114.5 -50.5t40.5 -137.5q0 -128 -72 -213t-176 -85q-50 0 -100 23l-30 -188zM120 257l-31 -198q48 -25 93 -25q83 0 142 72.5t59 183.5q0 71 -28.5 110.5t-81.5 39.5q-58 0 -98.5 -49t-54.5 -134z" />
    <glyph glyph-name="uni03C2" unicode="&#x3c2;" horiz-adv-x="423" 
d="M210 1q-89 37 -126 83t-37 123q0 115 67 194t155 79q78 0 138 -52l-16 -45q-58 56 -124 56q-69 0 -121 -68.5t-52 -160.5q0 -61 29 -98t107 -71q69 -31 89 -48t20 -47q0 -29 -15.5 -52.5t-63.5 -74.5l-46 8q48 51 63.5 73t15.5 39q0 16 -15 27t-68 35z" />
    <glyph glyph-name="uni03C3" unicode="&#x3c3;" horiz-adv-x="470" 
d="M452 431h-79q40 -82 40 -171q0 -108 -64 -189t-152 -81q-72 0 -114 52t-42 141q0 127 81 207t212 80h118v-39zM366 264q0 87 -41 166q-107 -1 -172 -70.5t-65 -176.5q0 -73 30 -113t79 -40q69 0 119 69.5t50 164.5z" />
    <glyph glyph-name="uni03C4" unicode="&#x3c4;" horiz-adv-x="424" 
d="M413 431h-165l-45 -283q-6 -40 -6 -61q0 -55 55 -55q34 0 71 16v-41q-37 -15 -75 -15q-47 0 -72.5 24t-25.5 68q0 24 8 72l44 275h-151l6 39h356v-39z" />
    <glyph glyph-name="uni03C5" unicode="&#x3c5;" horiz-adv-x="479" 
d="M398 178q-14 -91 -62 -139.5t-125 -48.5q-70 0 -109.5 41.5t-39.5 113.5q0 27 6 65l41 260h46l-42 -267q-4 -28 -4 -55q0 -55 27 -86t78 -31q115 0 139 154l45 285h46z" />
    <glyph glyph-name="uni03C6" unicode="&#x3c6;" horiz-adv-x="617" 
d="M214 -181l27 175q-92 7 -142.5 62t-50.5 144q0 150 139 278l50 -10q-142 -129 -142 -267q0 -155 152 -169l47 294q12 71 49.5 112.5t97.5 41.5q61 0 96 -43.5t35 -116.5q0 -141 -83.5 -233.5t-201.5 -94.5l-26 -163zM339 322l-46 -291q98 5 166 86.5t68 201.5
q0 59 -24 90.5t-63 31.5q-41 0 -66.5 -32t-34.5 -87z" />
    <glyph glyph-name="uni03C7" unicode="&#x3c7;" horiz-adv-x="461" 
d="M463 470l-215 -304l134 -335l-44 -12l-120 311l-213 -306h-54l246 347l-118 295l44 12l105 -270l180 262h55z" />
    <glyph glyph-name="uni03C8" unicode="&#x3c8;" horiz-adv-x="656" 
d="M285 -171l-47 -10l28 177q-96 4 -148 50t-54 126q0 33 8 79l35 219h46l-35 -220q-6 -42 -6 -75q1 -132 160 -139l107 669l47 10l-108 -679q96 1 150 46t69 140l39 248h46l-40 -255q-34 -220 -268 -220h-3z" />
    <glyph glyph-name="uni03C9" unicode="&#x3c9;" horiz-adv-x="734" 
d="M497 -10q-66 0 -99.5 44t-39.5 112q-54 -156 -177 -156q-65 0 -101.5 47t-36.5 124q0 154 150 319l38 -21q-141 -157 -141 -297q0 -59 25.5 -95t67.5 -36q62 0 106.5 62.5t63.5 188.5l15 98h46l-14 -93q-6 -43 -6 -89q0 -77 28.5 -122t76.5 -45q60 0 97.5 59.5
t37.5 148.5q0 110 -53 223l42 19q58 -124 58 -240q0 -107 -51.5 -179t-132.5 -72z" />
    <glyph glyph-name="uni03CA" unicode="&#x3ca;" horiz-adv-x="234" 
d="M173 1q-25 -9 -50 -9q-67 0 -67 68q0 16 5 48l59 362h46l-59 -365q-4 -28 -4 -40q0 -32 28 -32q18 0 42 9v-41zM285 566h-70l13 79h70zM118 566h-69l13 79h69z" />
    <glyph glyph-name="uni03CB" unicode="&#x3cb;" horiz-adv-x="479" 
d="M398 178q-14 -91 -62 -139.5t-125 -48.5q-70 0 -109.5 41.5t-39.5 113.5q0 27 6 65l41 260h46l-42 -267q-4 -28 -4 -55q0 -55 27 -86t78 -31q115 0 139 154l45 285h46zM403 561h-70l13 79h70zM236 561h-69l13 79h69z" />
    <glyph glyph-name="uni03CC" unicode="&#x3cc;" horiz-adv-x="468" 
d="M423 281q0 -118 -63.5 -204.5t-157.5 -86.5q-74 0 -115.5 54t-41.5 145q0 118 63.5 204.5t157.5 86.5q74 0 115.5 -54.5t41.5 -144.5zM376 279q0 78 -30.5 119.5t-81.5 41.5q-71 0 -121.5 -74.5t-50.5 -174.5q0 -78 31 -119.5t82 -41.5q71 0 121 74.5t50 174.5zM374 703
l-85 -151h-30l54 151h61z" />
    <glyph glyph-name="uni03CD" unicode="&#x3cd;" horiz-adv-x="479" 
d="M398 178q-14 -91 -62 -139.5t-125 -48.5q-70 0 -109.5 41.5t-39.5 113.5q0 27 6 65l41 260h46l-42 -267q-4 -28 -4 -55q0 -55 27 -86t78 -31q115 0 139 154l45 285h46zM372 698l-85 -151h-30l54 151h61z" />
    <glyph glyph-name="uni03CE" unicode="&#x3ce;" horiz-adv-x="734" 
d="M497 -10q-66 0 -99.5 44t-39.5 112q-54 -156 -177 -156q-65 0 -101.5 47t-36.5 124q0 154 150 319l38 -21q-141 -157 -141 -297q0 -59 25.5 -95t67.5 -36q62 0 106.5 62.5t63.5 188.5l15 98h46l-14 -93q-6 -43 -6 -89q0 -77 28.5 -122t76.5 -45q60 0 97.5 59.5
t37.5 148.5q0 110 -53 223l42 19q58 -124 58 -240q0 -107 -51.5 -179t-132.5 -72zM510 698l-85 -151h-30l54 151h61z" />
    <glyph glyph-name="uni0400" unicode="&#x400;" horiz-adv-x="476" 
d="M497 690l-7 -43h-282l-42 -264h222v-43h-229l-48 -297h293l-7 -43h-339l110 690h329zM356 752h-33l-116 140l70 15z" />
    <glyph glyph-name="uni0401" unicode="&#x401;" horiz-adv-x="476" 
d="M497 690l-7 -43h-282l-42 -264h222v-43h-229l-48 -297h293l-7 -43h-339l110 690h329zM462 766h-70l13 79h70zM295 766h-69l13 79h69z" />
    <glyph glyph-name="uni0402" unicode="&#x402;" horiz-adv-x="711" 
d="M426 -4v43q86 15 136.5 66t50.5 132q0 68 -39.5 108.5t-113.5 40.5q-73 0 -157 -34l-56 -352h-47l103 647h-208l7 43h462v-43h-214l-40 -249q80 30 152 30q94 0 147 -51.5t53 -137.5q0 -99 -64.5 -164t-171.5 -79z" />
    <glyph glyph-name="uni0403" unicode="&#x403;" horiz-adv-x="430" 
d="M168 690h303v-43h-263l-103 -647h-47zM497 892l-160 -140h-40l131 155z" />
    <glyph glyph-name="uni0404" unicode="&#x404;" horiz-adv-x="570" 
d="M575 645l-8 -54q-73 67 -162 67q-103 0 -180.5 -82.5t-99.5 -207.5h345l-7 -43h-343q-2 -15 -2 -44q0 -115 56 -182t145 -67q92 0 178 58v-51q-88 -51 -182 -51q-107 0 -176.5 78t-69.5 215q0 170 97.5 295.5t237.5 125.5q98 0 171 -57z" />
    <glyph glyph-name="uni0405" unicode="&#x405;" horiz-adv-x="479" 
d="M459 660l-8 -51q-72 49 -148 49q-67 0 -107 -40t-40 -97q0 -41 27 -73t92 -70q84 -49 116 -90.5t32 -102.5q0 -85 -62 -139.5t-155 -54.5q-100 0 -180 53l8 50q82 -62 176 -62q70 0 117.5 41.5t47.5 105.5q0 48 -24.5 80.5t-92.5 72.5q-85 50 -117 89t-32 96
q0 77 55 129.5t143 52.5q80 0 152 -39z" />
    <glyph glyph-name="uni0406" unicode="&#x406;" horiz-adv-x="254" 
d="M223 690l-110 -690h-47l110 690h47z" />
    <glyph glyph-name="uni0407" unicode="&#x407;" horiz-adv-x="254" 
d="M223 690l-110 -690h-47l110 690h47zM330 766h-70l13 79h70zM163 766h-69l13 79h69z" />
    <glyph glyph-name="uni0408" unicode="&#x408;" horiz-adv-x="342" 
d="M324 690l-81 -514q-28 -182 -185 -182q-19 0 -62 8v45q37 -11 65 -11q57 0 90.5 34t45.5 108l80 512h47z" />
    <glyph glyph-name="uni0409" unicode="&#x409;" horiz-adv-x="933" 
d="M644 690l-48 -300h89q93 0 144 -45.5t51 -126.5q0 -98 -70.5 -158t-182.5 -60h-140l103 648h-246l-70 -240q-49 -168 -90 -253.5t-83.5 -117.5t-111.5 -41v46q52 6 87.5 36.5t72 110t80.5 230.5l79 271h336zM832 216q0 132 -153 132h-90l-49 -306h88q93 0 148.5 47.5
t55.5 126.5z" />
    <glyph glyph-name="uni040A" unicode="&#x40a;" horiz-adv-x="918" 
d="M629 690l-48 -301h89q93 0 144 -45t51 -126q0 -98 -70.5 -158t-182.5 -60h-140l55 348h-367l-55 -348h-47l110 690h47l-48 -301h367l48 301h47zM817 216q0 132 -153 132h-90l-49 -306h88q93 0 148.5 47.5t55.5 126.5z" />
    <glyph glyph-name="uni040B" unicode="&#x40b;" horiz-adv-x="719" 
d="M564 647h-214l-38 -236q80 16 135 16q199 0 199 -171q0 -32 -7 -78l-29 -178h-47l29 179q7 45 7 75q0 131 -155 131q-60 0 -139 -17l-58 -368h-47l103 647h-208l7 43h462v-43z" />
    <glyph glyph-name="uni040C" unicode="&#x40c;" horiz-adv-x="565" 
d="M598 690l-381 -324l293 -361l-51 -12l-297 368l-57 -361h-47l110 690h47l-51 -318l369 318h65zM548 892l-160 -140h-40l131 155z" />
    <glyph glyph-name="uni040D" unicode="&#x40d;" horiz-adv-x="662" 
d="M58 0l110 690h46l-96 -601l469 601h52l-110 -690h-46l99 618l-483 -618h-41zM427 752h-33l-116 140l70 15z" />
    <glyph glyph-name="uni040E" unicode="&#x40e;" horiz-adv-x="588" 
d="M62 38q67 4 108.5 31t84.5 96l36 58l-173 463l46 11l157 -429l255 422h54l-338 -547q-50 -81 -105 -115.5t-125 -36.5v47zM525 866q-14 -45 -50 -77t-92 -32t-82 32t-24 77l36 5q4 -32 24.5 -49.5t53.5 -17.5q68 0 100 67z" />
    <glyph glyph-name="uni040F" unicode="&#x40f;" horiz-adv-x="659" 
d="M58 0l110 690h47l-104 -648h375l103 648h47l-110 -690h-209l-28 -159h-45l28 159h-214z" />
    <glyph glyph-name="uni0410" unicode="&#x410;" horiz-adv-x="644" 
d="M525 -7l-53 243h-294l-125 -236h-51l375 694h39l154 -690zM387 627l-187 -350h264z" />
    <glyph glyph-name="uni0411" unicode="&#x411;" horiz-adv-x="506" 
d="M168 690h309v-43h-269l-41 -257h93q93 0 144 -45.5t51 -126.5q0 -98 -70.5 -158t-182.5 -60h-144zM407 216q0 132 -153 132h-94l-49 -306h92q93 0 148.5 47.5t55.5 126.5z" />
    <glyph glyph-name="uni0412" unicode="&#x412;" horiz-adv-x="525" 
d="M486 536q0 -63 -38.5 -107t-99.5 -66q119 -46 119 -153q0 -96 -65.5 -153t-169.5 -57h-174l110 690h142q80 0 128 -40.5t48 -113.5zM437 534q0 54 -34.5 84t-98.5 30h-96l-42 -266h92q75 0 127 44t52 108zM418 209q0 61 -46 96.5t-123 35.5h-90l-48 -299h124q83 0 133 46
t50 121z" />
    <glyph glyph-name="uni0413" unicode="&#x413;" horiz-adv-x="430" 
d="M168 690h303v-43h-263l-103 -647h-47z" />
    <glyph glyph-name="uni0414" unicode="&#x414;" horiz-adv-x="684" 
d="M-28 -159l34 214q109 89 181 205t120 292l38 138h312l-103 -648h53l-30 -197l-46 -7l26 162h-515l-25 -159h-45zM507 41l97 608h-224l-29 -106q-49 -180 -123.5 -298t-175.5 -204h455z" />
    <glyph glyph-name="uni0415" unicode="&#x415;" horiz-adv-x="476" 
d="M497 690l-7 -43h-282l-42 -264h222v-43h-229l-48 -297h293l-7 -43h-339l110 690h329z" />
    <glyph glyph-name="uni0416" unicode="&#x416;" horiz-adv-x="841" 
d="M123 686l48 12l249 -328l50 320h47l-52 -320l338 320h62l-354 -328l270 -357l-48 -12l-270 366l-56 -359h-47l58 359l-371 -359h-62l387 368z" />
    <glyph glyph-name="uni0417" unicode="&#x417;" horiz-adv-x="521" 
d="M493 541q0 -72 -47.5 -118t-128.5 -66q133 -43 133 -166q0 -83 -66.5 -143t-170.5 -59q-99 1 -199 61l15 45q98 -64 186 -64q81 0 134 46t53 113q0 68 -52.5 109.5t-136.5 41.5h-51v43h59q105 0 164 43t59 112q0 53 -36.5 86.5t-103.5 33.5q-83 0 -185 -60v49
q93 53 187 53q88 0 137.5 -45.5t49.5 -114.5z" />
    <glyph glyph-name="uni0418" unicode="&#x418;" horiz-adv-x="662" 
d="M58 0l110 690h46l-96 -601l469 601h52l-110 -690h-46l99 618l-483 -618h-41z" />
    <glyph glyph-name="uni0419" unicode="&#x419;" horiz-adv-x="662" 
d="M58 0l110 690h46l-96 -601l469 601h52l-110 -690h-46l99 618l-483 -618h-41zM554 866q-14 -45 -50 -77t-92 -32t-82 32t-24 77l36 5q4 -32 24.5 -49.5t53.5 -17.5q68 0 100 67z" />
    <glyph glyph-name="uni041A" unicode="&#x41a;" horiz-adv-x="565" 
d="M598 690l-381 -324l293 -361l-51 -12l-297 368l-57 -361h-47l110 690h47l-51 -318l369 318h65z" />
    <glyph glyph-name="uni041B" unicode="&#x41b;" horiz-adv-x="667" 
d="M644 690l-110 -690h-47l104 648h-247l-70 -240q-49 -168 -90 -253.5t-83.5 -117.5t-111.5 -41v46q52 6 87.5 36.5t72 110t80.5 230.5l79 271h336z" />
    <glyph glyph-name="uni041C" unicode="&#x41c;" horiz-adv-x="867" 
d="M803 690l-54 -690h-45l50 617l-345 -621h-27l-149 621l-145 -617h-44l166 690h54l142 -618l338 618h59z" />
    <glyph glyph-name="uni041D" unicode="&#x41d;" horiz-adv-x="662" 
d="M639 690l-110 -690h-47l54 340h-377l-54 -340h-47l110 690h47l-49 -308h377l49 308h47z" />
    <glyph glyph-name="uni041E" unicode="&#x41e;" horiz-adv-x="698" 
d="M326 -13q-117 0 -186.5 86.5t-69.5 217.5q0 96 34 179.5t94 143.5q89 89 209 89q117 0 186.5 -86.5t69.5 -217.5q0 -96 -34 -179.5t-94 -143.5q-89 -89 -209 -89zM328 30q97 0 174 77q111 111 111 292q0 116 -56.5 188.5t-151.5 72.5q-97 0 -174 -77q-111 -111 -111 -292
q0 -116 56.5 -188.5t151.5 -72.5z" />
    <glyph glyph-name="uni041F" unicode="&#x41f;" horiz-adv-x="659" 
d="M636 690l-110 -690h-47l104 648h-375l-103 -648h-47l110 690h468z" />
    <glyph glyph-name="uni0420" unicode="&#x420;" horiz-adv-x="493" 
d="M499 518q0 -98 -70.5 -158t-182.5 -60h-93l-48 -300h-47l110 690h136q93 0 144 -45.5t51 -126.5zM451 516q0 132 -153 132h-90l-49 -306h88q93 0 148.5 47.5t55.5 126.5z" />
    <glyph glyph-name="uni0421" unicode="&#x421;" horiz-adv-x="570" 
d="M575 645l-8 -54q-74 68 -162 68q-122 0 -204 -112t-82 -266q0 -115 55.5 -182.5t144.5 -67.5q91 0 178 59v-51q-88 -51 -182 -51q-107 0 -176.5 78t-69.5 215q0 170 97.5 295.5t237.5 125.5q98 0 171 -57z" />
    <glyph glyph-name="uni0422" unicode="&#x422;" horiz-adv-x="524" 
d="M567 647h-214l-103 -647h-47l103 647h-211l7 43h465v-43z" />
    <glyph glyph-name="uni0423" unicode="&#x423;" horiz-adv-x="588" 
d="M62 38q67 4 108.5 31t84.5 96l36 58l-173 463l46 11l157 -429l255 422h54l-338 -547q-50 -81 -105 -115.5t-125 -36.5v47z" />
    <glyph glyph-name="uni0424" unicode="&#x424;" horiz-adv-x="830" 
d="M400 -13h-46l13 83q-141 6 -222 71.5t-81 180.5q0 129 108 214.5t282 86.5l14 80h46l-14 -81q139 -6 219.5 -71.5t80.5 -179.5q0 -129 -107.5 -214.5t-279.5 -86.5zM113 324q0 -98 67 -152.5t194 -59.5l74 469q-150 -1 -242.5 -74.5t-92.5 -182.5zM751 369
q0 97 -66.5 151.5t-192.5 59.5l-74 -468q150 1 241.5 74.5t91.5 182.5z" />
    <glyph glyph-name="uni0425" unicode="&#x425;" horiz-adv-x="595" 
d="M605 690l-264 -332l175 -353l-48 -10l-158 330l-254 -325h-55l289 362l-159 322l48 10l142 -298l229 294h55z" />
    <glyph glyph-name="uni0426" unicode="&#x426;" horiz-adv-x="662" 
d="M58 0l110 690h47l-104 -648h374l103 648h47l-104 -648h54l-30 -197l-46 -7l26 162h-477z" />
    <glyph glyph-name="uni0427" unicode="&#x427;" horiz-adv-x="576" 
d="M443 0h-47l44 278q-82 -15 -134 -15q-199 0 -199 171q0 32 7 78l29 178h47l-29 -179q-7 -45 -7 -75q0 -131 155 -131q65 0 138 16l59 369h47z" />
    <glyph glyph-name="uni0428" unicode="&#x428;" horiz-adv-x="926" 
d="M112 42h297l103 648h47l-103 -648h297l103 648h47l-110 -690h-735l110 690h47z" />
    <glyph glyph-name="uni0429" unicode="&#x429;" horiz-adv-x="928" 
d="M112 42h296l103 648h47l-103 -648h296l103 648h47l-104 -648h54l-30 -197l-46 -7l26 162h-743l110 690h47z" />
    <glyph glyph-name="uni042A" unicode="&#x42a;" horiz-adv-x="639" 
d="M350 690l-48 -300h89q93 0 144 -45.5t51 -126.5q0 -98 -70.5 -158t-182.5 -60h-140l103 647h-208l7 43h255zM538 216q0 132 -153 132h-90l-49 -306h88q93 0 148.5 47.5t55.5 126.5z" />
    <glyph glyph-name="uni042B" unicode="&#x42b;" horiz-adv-x="720" 
d="M693 690l-110 -690h-47l110 690h47zM215 690l-48 -300h89q93 0 144 -45.5t51 -126.5q0 -98 -70.5 -158t-182.5 -60h-140l110 690h47zM403 216q0 132 -153 132h-90l-49 -306h88q93 0 148.5 47.5t55.5 126.5z" />
    <glyph glyph-name="uni042C" unicode="&#x42c;" horiz-adv-x="504" 
d="M215 690l-48 -300h89q93 0 144 -45.5t51 -126.5q0 -98 -70.5 -158t-182.5 -60h-140l110 690h47zM403 216q0 132 -153 132h-90l-49 -306h88q93 0 148.5 47.5t55.5 126.5z" />
    <glyph glyph-name="uni042D" unicode="&#x42d;" horiz-adv-x="570" 
d="M160 325v43h325q2 26 2 40q0 115 -56 182t-145 67q-85 0 -169 -55v50q84 49 173 49q107 0 176.5 -78t69.5 -215q0 -96 -34 -183t-93 -146q-92 -92 -208 -92q-104 0 -180 66l8 52q84 -74 171 -74q104 0 181 83.5t99 210.5h-320z" />
    <glyph glyph-name="uni042E" unicode="&#x42e;" horiz-adv-x="913" 
d="M550 -13q-106 0 -169 82t-62 220q0 25 1 37h-163l-52 -326h-47l110 690h47l-51 -322h162q25 152 124 251q84 84 195 84q106 0 169 -82t62 -220q-1 -99 -37 -185.5t-94 -144.5q-84 -84 -195 -84zM643 660q-87 0 -158 -71q-52 -52 -84 -130.5t-33 -170.5q-1 -118 49.5 -188
t134.5 -70q87 0 158 71q51 51 83 130t33 171q1 118 -49 188t-134 70z" />
    <glyph glyph-name="uni042F" unicode="&#x42f;" horiz-adv-x="540" 
d="M38 -7l-48 11l259 316q-60 16 -92 57.5t-32 102.5q0 93 69.5 151.5t186.5 58.5h136l-110 -690h-47l50 310h-80q-22 0 -33 1zM173 481q0 -61 41 -95.5t120 -34.5h82l47 297h-84q-95 0 -150.5 -46t-55.5 -121z" />
    <glyph glyph-name="uni0430" unicode="&#x430;" horiz-adv-x="478" 
d="M337 113q-60 -64 -100.5 -93.5t-77.5 -29.5q-54 0 -84.5 41.5t-30.5 114.5q0 138 76.5 234.5t185.5 96.5q63 0 125 -31l-50 -300v-146h-40zM338 164l44 256q-38 16 -83 16q-84 0 -146 -81t-62 -206q0 -58 19.5 -88.5t52.5 -30.5q29 0 66.5 29t108.5 105z" />
    <glyph glyph-name="uni0431" unicode="&#x431;" horiz-adv-x="485" 
d="M437 715l7 -42l-135 -22q-60 -10 -99 -50q-62 -64 -88 -218q60 53 101 75t84 22q66 0 99.5 -46t31.5 -130q-3 -133 -68 -223.5t-157 -90.5q-75 0 -113 56.5t-38 155.5q0 140 29.5 255t85.5 172q50 51 126 64zM303 440q-67 0 -188 -109q-7 -60 -7 -133q0 -76 27.5 -122
t80.5 -46q70 0 122 78t53 191q2 141 -88 141z" />
    <glyph glyph-name="uni0432" unicode="&#x432;" horiz-adv-x="460" 
d="M44 18l70 437q77 25 153 25q75 0 112.5 -32.5t37.5 -81.5q0 -44 -27.5 -75t-72.5 -46q82 -27 82 -105q0 -68 -57 -109t-151 -41q-76 0 -147 28zM195 29q69 0 114 30t45 79q0 41 -30.5 65.5t-87.5 24.5h-113l-29 -183q50 -16 101 -16zM236 265q60 0 98 28t38 68
q0 36 -27.5 58t-81.5 22q-53 0 -108 -16l-26 -160h107z" />
    <glyph glyph-name="uni0433" unicode="&#x433;" horiz-adv-x="381" 
d="M104 438q76 42 141 42q51 0 81 -24.5t30 -70.5q0 -52 -34 -85.5t-116 -71.5q-78 -35 -107.5 -62.5t-29.5 -67.5q0 -31 22 -50t60 -19q71 0 156 55l-6 -47q-82 -47 -155 -47q-56 0 -89 28.5t-33 76.5q0 56 36 91.5t129 78.5q68 32 94.5 56t27.5 61q0 26 -19 42.5t-52 16.5
q-56 0 -142 -50z" />
    <glyph glyph-name="uni0434" unicode="&#x434;" horiz-adv-x="496" 
d="M246 663l8 40q29 9 65 9q79 0 111.5 -50.5t32.5 -153.5q0 -145 -35 -269t-99 -188q-60 -60 -134 -60q-71 0 -111 48t-40 128q0 126 71 219t174 93q59 0 126 -40q2 42 2 64q0 91 -23 130t-83 39q-33 0 -65 -9zM296 79q43 43 73.5 127t41.5 189q-65 44 -125 44
q-79 0 -137 -83t-58 -186q0 -66 28 -103t78 -37t99 49z" />
    <glyph glyph-name="uni0435" unicode="&#x435;" horiz-adv-x="439" 
d="M216 31q65 0 145 60v-47q-75 -54 -148 -54q-81 0 -124.5 53t-43.5 144q0 129 65 211t150 82q67 0 103 -44t36 -125q0 -27 -7 -72h-297q-3 -24 -3 -50q0 -74 33 -116t91 -42zM258 440q-51 0 -94.5 -44.5t-61.5 -119.5h248q9 78 -14.5 121t-77.5 43z" />
    <glyph glyph-name="uni0436" unicode="&#x436;" horiz-adv-x="643" 
d="M49 0h-58l266 253l-179 213l48 9l177 -221l33 216h46l-37 -216l239 216h58l-251 -223l192 -243l-48 -9l-191 250l-37 -245h-46l41 245z" />
    <glyph glyph-name="uni0437" unicode="&#x437;" horiz-adv-x="431" 
d="M81 394v45q83 40 161 40q72 0 110.5 -32t38.5 -82q0 -49 -32 -81t-89 -45q44 -10 68.5 -39.5t24.5 -68.5q0 -63 -51.5 -101.5t-135.5 -38.5q-88 0 -170 45l15 41q80 -45 159 -45q61 0 98.5 27t37.5 69q0 92 -137 92h-60v41h65q77 0 118.5 28t41.5 73q0 34 -26.5 55
t-79.5 21q-72 0 -157 -44z" />
    <glyph glyph-name="uni0438" unicode="&#x438;" horiz-adv-x="484" 
d="M53 94q0 16 4 44l53 332h46l-53 -334q-4 -28 -4 -40q0 -30 17 -47t49 -17q35 0 75.5 31.5t105.5 104.5l47 302h46l-51 -322v-148h-40l-5 114q-56 -62 -98.5 -93t-83.5 -31q-52 0 -80 26.5t-28 77.5z" />
    <glyph glyph-name="uni0439" unicode="&#x439;" horiz-adv-x="484" 
d="M53 94q0 16 4 44l53 332h46l-53 -334q-4 -28 -4 -40q0 -30 17 -47t49 -17q35 0 75.5 31.5t105.5 104.5l47 302h46l-51 -322v-148h-40l-5 114q-56 -62 -98.5 -93t-83.5 -31q-52 0 -80 26.5t-28 77.5zM424 661q-14 -45 -50 -77t-92 -32t-82 32t-24 77l36 5
q4 -32 24.5 -49.5t53.5 -17.5q68 0 100 67z" />
    <glyph glyph-name="uni043A" unicode="&#x43a;" horiz-adv-x="422" 
d="M321 -7l-194 250l-38 -243h-46l75 470h46l-35 -216l233 216h64l-249 -223l193 -242z" />
    <glyph glyph-name="uni043B" unicode="&#x43b;" horiz-adv-x="514" 
d="M2 -2v41q36 3 59 20t42 62l95 223q56 134 180 134q49 0 93 -17l-73 -461h-46l69 433q-19 6 -45 6q-47 0 -80 -26.5t-58 -84.5l-94 -222q-25 -58 -57.5 -82t-84.5 -26z" />
    <glyph glyph-name="uni043C" unicode="&#x43c;" horiz-adv-x="672" 
d="M576 0h-46l34 410l-245 -413h-38l-114 414l-94 -411h-45l111 470h56l114 -415l246 415h57z" />
    <glyph glyph-name="uni043D" unicode="&#x43d;" horiz-adv-x="502" 
d="M338 0l36 227h-249l-36 -227h-46l75 470h46l-32 -202h249l32 202h46l-75 -470h-46z" />
    <glyph glyph-name="uni043E" unicode="&#x43e;" horiz-adv-x="468" 
d="M423 281q0 -118 -63.5 -204.5t-157.5 -86.5q-74 0 -115.5 54t-41.5 145q0 118 63.5 204.5t157.5 86.5q74 0 115.5 -54.5t41.5 -144.5zM376 279q0 78 -30.5 119.5t-81.5 41.5q-71 0 -121.5 -74.5t-50.5 -174.5q0 -78 31 -119.5t82 -41.5q71 0 121 74.5t50 174.5z" />
    <glyph glyph-name="uni043F" unicode="&#x43f;" horiz-adv-x="484" 
d="M431 376q0 -16 -4 -44l-53 -332h-46l53 334q4 28 4 40q0 30 -17 47t-49 17q-35 0 -75.5 -31.5t-105.5 -104.5l-47 -302h-46l51 322v148h40l5 -114q56 62 98.5 93t83.5 31q52 0 80 -26.5t28 -77.5z" />
    <glyph glyph-name="uni0440" unicode="&#x440;" horiz-adv-x="481" 
d="M16 -181l80 503v148h40l5 -100q51 59 87 84.5t78 25.5q62 0 96.5 -47t34.5 -132q0 -133 -71.5 -220t-179.5 -87q-47 0 -94 17l-29 -182zM99 53q46 -19 89 -19q86 0 144 72.5t58 191.5q0 66 -24.5 104t-65.5 38q-31 0 -67 -27.5t-92 -92.5z" />
    <glyph glyph-name="uni0441" unicode="&#x441;" horiz-adv-x="408" 
d="M389 440l-8 -48q-60 47 -112 47q-73 0 -125 -74.5t-52 -171.5q0 -77 34.5 -119.5t94.5 -42.5q54 0 118 45v-45q-57 -41 -122 -41q-77 0 -124.5 53.5t-47.5 147.5q0 117 66 203t160 86q63 0 118 -40z" />
    <glyph glyph-name="uni0442" unicode="&#x442;" horiz-adv-x="755" 
d="M703 376q0 -16 -4 -44l-53 -332h-46l53 334q4 26 4 40q0 30 -16 47t-45 17q-35 0 -76 -32t-104 -104l-48 -302h-46l53 334q4 26 4 40q0 30 -16 47t-45 17q-35 0 -76 -32t-104 -104l-47 -302h-46l51 322v148h40l5 -114q55 62 98 93t85 31q101 0 101 -104q0 -7 -1 -14
q54 59 95.5 88.5t82.5 29.5q101 0 101 -104z" />
    <glyph glyph-name="uni0443" unicode="&#x443;" horiz-adv-x="445" 
d="M450 470l-277 -548q-28 -55 -56.5 -77.5t-70.5 -22.5q-12 0 -26 2v41q14 -2 28 -2q29 0 48.5 16.5t40.5 56.5l33 63l-102 466l45 10l86 -419l201 414h50z" />
    <glyph glyph-name="uni0444" unicode="&#x444;" horiz-adv-x="671" 
d="M414 589l-27 -171q56 61 112 61q58 0 93 -48t35 -132q0 -127 -60.5 -217.5t-147.5 -90.5q-58 0 -92 52l-20 -126q-9 -52 -35.5 -73.5t-72.5 -21.5q-17 0 -33 2v41q26 -2 35 -2q52 0 62 59l20 129q-55 -60 -111 -60q-58 0 -93 48t-35 132q0 127 60.5 217.5t147.5 90.5
q56 0 91 -51l27 169q17 115 127 115q23 0 43 -4v-43q-20 5 -43 5q-39 0 -57.5 -19.5t-25.5 -61.5zM494 439q-52 0 -117 -79l-42 -267q35 -62 83 -62q65 0 113.5 78.5t48.5 186.5q0 69 -24 106t-62 37zM177 31q52 0 115 77l43 269q-36 62 -82 62q-65 0 -113.5 -78.5
t-48.5 -186.5q0 -69 24 -106t62 -37z" />
    <glyph glyph-name="uni0445" unicode="&#x445;" horiz-adv-x="434" 
d="M426 470l-183 -228l118 -238l-44 -11l-104 215l-160 -208h-53l193 244l-110 222l45 12l95 -200l150 192h53z" />
    <glyph glyph-name="uni0446" unicode="&#x446;" horiz-adv-x="484" 
d="M346 -153l25 153h-46l18 114q-56 -62 -98.5 -93t-83.5 -31q-52 0 -80 26.5t-28 77.5q0 16 4 44l53 332h46l-53 -334q-4 -28 -4 -40q0 -30 17 -47t49 -17q35 0 75.5 31.5t105.5 104.5l47 302h46l-68 -430h50l-30 -185z" />
    <glyph glyph-name="uni0447" unicode="&#x447;" horiz-adv-x="458" 
d="M95 470h46l-19 -119q-5 -30 -5 -52q0 -86 116 -86q48 0 97 13l39 244h46l-75 -470h-46l29 183q-49 -13 -99 -13q-74 0 -114 32.5t-40 94.5q0 22 6 55z" />
    <glyph glyph-name="uni0448" unicode="&#x448;" horiz-adv-x="755" 
d="M52 94q0 16 4 44l53 332h46l-53 -334q-4 -26 -4 -40q0 -30 16 -47t45 -17q35 0 76 32t104 104l48 302h46l-53 -334q-4 -26 -4 -40q0 -30 16 -47t45 -17q35 0 76 32t104 104l47 302h46l-51 -322v-148h-40l-5 114q-55 -62 -98 -93t-85 -31q-101 0 -101 104q0 7 1 14
q-54 -59 -95.5 -88.5t-82.5 -29.5q-101 0 -101 104z" />
    <glyph glyph-name="uni0449" unicode="&#x449;" horiz-adv-x="755" 
d="M617 -153l25 153h-46l18 114q-55 -62 -98 -93t-85 -31q-101 0 -101 104q0 7 1 14q-54 -59 -95.5 -88.5t-82.5 -29.5q-101 0 -101 104q0 16 4 44l53 332h46l-53 -334q-4 -26 -4 -40q0 -30 16 -47t45 -17q35 0 76 32t104 104l48 302h45l-52 -334q-4 -26 -4 -40
q0 -30 16 -47t45 -17q35 0 76 32t104 104l47 302h46l-68 -430h50l-30 -185z" />
    <glyph glyph-name="uni044A" unicode="&#x44a;" horiz-adv-x="505" 
d="M130 16l65 414h-144l6 40h191l-29 -181q43 9 78 9q75 0 117.5 -34t42.5 -97q0 -78 -58.5 -127.5t-148.5 -49.5q-65 0 -120 26zM410 164q0 44 -29.5 69.5t-86.5 25.5q-41 0 -81 -10l-33 -208q32 -12 73 -12q69 0 113 38.5t44 96.5z" />
    <glyph glyph-name="uni044B" unicode="&#x44b;" horiz-adv-x="611" 
d="M45 16l72 454h46l-29 -181q43 9 78 9q75 0 117.5 -34t42.5 -97q0 -78 -58.5 -127.5t-148.5 -49.5q-65 0 -120 26zM325 164q0 44 -29.5 69.5t-86.5 25.5q-41 0 -81 -10l-33 -208q31 -12 73 -12q69 0 113 38.5t44 96.5zM564 470l-76 -470h-46l76 470h46z" />
    <glyph glyph-name="uni044C" unicode="&#x44c;" horiz-adv-x="420" 
d="M45 16l72 454h46l-29 -181q43 9 78 9q75 0 117.5 -34t42.5 -97q0 -78 -58.5 -127.5t-148.5 -49.5q-65 0 -120 26zM325 164q0 44 -29.5 69.5t-86.5 25.5q-41 0 -81 -10l-33 -208q31 -12 73 -12q69 0 113 38.5t44 96.5z" />
    <glyph glyph-name="uni044D" unicode="&#x44d;" horiz-adv-x="408" 
d="M13 33l8 44q56 -47 114 -47q63 0 112 53.5t64 132.5h-198v41h203q1 6 1 20q0 77 -34 120t-92 43q-55 0 -115 -41v44q57 37 119 37q75 0 121.5 -53.5t46.5 -147.5q0 -117 -66 -203t-163 -86q-68 0 -121 43z" />
    <glyph glyph-name="uni044E" unicode="&#x44e;" horiz-adv-x="639" 
d="M594 284q0 -116 -62 -205t-155 -89q-71 0 -111 53.5t-40 142.5q0 14 2 42h-103l-36 -228h-46l75 470h46l-32 -202h103q20 90 76.5 151t131.5 61q71 0 111 -54t40 -142zM547 282q0 76 -28.5 117t-76.5 41q-70 0 -119.5 -76.5t-49.5 -175.5q0 -76 28.5 -117t77.5 -41
q70 0 119 76.5t49 175.5z" />
    <glyph glyph-name="uni044F" unicode="&#x44f;" horiz-adv-x="473" 
d="M-2 5l184 193q-45 12 -70.5 43t-25.5 76q0 71 59 117t156 46q73 0 129 -26l-73 -454h-46l31 190h-97h-14l-183 -195zM348 229l32 199q-34 12 -84 12q-74 0 -118.5 -35.5t-44.5 -86.5q0 -89 120 -89h95z" />
    <glyph glyph-name="uni0450" unicode="&#x450;" horiz-adv-x="439" 
d="M216 31q65 0 145 60v-47q-75 -54 -148 -54q-81 0 -124.5 53t-43.5 144q0 129 65 211t150 82q67 0 103 -44t36 -125q0 -27 -7 -72h-297q-3 -24 -3 -50q0 -74 33 -116t91 -42zM258 440q-51 0 -94.5 -44.5t-61.5 -119.5h248q9 78 -14.5 121t-77.5 43zM293 552h-33l-116 140
l70 15z" />
    <glyph glyph-name="uni0451" unicode="&#x451;" horiz-adv-x="439" 
d="M216 31q65 0 145 60v-47q-75 -54 -148 -54q-81 0 -124.5 53t-43.5 144q0 129 65 211t150 82q67 0 103 -44t36 -125q0 -27 -7 -72h-297q-3 -24 -3 -50q0 -74 33 -116t91 -42zM258 440q-51 0 -94.5 -44.5t-61.5 -119.5h248q9 78 -14.5 121t-77.5 43zM399 566h-70l13 79h70z
M232 566h-69l13 79h69z" />
    <glyph glyph-name="uni0452" unicode="&#x452;" horiz-adv-x="480" 
d="M345 544h-165l-26 -168q54 16 109 16q77 0 118 -41t41 -111q0 -86 -42 -183t-140 -238l-47 9q97 139 139.5 236t42.5 174q0 53 -31.5 82t-89.5 29q-51 0 -107 -16l-53 -333h-46l86 544h-93v41h100l19 120l47 10l-21 -130h166z" />
    <glyph glyph-name="uni0453" unicode="&#x453;" horiz-adv-x="381" 
d="M104 438q76 42 141 42q51 0 81 -24.5t30 -70.5q0 -52 -34 -85.5t-116 -71.5q-78 -35 -107.5 -62.5t-29.5 -67.5q0 -31 22 -50t60 -19q71 0 156 55l-6 -47q-82 -47 -155 -47q-56 0 -89 28.5t-33 76.5q0 56 36 91.5t129 78.5q68 32 94.5 56t27.5 61q0 26 -19 42.5t-52 16.5
q-56 0 -142 -50zM416 692l-160 -140h-40l131 155z" />
    <glyph glyph-name="uni0454" unicode="&#x454;" horiz-adv-x="408" 
d="M389 440l-8 -47q-60 47 -112 47q-60 0 -108 -52.5t-64 -130.5h201v-41h-206q-1 -8 -1 -23q0 -77 35 -120t95 -43q54 0 118 45v-44q-57 -41 -122 -41q-77 0 -124.5 53.5t-47.5 147.5q0 117 66 203t160 86q63 0 118 -40z" />
    <glyph glyph-name="uni0455" unicode="&#x455;" horiz-adv-x="375" 
d="M337 447l-9 -47q-60 41 -116 41q-41 0 -68.5 -23.5t-27.5 -58.5q0 -27 17.5 -45.5t64.5 -44.5q70 -38 94 -66t24 -74q0 -66 -43 -102.5t-110 -36.5q-85 0 -152 47l10 46q66 -54 146 -54q43 0 73.5 26t30.5 67q0 32 -18.5 52.5t-72.5 49.5q-60 32 -84.5 59t-24.5 68
q0 58 41.5 93.5t101.5 35.5q65 0 123 -33z" />
    <glyph glyph-name="uni0456" unicode="&#x456;" horiz-adv-x="220" 
d="M213 638q0 -16 -12 -28t-28 -12q-15 0 -27 12t-12 28t12 28t27 12q17 0 28.5 -12t11.5 -28zM171 470l-76 -470h-46l76 470h46z" />
    <glyph glyph-name="uni0457" unicode="&#x457;" horiz-adv-x="220" 
d="M171 470l-76 -470h-46l76 470h46zM281 566h-70l13 79h70zM114 566h-69l13 79h69z" />
    <glyph glyph-name="uni0458" unicode="&#x458;" horiz-adv-x="220" 
d="M213 638q0 -16 -12 -28t-28 -12q-15 0 -27 12t-12 28t12 28t27 12q17 0 28.5 -12t11.5 -28zM171 470l-89 -553q-9 -52 -35.5 -73.5t-72.5 -21.5q-17 0 -33 2v41q26 -2 35 -2q52 0 62 59l87 548h46z" />
    <glyph glyph-name="uni0459" unicode="&#x459;" horiz-adv-x="729" 
d="M2 -2v41q36 3 59 20t42 62l95 223q56 134 180 134q47 0 93 -16l-28 -173q43 9 78 9q75 0 117.5 -34t42.5 -97q0 -78 -58.5 -127.5t-148.5 -49.5q-65 0 -120 26l66 417q-19 6 -44 6q-47 0 -80 -26.5t-58 -84.5l-94 -222q-25 -58 -57.5 -82t-84.5 -26zM634 164
q0 44 -29.5 69.5t-86.5 25.5q-41 0 -81 -10l-33 -208q32 -12 73 -12q69 0 113 38.5t44 96.5z" />
    <glyph glyph-name="uni045A" unicode="&#x45a;" horiz-adv-x="711" 
d="M336 16l33 211h-244l-36 -227h-46l75 470h46l-32 -202h244l32 202h46l-29 -181q43 9 78 9q75 0 117.5 -34t42.5 -97q0 -78 -58.5 -127.5t-148.5 -49.5q-65 0 -120 26zM419 249l-33 -208q32 -12 73 -12q69 0 113 38.5t44 96.5q0 44 -29.5 69.5t-86.5 25.5q-41 0 -81 -10z
" />
    <glyph glyph-name="uni045B" unicode="&#x45b;" horiz-adv-x="485" 
d="M345 544h-165l-26 -168q54 16 110 16q74 0 114 -32.5t40 -94.5q0 -22 -6 -55l-35 -210h-46l35 211q5 30 5 52q0 86 -116 86q-52 0 -108 -16l-53 -333h-46l86 544h-93v41h100l19 120l47 10l-21 -130h166z" />
    <glyph glyph-name="uni045C" unicode="&#x45c;" horiz-adv-x="422" 
d="M321 -7l-194 250l-38 -243h-46l75 470h46l-35 -216l233 216h64l-249 -223l193 -242zM441 687l-160 -140h-40l131 155z" />
    <glyph glyph-name="uni045D" unicode="&#x45d;" horiz-adv-x="484" 
d="M53 94q0 16 4 44l53 332h46l-53 -334q-4 -28 -4 -40q0 -30 17 -47t49 -17q35 0 75.5 31.5t105.5 104.5l47 302h46l-51 -322v-148h-40l-5 114q-56 -62 -98.5 -93t-83.5 -31q-52 0 -80 26.5t-28 77.5zM297 547h-33l-116 140l70 15z" />
    <glyph glyph-name="uni045E" unicode="&#x45e;" horiz-adv-x="445" 
d="M450 470l-277 -548q-28 -55 -56.5 -77.5t-70.5 -22.5q-12 0 -26 2v41q14 -2 28 -2q29 0 48.5 16.5t40.5 56.5l33 63l-102 466l45 10l86 -419l201 414h50zM419 661q-14 -45 -50 -77t-92 -32t-82 32t-24 77l36 5q4 -32 24.5 -49.5t53.5 -17.5q68 0 100 67z" />
    <glyph glyph-name="uni045F" unicode="&#x45f;" horiz-adv-x="484" 
d="M141 -181l32 130h40l-21 -122zM53 94q0 16 4 44l53 332h46l-53 -334q-4 -28 -4 -40q0 -30 17 -47t49 -17q35 0 75.5 31.5t105.5 104.5l47 302h46l-51 -322v-148h-40l-5 114q-56 -62 -98.5 -93t-83.5 -31q-52 0 -80 26.5t-28 77.5z" />
    <glyph glyph-name="uni0462" unicode="&#x462;" horiz-adv-x="644" 
d="M353 703l-20 -121h209v-43h-216l-27 -169h107q91 0 139.5 -43t48.5 -120q0 -93 -67 -150t-175 -57h-159l86 539h-208l7 43h208l20 121h47zM546 206q0 58 -35.5 89.5t-107.5 31.5h-111l-46 -285h108q88 0 140 44t52 120z" />
    <glyph glyph-name="uni0463" unicode="&#x463;" horiz-adv-x="690" 
d="M324 480q101 0 101 -104q0 -16 -4 -44l-7 -41q39 7 68 7q75 0 117.5 -34t42.5 -97q0 -78 -58.5 -127.5t-148.5 -49.5q-57 0 -111 22l51 322q4 26 4 40q0 30 -16 47t-45 17q-35 0 -76 -32t-104 -104l-47 -302h-46l51 322v148h40l5 -114q55 62 98 93t85 31zM479 259
q-36 0 -71 -8l-34 -214q24 -8 64 -8q69 0 113 38.5t44 96.5q0 44 -29.5 69.5t-86.5 25.5z" />
    <glyph glyph-name="uni0472" unicode="&#x472;" horiz-adv-x="698" 
d="M326 -13q-117 0 -186.5 86.5t-69.5 217.5q0 96 34 179.5t94 143.5q89 89 209 89q117 0 186.5 -86.5t69.5 -217.5q0 -96 -34 -179.5t-94 -143.5q-89 -89 -209 -89zM328 30q98 0 175 77q85 85 106 218h-490q-1 -11 -1 -34q0 -115 57.5 -188t152.5 -73zM230 583
q-85 -85 -106 -217h490q0 6 0.5 17t0.5 16q0 115 -57.5 188t-152.5 73q-98 0 -175 -77z" />
    <glyph glyph-name="uni0473" unicode="&#x473;" horiz-adv-x="468" 
d="M423 281q0 -118 -63.5 -204.5t-157.5 -86.5q-74 0 -115.5 54t-41.5 145q0 118 63.5 204.5t157.5 86.5q74 0 115.5 -54.5t41.5 -144.5zM205 29q60 0 106 53.5t61 134.5h-281q-1 -9 -1 -26q0 -79 31.5 -120.5t83.5 -41.5zM378 279q0 79 -31.5 120.5t-82.5 41.5
q-59 0 -105.5 -52.5t-62.5 -131.5h281q1 7 1 22z" />
    <glyph glyph-name="uni0474" unicode="&#x474;" horiz-adv-x="654" 
d="M717 652q-44 -8 -79.5 -45t-85.5 -130l-258 -481h-36l-151 690l44 11l135 -635l229 436q57 109 98 149.5t104 50.5v-46z" />
    <glyph glyph-name="uni0475" unicode="&#x475;" horiz-adv-x="454" 
d="M196 -5h-36l-92 470l45 10l75 -415l129 260q40 82 76 116.5t92 41.5v-44q-41 -7 -68 -35t-64 -100z" />
    <glyph glyph-name="uni0490" unicode="&#x490;" horiz-adv-x="430" 
d="M469 648h-261l-103 -648h-47l110 690h262l21 130h47z" />
    <glyph glyph-name="uni0491" unicode="&#x491;" horiz-adv-x="364" 
d="M365 429h-208l-68 -429h-46l75 470h209l25 147h46z" />
    <glyph glyph-name="uni0492" unicode="&#x492;" horiz-adv-x="442" 
d="M180 690h303v-43h-263l-42 -261h148l-6 -38h-148l-55 -348h-47l55 348h-86v38h92z" />
    <glyph glyph-name="uni0493" unicode="&#x493;" horiz-adv-x="380" 
d="M268 214h-129l-34 -214h-46l34 214h-69v39h75l35 217h252v-41h-213l-28 -176h129z" />
    <glyph glyph-name="uni0496" unicode="&#x496;" horiz-adv-x="849" 
d="M123 686l48 12l249 -328l50 320h47l-52 -320l338 320h62l-354 -328l243 -321h55l-30 -196l-46 -7l26 162h-31l-265 359l-56 -359h-47l58 359l-371 -359h-62l387 368z" />
    <glyph glyph-name="uni0497" unicode="&#x497;" horiz-adv-x="648" 
d="M533 -153l25 153h-27l-187 245l-37 -245h-46l41 245l-253 -245h-58l266 253l-179 213l48 9l177 -221l33 216h46l-37 -216l239 216h58l-251 -223l163 -207h54l-30 -185z" />
    <glyph glyph-name="uni0498" unicode="&#x498;" horiz-adv-x="521" 
d="M493 541q0 -72 -47.5 -118t-128.5 -66q133 -43 133 -166q0 -81 -63.5 -141t-164.5 -61l-25 -144l-46 -7l26 153q-83 9 -163 59l15 45q98 -64 186 -64q81 0 134 46t53 113q0 68 -52.5 109.5t-136.5 41.5h-51v43h59q105 0 164 43t59 112q0 53 -36.5 86.5t-103.5 33.5
q-83 0 -185 -60v49q93 53 187 53q88 0 137.5 -45.5t49.5 -114.5z" />
    <glyph glyph-name="uni0499" unicode="&#x499;" horiz-adv-x="431" 
d="M81 394v45q83 40 161 40q72 0 110.5 -32t38.5 -82q0 -49 -32 -81t-89 -45q44 -10 68.5 -39.5t24.5 -68.5q0 -59 -45 -96.5t-121 -42.5l-24 -137l-45 -8l25 145q-80 7 -147 44l15 41q80 -45 159 -45q61 0 98.5 27t37.5 69q0 92 -137 92h-60v41h65q77 0 118.5 28t41.5 73
q0 34 -26.5 55t-79.5 21q-72 0 -157 -44z" />
    <glyph glyph-name="uni049A" unicode="&#x49a;" horiz-adv-x="573" 
d="M459 -162l26 162h-31l-292 361l-57 -361h-47l110 690h47l-51 -318l369 318h65l-381 -324l263 -325h55l-30 -196z" />
    <glyph glyph-name="uni049B" unicode="&#x49b;" horiz-adv-x="427" 
d="M316 0l-189 243l-38 -243h-46l75 470h46l-35 -216l233 216h64l-249 -223l165 -207h51l-30 -185l-45 -8l25 153h-27z" />
    <glyph glyph-name="uni049C" unicode="&#x49c;" horiz-adv-x="587" 
d="M312 564l-28 -171l265 297h60l-296 -327l207 -358l-49 -12l-195 349l-27 -173h-38l28 178h-79l-55 -347h-47l110 690h47l-48 -302h79l28 176h38z" />
    <glyph glyph-name="uni049D" unicode="&#x49d;" horiz-adv-x="451" 
d="M197 103h-37l19 122h-56l-35 -225h-45l75 470h45l-33 -205h56l19 122h37l-19 -118l173 201h58l-201 -226l141 -239l-46 -10l-132 227z" />
    <glyph glyph-name="uni04A0" unicode="&#x4a0;" horiz-adv-x="700" 
d="M733 690l-381 -324l293 -361l-51 -12l-297 368l-57 -361h-47l103 647h-208l7 43h255l-51 -318l369 318h65z" />
    <glyph glyph-name="uni04A1" unicode="&#x4a1;" horiz-adv-x="498" 
d="M406 -7l-194 250l-38 -243h-46l68 430h-145l6 40h192l-35 -216l233 216h64l-249 -223l193 -242z" />
    <glyph glyph-name="uni04A2" unicode="&#x4a2;" horiz-adv-x="666" 
d="M639 690l-104 -649h54l-30 -196l-46 -7l26 162h-57l54 340h-377l-54 -340h-47l110 690h47l-49 -308h377l49 308h47z" />
    <glyph glyph-name="uni04A3" unicode="&#x4a3;" horiz-adv-x="504" 
d="M338 0l36 227h-249l-36 -227h-46l75 470h46l-32 -202h249l32 202h46l-69 -430h50l-30 -185l-45 -8l25 153h-52z" />
    <glyph glyph-name="uni04A4" unicode="&#x4a4;" horiz-adv-x="834" 
d="M582 690h293v-42h-253l-103 -648h-47l54 341h-367l-54 -341h-47l110 690h47l-49 -308h367z" />
    <glyph glyph-name="uni04A5" unicode="&#x4a5;" horiz-adv-x="649" 
d="M338 0l36 228h-249l-36 -228h-46l75 470h46l-32 -202h249l32 202h242v-42h-203l-68 -428h-46z" />
    <glyph glyph-name="uni04AA" unicode="&#x4aa;" horiz-adv-x="570" 
d="M575 645l-8 -54q-74 68 -162 68q-122 0 -204 -112t-82 -266q0 -115 55.5 -182.5t144.5 -67.5q91 0 178 59v-51q-85 -50 -180 -51l-24 -143l-46 -7l26 154q-91 14 -147.5 90t-56.5 199q0 170 97.5 295.5t237.5 125.5q98 0 171 -57z" />
    <glyph glyph-name="uni04AB" unicode="&#x4ab;" horiz-adv-x="408" 
d="M389 440l-8 -48q-60 47 -112 47q-73 0 -125 -74.5t-52 -171.5q0 -77 34.5 -119.5t94.5 -42.5q54 0 118 45v-45q-55 -40 -118 -41l-23 -135l-45 -8l25 147q-61 12 -97 63.5t-36 133.5q0 117 66 203t160 86q63 0 118 -40z" />
    <glyph glyph-name="uni04AE" unicode="&#x4ae;" horiz-adv-x="576" 
d="M617 690l-294 -393l-47 -297h-47l47 296l-169 391l47 10l151 -361l258 354h54z" />
    <glyph glyph-name="uni04AF" unicode="&#x4af;" horiz-adv-x="446" 
d="M451 470l-245 -465l-28 -176l-47 -10l30 192l-93 454l45 10l80 -415l208 410h50z" />
    <glyph glyph-name="uni04B0" unicode="&#x4b0;" horiz-adv-x="576" 
d="M443 194h-137l-30 -194h-47l31 194h-140l6 38h140l10 64l-169 391l47 10l151 -361l258 354h54l-294 -393l-11 -65h131v-38z" />
    <glyph glyph-name="uni04B1" unicode="&#x4b1;" horiz-adv-x="446" 
d="M451 470l-245 -465l-1 -5h111v-38h-117l-21 -133l-47 -10l22 143h-112l6 38h112l2 11l-93 454l45 10l80 -415l208 410h50z" />
    <glyph glyph-name="uni04B2" unicode="&#x4b2;" horiz-adv-x="603" 
d="M470 -162l26 162h-30l-156 325l-254 -325h-55l289 362l-159 322l48 10l142 -298l229 294h55l-264 -332l157 -317h48l-30 -196z" />
    <glyph glyph-name="uni04B3" unicode="&#x4b3;" horiz-adv-x="439" 
d="M316 -153l25 153h-27l-101 208l-160 -208h-53l193 244l-110 222l45 12l95 -200l150 192h53l-183 -228l100 -202h48l-30 -185z" />
    <glyph glyph-name="uni04B6" unicode="&#x4b6;" horiz-adv-x="580" 
d="M427 -162l26 162h-57l44 278q-82 -15 -134 -15q-199 0 -199 171q0 32 7 78l29 178h47l-29 -179q-7 -45 -7 -75q0 -131 155 -131q65 0 138 16l59 369h47l-104 -649h54l-30 -196z" />
    <glyph glyph-name="uni04B7" unicode="&#x4b7;" horiz-adv-x="460" 
d="M95 470h46l-19 -119q-5 -30 -5 -52q0 -86 116 -86q48 0 97 13l39 244h46l-69 -430h50l-30 -185l-45 -8l25 153h-52l29 183q-49 -13 -99 -13q-74 0 -114 32.5t-40 94.5q0 22 6 55z" />
    <glyph glyph-name="uni04B8" unicode="&#x4b8;" horiz-adv-x="576" 
d="M337 498l-30 -193h2q65 0 138 16l59 369h47l-110 -690h-47l44 278q-82 -15 -134 -15h-6l-25 -160h-38l25 162q-155 18 -155 169q0 32 7 78l29 178h47l-29 -179q-7 -45 -7 -75q0 -115 115 -129l30 191h38z" />
    <glyph glyph-name="uni04B9" unicode="&#x4b9;" horiz-adv-x="458" 
d="M250 349l-22 -136h5q48 0 97 13l39 244h46l-75 -470h-46l29 183q-49 -13 -99 -13h-3l-19 -121h-37l20 123q-115 17 -115 125q0 22 6 55l19 118h46l-19 -119q-5 -30 -5 -52q0 -69 74 -83l22 133h37z" />
    <glyph glyph-name="uni04BA" unicode="&#x4ba;" horiz-adv-x="576" 
d="M168 690h47l-45 -279q80 16 135 16q199 0 199 -171q0 -32 -7 -78l-29 -178h-47l29 179q7 45 7 75q0 131 -155 131q-62 0 -139 -17l-58 -368h-47z" />
    <glyph glyph-name="uni04BB" unicode="&#x4bb;" horiz-adv-x="482" 
d="M429 376q0 -16 -4 -44l-53 -332h-46l53 334q4 28 4 40q0 30 -17 47t-49 17q-35 0 -75.5 -31.5t-105.5 -104.5l-47 -302h-46l112 705l47 10l-56 -351q53 58 94.5 87t80.5 29q52 0 80 -26.5t28 -77.5z" />
    <glyph glyph-name="uni04C0" unicode="&#x4c0;" horiz-adv-x="254" 
d="M223 690l-110 -690h-47l110 690h47z" />
    <glyph glyph-name="uni04C1" unicode="&#x4c1;" horiz-adv-x="841" 
d="M123 686l48 12l249 -328l50 320h47l-52 -320l338 320h62l-354 -328l270 -357l-48 -12l-270 366l-56 -359h-47l58 359l-371 -359h-62l387 368zM644 866q-14 -45 -50 -77t-92 -32t-82 32t-24 77l36 5q4 -32 24.5 -49.5t53.5 -17.5q68 0 100 67z" />
    <glyph glyph-name="uni04C2" unicode="&#x4c2;" horiz-adv-x="643" 
d="M49 0h-58l266 253l-179 213l48 9l177 -221l33 216h46l-37 -216l239 216h58l-251 -223l192 -243l-48 -9l-191 250l-37 -245h-46l41 245zM515 666q-14 -45 -50 -77t-92 -32t-82 32t-24 77l36 5q4 -32 24.5 -49.5t53.5 -17.5q68 0 100 67z" />
    <glyph glyph-name="uni04CF" unicode="&#x4cf;" horiz-adv-x="220" 
d="M208 715l-113 -715h-46l112 705z" />
    <glyph glyph-name="uni04D0" unicode="&#x4d0;" horiz-adv-x="644" 
d="M525 -7l-53 243h-294l-125 -236h-51l375 694h39l154 -690zM387 627l-187 -350h264zM549 876q-14 -45 -50 -77t-92 -32t-82 32t-24 77l36 5q4 -32 24.5 -49.5t53.5 -17.5q68 0 100 67z" />
    <glyph glyph-name="uni04D1" unicode="&#x4d1;" horiz-adv-x="478" 
d="M337 113q-60 -64 -100.5 -93.5t-77.5 -29.5q-54 0 -84.5 41.5t-30.5 114.5q0 138 76.5 234.5t185.5 96.5q63 0 125 -31l-50 -300v-146h-40zM338 164l44 256q-38 16 -83 16q-84 0 -146 -81t-62 -206q0 -58 19.5 -88.5t52.5 -30.5q29 0 66.5 29t108.5 105zM439 666
q-14 -45 -50 -77t-92 -32t-82 32t-24 77l36 5q4 -32 24.5 -49.5t53.5 -17.5q68 0 100 67z" />
    <glyph glyph-name="uni04D2" unicode="&#x4d2;" horiz-adv-x="644" 
d="M525 -7l-53 243h-294l-125 -236h-51l375 694h39l154 -690zM387 627l-187 -350h264zM528 776h-70l13 79h70zM361 776h-69l13 79h69z" />
    <glyph glyph-name="uni04D3" unicode="&#x4d3;" horiz-adv-x="478" 
d="M337 113q-60 -64 -100.5 -93.5t-77.5 -29.5q-54 0 -84.5 41.5t-30.5 114.5q0 138 76.5 234.5t185.5 96.5q63 0 125 -31l-50 -300v-146h-40zM338 164l44 256q-38 16 -83 16q-84 0 -146 -81t-62 -206q0 -58 19.5 -88.5t52.5 -30.5q29 0 66.5 29t108.5 105zM418 566h-70
l13 79h70zM251 566h-69l13 79h69z" />
    <glyph glyph-name="uni04D4" unicode="&#x4d4;" horiz-adv-x="855" 
d="M31 0h-51l519 690h359l-7 -42h-282l-42 -266h222v-42h-229l-48 -298h293l-7 -42h-339l37 236h-248zM239 277h224l60 377z" />
    <glyph glyph-name="uni04D5" unicode="&#x4d5;" horiz-adv-x="715" 
d="M675 311q0 -27 -7 -72h-297q-3 -22 -3 -46q0 -77 34 -119.5t92 -42.5q63 0 143 60v-47q-75 -54 -148 -54q-107 0 -148 94q-105 -93 -190 -93q-56 0 -92 31t-36 88q0 161 311 184l4 31q8 60 -12.5 88t-73.5 28q-58 0 -144 -42v43q80 38 147 38q115 0 128 -89q64 89 153 89
q67 0 103 -44t36 -125zM626 276q9 78 -14.5 121t-77.5 43q-51 0 -95 -45t-62 -119h249zM328 121q-7 39 -7 70q0 35 6 67q-257 -19 -257 -145q0 -40 23.5 -61t62.5 -21q69 0 172 90z" />
    <glyph glyph-name="uni04D6" unicode="&#x4d6;" horiz-adv-x="476" 
d="M497 690l-7 -43h-282l-42 -264h222v-43h-229l-48 -297h293l-7 -43h-339l110 690h329zM483 866q-14 -45 -50 -77t-92 -32t-82 32t-24 77l36 5q4 -32 24.5 -49.5t53.5 -17.5q68 0 100 67z" />
    <glyph glyph-name="uni04D7" unicode="&#x4d7;" horiz-adv-x="439" 
d="M216 31q65 0 145 60v-47q-75 -54 -148 -54q-81 0 -124.5 53t-43.5 144q0 129 65 211t150 82q67 0 103 -44t36 -125q0 -27 -7 -72h-297q-3 -24 -3 -50q0 -74 33 -116t91 -42zM258 440q-51 0 -94.5 -44.5t-61.5 -119.5h248q9 78 -14.5 121t-77.5 43zM420 666
q-14 -45 -50 -77t-92 -32t-82 32t-24 77l36 5q4 -32 24.5 -49.5t53.5 -17.5q68 0 100 67z" />
    <glyph glyph-name="uni04D8" unicode="&#x4d8;" horiz-adv-x="653" 
d="M72 254q0 60 9 114h486q3 25 3 53q0 114 -55 176.5t-149 62.5q-105 0 -211 -68v50q105 61 215 61q115 0 181.5 -73.5t66.5 -206.5q0 -180 -97.5 -308t-236.5 -128q-105 0 -158.5 68t-53.5 199zM287 30q97 0 174 84t100 213h-437q-4 -29 -4 -71q0 -226 167 -226z" />
    <glyph glyph-name="uni04D9" unicode="&#x4d9;" horiz-adv-x="439" 
d="M223 439q-65 0 -145 -60v47q75 54 148 54q81 0 124.5 -53t43.5 -144q0 -129 -65 -211t-150 -82q-67 0 -103 44t-36 125q0 27 7 72h296q4 32 4 50q0 74 -33 116t-91 42zM181 30q50 0 94 44.5t62 119.5h-248q-9 -78 14.5 -121t77.5 -43z" />
    <glyph glyph-name="uni04DC" unicode="&#x4dc;" horiz-adv-x="841" 
d="M123 686l48 12l249 -328l50 320h47l-52 -320l338 320h62l-354 -328l270 -357l-48 -12l-270 366l-56 -359h-47l58 359l-371 -359h-62l387 368zM623 766h-70l13 79h70zM456 766h-69l13 79h69z" />
    <glyph glyph-name="uni04DD" unicode="&#x4dd;" horiz-adv-x="643" 
d="M49 0h-58l266 253l-179 213l48 9l177 -221l33 216h46l-37 -216l239 216h58l-251 -223l192 -243l-48 -9l-191 250l-37 -245h-46l41 245zM494 566h-70l13 79h70zM327 566h-69l13 79h69z" />
    <glyph glyph-name="uni04DE" unicode="&#x4de;" horiz-adv-x="521" 
d="M493 541q0 -72 -47.5 -118t-128.5 -66q133 -43 133 -166q0 -83 -66.5 -143t-170.5 -59q-99 1 -199 61l15 45q98 -64 186 -64q81 0 134 46t53 113q0 68 -52.5 109.5t-136.5 41.5h-51v43h59q105 0 164 43t59 112q0 53 -36.5 86.5t-103.5 33.5q-83 0 -185 -60v49
q93 53 187 53q88 0 137.5 -45.5t49.5 -114.5zM451 776h-70l13 79h70zM284 776h-69l13 79h69z" />
    <glyph glyph-name="uni04DF" unicode="&#x4df;" horiz-adv-x="431" 
d="M81 394v45q83 40 161 40q72 0 110.5 -32t38.5 -82q0 -49 -32 -81t-89 -45q44 -10 68.5 -39.5t24.5 -68.5q0 -63 -51.5 -101.5t-135.5 -38.5q-88 0 -170 45l15 41q80 -45 159 -45q61 0 98.5 27t37.5 69q0 92 -137 92h-60v41h65q77 0 118.5 28t41.5 73q0 34 -26.5 55
t-79.5 21q-72 0 -157 -44zM374 566h-70l13 79h70zM207 566h-69l13 79h69z" />
    <glyph glyph-name="uni04E2" unicode="&#x4e2;" horiz-adv-x="662" 
d="M58 0l110 690h46l-96 -601l469 601h52l-110 -690h-46l99 618l-483 -618h-41zM545 783h-255l7 43h255z" />
    <glyph glyph-name="uni04E3" unicode="&#x4e3;" horiz-adv-x="484" 
d="M53 94q0 16 4 44l53 332h46l-53 -334q-4 -28 -4 -40q0 -30 17 -47t49 -17q35 0 75.5 31.5t105.5 104.5l47 302h46l-51 -322v-148h-40l-5 114q-56 -62 -98.5 -93t-83.5 -31q-52 0 -80 26.5t-28 77.5zM414 578h-255l7 43h255z" />
    <glyph glyph-name="uni04E4" unicode="&#x4e4;" horiz-adv-x="662" 
d="M58 0l110 690h46l-96 -601l469 601h52l-110 -690h-46l99 618l-483 -618h-41zM533 766h-70l13 79h70zM366 766h-69l13 79h69z" />
    <glyph glyph-name="uni04E5" unicode="&#x4e5;" horiz-adv-x="484" 
d="M53 94q0 16 4 44l53 332h46l-53 -334q-4 -28 -4 -40q0 -30 17 -47t49 -17q35 0 75.5 31.5t105.5 104.5l47 302h46l-51 -322v-148h-40l-5 114q-56 -62 -98.5 -93t-83.5 -31q-52 0 -80 26.5t-28 77.5zM403 561h-70l13 79h70zM236 561h-69l13 79h69z" />
    <glyph glyph-name="uni04E6" unicode="&#x4e6;" horiz-adv-x="698" 
d="M326 -13q-117 0 -186.5 86.5t-69.5 217.5q0 96 34 179.5t94 143.5q89 89 209 89q117 0 186.5 -86.5t69.5 -217.5q0 -96 -34 -179.5t-94 -143.5q-89 -89 -209 -89zM328 30q97 0 174 77q111 111 111 292q0 116 -56.5 188.5t-151.5 72.5q-97 0 -174 -77q-111 -111 -111 -292
q0 -116 56.5 -188.5t151.5 -72.5zM561 776h-70l13 79h70zM394 776h-69l13 79h69z" />
    <glyph glyph-name="uni04E7" unicode="&#x4e7;" horiz-adv-x="468" 
d="M423 281q0 -118 -63.5 -204.5t-157.5 -86.5q-74 0 -115.5 54t-41.5 145q0 118 63.5 204.5t157.5 86.5q74 0 115.5 -54.5t41.5 -144.5zM376 279q0 78 -30.5 119.5t-81.5 41.5q-71 0 -121.5 -74.5t-50.5 -174.5q0 -78 31 -119.5t82 -41.5q71 0 121 74.5t50 174.5zM405 566
h-70l13 79h70zM238 566h-69l13 79h69z" />
    <glyph glyph-name="uni04E8" unicode="&#x4e8;" horiz-adv-x="698" 
d="M326 -13q-117 0 -186.5 86.5t-69.5 217.5q0 96 34 179.5t94 143.5q89 89 209 89q117 0 186.5 -86.5t69.5 -217.5q0 -96 -34 -179.5t-94 -143.5q-89 -89 -209 -89zM328 30q98 0 175 77q85 85 106 218h-490q-1 -11 -1 -34q0 -115 57.5 -188t152.5 -73zM230 583
q-85 -85 -106 -217h490q0 6 0.5 17t0.5 16q0 115 -57.5 188t-152.5 73q-98 0 -175 -77z" />
    <glyph glyph-name="uni04E9" unicode="&#x4e9;" horiz-adv-x="468" 
d="M423 281q0 -118 -63.5 -204.5t-157.5 -86.5q-74 0 -115.5 54t-41.5 145q0 118 63.5 204.5t157.5 86.5q74 0 115.5 -54.5t41.5 -144.5zM205 29q60 0 106 53.5t61 134.5h-281q-1 -9 -1 -26q0 -79 31.5 -120.5t83.5 -41.5zM378 279q0 79 -31.5 120.5t-82.5 41.5
q-59 0 -105.5 -52.5t-62.5 -131.5h281q1 7 1 22z" />
    <glyph glyph-name="uni04EE" unicode="&#x4ee;" horiz-adv-x="588" 
d="M62 38q67 4 108.5 31t84.5 96l36 58l-173 463l46 11l157 -429l255 422h54l-338 -547q-50 -81 -105 -115.5t-125 -36.5v47zM515 783h-255l7 43h255z" />
    <glyph glyph-name="uni04EF" unicode="&#x4ef;" horiz-adv-x="445" 
d="M450 470l-277 -548q-28 -55 -56.5 -77.5t-70.5 -22.5q-12 0 -26 2v41q14 -2 28 -2q29 0 48.5 16.5t40.5 56.5l33 63l-102 466l45 10l86 -419l201 414h50zM409 578h-255l7 43h255z" />
    <glyph glyph-name="uni04F0" unicode="&#x4f0;" horiz-adv-x="588" 
d="M62 38q67 4 108.5 31t84.5 96l36 58l-173 463l46 11l157 -429l255 422h54l-338 -547q-50 -81 -105 -115.5t-125 -36.5v47zM503 766h-70l13 79h70zM336 766h-69l13 79h69z" />
    <glyph glyph-name="uni04F1" unicode="&#x4f1;" horiz-adv-x="445" 
d="M450 470l-277 -548q-28 -55 -56.5 -77.5t-70.5 -22.5q-12 0 -26 2v41q14 -2 28 -2q29 0 48.5 16.5t40.5 56.5l33 63l-102 466l45 10l86 -419l201 414h50zM398 561h-70l13 79h70zM231 561h-69l13 79h69z" />
    <glyph glyph-name="uni04F2" unicode="&#x4f2;" horiz-adv-x="588" 
d="M62 38q67 4 108.5 31t84.5 96l36 58l-173 463l46 11l157 -429l255 422h54l-338 -547q-50 -81 -105 -115.5t-125 -36.5v47zM473 896l-161 -140h-35l131 157zM634 896l-160 -140h-35l130 157z" />
    <glyph glyph-name="uni04F3" unicode="&#x4f3;" horiz-adv-x="445" 
d="M450 470l-277 -548q-28 -55 -56.5 -77.5t-70.5 -22.5q-12 0 -26 2v41q14 -2 28 -2q29 0 48.5 16.5t40.5 56.5l33 63l-102 466l45 10l86 -419l201 414h50zM528 691l-160 -140h-35l130 157zM367 691l-161 -140h-35l131 157z" />
    <glyph glyph-name="uni04F4" unicode="&#x4f4;" horiz-adv-x="576" 
d="M443 0h-47l44 278q-82 -15 -134 -15q-199 0 -199 171q0 32 7 78l29 178h47l-29 -179q-7 -45 -7 -75q0 -131 155 -131q65 0 138 16l59 369h47zM479 766h-70l13 79h70zM312 766h-69l13 79h69z" />
    <glyph glyph-name="uni04F5" unicode="&#x4f5;" horiz-adv-x="458" 
d="M95 470h46l-19 -119q-5 -30 -5 -52q0 -86 116 -86q48 0 97 13l39 244h46l-75 -470h-46l29 183q-49 -13 -99 -13q-74 0 -114 32.5t-40 94.5q0 22 6 55zM386 561h-70l13 79h70zM219 561h-69l13 79h69z" />
    <glyph glyph-name="uni04F8" unicode="&#x4f8;" horiz-adv-x="720" 
d="M693 690l-110 -690h-47l110 690h47zM215 690l-48 -300h89q93 0 144 -45.5t51 -126.5q0 -98 -70.5 -158t-182.5 -60h-140l110 690h47zM403 216q0 132 -153 132h-90l-49 -306h88q93 0 148.5 47.5t55.5 126.5zM560 766h-70l13 79h70zM393 766h-69l13 79h69z" />
    <glyph glyph-name="uni04F9" unicode="&#x4f9;" horiz-adv-x="611" 
d="M45 16l72 454h46l-29 -181q43 9 78 9q75 0 117.5 -34t42.5 -97q0 -78 -58.5 -127.5t-148.5 -49.5q-65 0 -120 26zM325 164q0 44 -29.5 69.5t-86.5 25.5q-41 0 -81 -10l-33 -208q31 -12 73 -12q69 0 113 38.5t44 96.5zM564 470l-76 -470h-46l76 470h46zM475 561h-70l13 79
h70zM308 561h-69l13 79h69z" />
    <glyph glyph-name="baht" unicode="&#xe3f;" horiz-adv-x="540" 
d="M162 676h171q95 0 142 -54l81 112l38 -9l-98 -136q13 -31 13 -64q0 -61 -37.5 -103.5t-98.5 -64.5q117 -46 117 -151q0 -94 -64 -150t-166 -56h-177l-90 -127l-38 8l103 143zM442 205q0 59 -45 94.5t-121 35.5h-124l-46 -295h157q81 0 130 46t49 119zM461 523
q0 55 -36 84t-95 29h-130l-41 -262h126q74 0 125 43t51 106z" />
    <glyph glyph-name="Wgrave" unicode="&#x1e80;" horiz-adv-x="985" 
d="M1009 690l-315 -690h-35l-107 618l-301 -618h-35l-95 686l48 11l79 -616l292 609h46l102 -609l271 609h50zM588 752h-33l-116 140l70 15z" />
    <glyph glyph-name="wgrave" unicode="&#x1e81;" horiz-adv-x="681" 
d="M686 470l-232 -475h-33l-55 399l-178 -399h-34l-82 473l43 10l66 -412l180 407h36l53 -407l189 404h47zM406 552h-33l-116 140l70 15z" />
    <glyph glyph-name="Wacute" unicode="&#x1e82;" horiz-adv-x="985" 
d="M1009 690l-315 -690h-35l-107 618l-301 -618h-35l-95 686l48 11l79 -616l292 609h46l102 -609l271 609h50zM749 892l-160 -140h-40l131 155z" />
    <glyph glyph-name="wacute" unicode="&#x1e83;" horiz-adv-x="681" 
d="M686 470l-232 -475h-33l-55 399l-178 -399h-34l-82 473l43 10l66 -412l180 407h36l53 -407l189 404h47zM567 692l-160 -140h-40l131 155z" />
    <glyph glyph-name="Wdieresis" unicode="&#x1e84;" horiz-adv-x="985" 
d="M1009 690l-315 -690h-35l-107 618l-301 -618h-35l-95 686l48 11l79 -616l292 609h46l102 -609l271 609h50zM694 766h-70l13 79h70zM527 766h-69l13 79h69z" />
    <glyph glyph-name="wdieresis" unicode="&#x1e85;" horiz-adv-x="681" 
d="M686 470l-232 -475h-33l-55 399l-178 -399h-34l-82 473l43 10l66 -412l180 407h36l53 -407l189 404h47zM512 566h-70l13 79h70zM345 566h-69l13 79h69z" />
    <glyph glyph-name="Ygrave" unicode="&#x1ef2;" horiz-adv-x="576" 
d="M617 690l-294 -393l-47 -297h-47l47 296l-169 391l47 10l151 -361l258 354h54zM384 752h-33l-116 140l70 15z" />
    <glyph glyph-name="ygrave" unicode="&#x1ef3;" horiz-adv-x="445" 
d="M450 470l-277 -548q-28 -55 -56.5 -77.5t-70.5 -22.5q-12 0 -26 2v41q14 -2 28 -2q29 0 48.5 16.5t40.5 56.5l33 63l-102 466l45 10l86 -419l201 414h50zM292 547h-33l-116 140l70 15z" />
    <glyph glyph-name="enspace" unicode="&#x2002;" horiz-adv-x="500" 
 />
    <glyph glyph-name="emspace" unicode="&#x2003;" horiz-adv-x="1000" 
 />
    <glyph glyph-name="threeperemspace" unicode="&#x2004;" horiz-adv-x="333" 
 />
    <glyph glyph-name="fourperemspace" unicode="&#x2005;" horiz-adv-x="250" 
 />
    <glyph glyph-name="figurespace" unicode="&#x2007;" horiz-adv-x="540" 
 />
    <glyph glyph-name="thinspace" unicode="&#x2009;" horiz-adv-x="133" 
 />
    <glyph glyph-name="hairspace" unicode="&#x200a;" horiz-adv-x="75" 
 />
    <glyph glyph-name="endash" unicode="&#x2013;" horiz-adv-x="457" 
d="M399 259h-333l7 47h333z" />
    <glyph glyph-name="emdash" unicode="&#x2014;" horiz-adv-x="915" 
d="M856 259h-790l7 47h791z" />
    <glyph glyph-name="quoteleft" unicode="&#x2018;" horiz-adv-x="203" 
d="M91 480l108 214l24 -6l-71 -208h-61z" />
    <glyph glyph-name="quoteright" unicode="&#x2019;" horiz-adv-x="203" 
d="M223 690l-108 -214l-24 6l71 208h61z" />
    <glyph glyph-name="quotesinglbase" unicode="&#x201a;" horiz-adv-x="203" 
d="M119 81l-108 -214l-24 6l71 208h61z" />
    <glyph glyph-name="quotedblleft" unicode="&#x201c;" horiz-adv-x="355" 
d="M91 480l108 214l24 -6l-71 -208h-61zM243 480l108 214l24 -6l-71 -208h-61z" />
    <glyph glyph-name="quotedblright" unicode="&#x201d;" horiz-adv-x="355" 
d="M223 690l-108 -214l-24 6l71 208h61zM375 690l-108 -214l-24 6l71 208h61z" />
    <glyph glyph-name="quotedblbase" unicode="&#x201e;" horiz-adv-x="355" 
d="M119 81l-108 -214l-24 6l71 208h61zM271 81l-108 -214l-24 6l71 208h61z" />
    <glyph glyph-name="dagger" unicode="&#x2020;" horiz-adv-x="498" 
d="M322 568l-30 -97h-13v91l20 128h42zM472 426h-67l-99 16l1 11l105 16h67zM256 442l-103 -16h-67l6 43h67l99 -16zM229 -15l-31 -102h-10v102l56 350l28 90h13v-90z" />
    <glyph glyph-name="daggerdbl" unicode="&#x2021;" horiz-adv-x="516" 
d="M332 568l-30 -97h-13v92l20 127h42zM481 426h-67l-98 16l2 11l104 16h67zM266 442l-104 -16h-67l7 43h67l99 -16zM268 168l-28 -89h-13v84l26 172l29 90h13v-85zM419 34h-67l-99 16l2 11l105 16h66zM204 50l-104 -16h-67l7 43h67l99 -16zM212 -187h-42l19 122l31 97h12
v-91z" />
    <glyph glyph-name="bullet" unicode="&#x2022;" horiz-adv-x="390" 
d="M316 350l-15 -97l-89 -17l-88 17l-15 97l15 97l88 16l89 -16z" />
    <glyph glyph-name="ellipsis" unicode="&#x2026;" horiz-adv-x="666" 
d="M548 0h-60l13 81h60zM326 0h-61l13 81h61zM103 0h-60l13 81h60z" />
    <glyph glyph-name="guilsinglleft" unicode="&#x2039;" horiz-adv-x="304" 
d="M283 470l-182 -239l106 -227l-34 -9l-130 241l201 234h39z" />
    <glyph glyph-name="guilsinglright" unicode="&#x203a;" horiz-adv-x="304" 
d="M21 0l182 239l-106 227l34 9l130 -241l-201 -234h-39z" />
    <glyph glyph-name="fraction" unicode="&#x2044;" horiz-adv-x="270" 
d="M165 331l-261 -339l-34 9l272 350l261 339l33 -10z" />
    <glyph glyph-name="zero.sup" unicode="&#x2070;" 
d="M213 434q27 0 49 22q29 29 45.5 82t16.5 107q0 108 -67 108q-27 0 -49 -22q-29 -29 -45.5 -82t-16.5 -107q0 -108 67 -108zM210 401q-50 0 -77 38t-27 102q0 62 19.5 119.5t52.5 90.5q35 35 82 35q50 0 77 -38t27 -102q0 -62 -19.5 -119.5t-52.5 -90.5q-35 -35 -82 -35z
" />
    <glyph glyph-name="four.sup" unicode="&#x2074;" 
d="M347 495h-55l-13 -86h-37l14 86h-171l4 25l203 259h45l-40 -252h55zM260 527l23 145l11 63h-1l-46 -60l-86 -108l-32 -39l1 -1h130z" />
    <glyph glyph-name="five.sup" unicode="&#x2075;" 
d="M341 520q0 -51 -37 -83.5t-95 -32.5q-61 0 -120 34l16 32q54 -33 106 -33q38 0 63.5 22.5t25.5 57.5q0 41 -38 64.5t-123 34.5l40 160h189v-35h-162l-24 -98q159 -25 159 -123z" />
    <glyph glyph-name="six.sup" unicode="&#x2076;" 
d="M341 752q-74 -16 -121.5 -56t-63.5 -97q57 34 104 34q44 0 70 -26.5t26 -72.5q0 -59 -37 -96t-88 -37q-53 0 -85.5 39t-32.5 99q0 98 61.5 162.5t166.5 86.5v-36zM250 600q-48 0 -100 -32q-1 -9 -1 -27q0 -47 24 -78t60 -31t60 28.5t24 68.5q0 33 -17.5 52t-49.5 19z" />
    <glyph glyph-name="seven.sup" unicode="&#x2077;" 
d="M369 745l-210 -339l-35 8l201 325h-181v37h230z" />
    <glyph glyph-name="eight.sup" unicode="&#x2078;" 
d="M101 498q0 74 87 109q-49 31 -49 83q0 40 32 68t81 28q51 0 79 -26.5t28 -64.5q0 -66 -80 -103q58 -36 58 -85q0 -44 -34.5 -75t-85.5 -31q-55 0 -85.5 28t-30.5 69zM299 504q0 9 -2.5 17.5t-5 14.5t-9.5 12.5t-10.5 10t-14 10t-14.5 8.5t-16.5 8t-15.5 8
q-74 -33 -74 -94q0 -29 22.5 -48.5t58.5 -19.5q35 0 58 20.5t23 52.5zM178 691q0 -31 19 -49t57 -37q69 35 69 86q0 29 -19.5 47t-52.5 18t-53 -19t-20 -46z" />
    <glyph glyph-name="nine.sup" unicode="&#x2079;" 
d="M127 438q147 31 183 142q-55 -31 -102 -31q-44 0 -70 27t-26 74q0 61 36.5 98.5t88.5 37.5q53 0 85.5 -39t32.5 -99q0 -97 -61 -160.5t-167 -85.5v36zM218 581q47 0 99 32q2 10 2 33q0 47 -24 78t-60 31t-60 -29t-24 -71q0 -34 17.5 -54t49.5 -20z" />
    <glyph glyph-name="zero.inf" unicode="&#x2080;" 
d="M133 -127q27 0 49 22q29 29 45.5 82t16.5 107q0 108 -67 108q-27 0 -49 -22q-29 -29 -45.5 -82t-16.5 -107q0 -108 67 -108zM130 -160q-50 0 -77 38t-27 102q0 62 19.5 119.5t52.5 90.5q35 35 82 35q50 0 77 -38t27 -102q0 -62 -19.5 -119.5t-52.5 -90.5q-35 -35 -82 -35
z" />
    <glyph glyph-name="one.inf" unicode="&#x2081;" 
d="M244 -150h-211l6 34h87l48 297l-97 -38l6 38l108 45h27l-54 -342h80v-34z" />
    <glyph glyph-name="two.inf" unicode="&#x2082;" 
d="M252 -150h-241l4 29l164 146q63 57 63 104q0 26 -19 43.5t-52 17.5q-46 0 -98 -34v37q52 31 103 31q49 0 78 -26.5t29 -65.5q0 -36 -19.5 -65t-64.5 -68l-130 -113h183v-36z" />
    <glyph glyph-name="three.inf" unicode="&#x2083;" 
d="M251 -47q0 -51 -36.5 -81.5t-92.5 -30.5q-59 0 -114 35l16 33q50 -34 99 -34q38 0 62.5 21t24.5 54q0 37 -28 56.5t-79 19.5h-8v33h29q48 0 78 20.5t30 55.5q0 27 -19 41t-50 14q-50 0 -100 -34v38q47 30 104 30q46 0 76.5 -22.5t30.5 -62.5q0 -76 -95 -100
q72 -22 72 -86z" />
    <glyph glyph-name="four.inf" unicode="&#x2084;" 
d="M267 -66h-55l-13 -86h-37l14 86h-171l4 25l203 259h45l-40 -252h55zM180 -34l23 145l11 63h-1l-46 -60l-86 -108l-32 -39l1 -1h130z" />
    <glyph glyph-name="five.inf" unicode="&#x2085;" 
d="M261 -41q0 -51 -37 -83.5t-95 -32.5q-61 0 -120 34l16 32q54 -33 106 -33q38 0 63.5 22.5t25.5 57.5q0 41 -38 64.5t-123 34.5l40 160h189v-35h-162l-24 -98q159 -25 159 -123z" />
    <glyph glyph-name="six.inf" unicode="&#x2086;" 
d="M261 191q-74 -16 -121.5 -56t-63.5 -97q57 34 104 34q44 0 70 -26.5t26 -72.5q0 -59 -37 -96t-88 -37q-53 0 -85.5 39t-32.5 99q0 98 61.5 162.5t166.5 86.5v-36zM170 39q-48 0 -100 -32q-1 -8 -1 -27q0 -47 24 -78t60 -31t60 28.5t24 68.5q0 33 -17.5 52t-49.5 19z" />
    <glyph glyph-name="seven.inf" unicode="&#x2087;" 
d="M289 184l-210 -339l-35 8l201 325h-181v37h230z" />
    <glyph glyph-name="eight.inf" unicode="&#x2088;" 
d="M21 -63q0 75 87 109q-49 31 -49 83q0 40 32 68t81 28q51 0 79 -26.5t28 -64.5q0 -66 -80 -103q28 -17 43 -36t15 -49q0 -44 -34.5 -75t-85.5 -31q-55 0 -85.5 28t-30.5 69zM219 -57q0 9 -2.5 17.5t-5 14.5t-9.5 12.5t-10.5 10t-14 10t-14.5 8.5t-16.5 8t-15.5 8
q-74 -33 -74 -94q0 -29 22.5 -48.5t58.5 -19.5q35 0 58 20.5t23 52.5zM98 130q0 -31 19 -49t57 -37q69 34 69 86q0 29 -19.5 47t-52.5 18t-53 -19t-20 -46z" />
    <glyph glyph-name="nine.inf" unicode="&#x2089;" 
d="M47 -123q147 32 183 142q-55 -31 -102 -31q-44 0 -70 27t-26 74q0 61 36.5 98.5t88.5 37.5q53 0 85.5 -39t32.5 -99q0 -97 -61 -160.5t-167 -85.5v36zM138 20q47 0 99 32q2 10 2 33q0 47 -24 78t-60 31t-60 -29t-24 -71q0 -34 17.5 -54t49.5 -20z" />
    <glyph glyph-name="colonmonetary" unicode="&#x20a1;" horiz-adv-x="540" 
d="M443 746l-22 -66q53 -6 107 -36l34 103l36 -11l-229 -696q59 11 122 52v-46q-65 -41 -137 -49l-37 -114l-36 11l33 100q-64 2 -111 23l-41 -124l-36 11l43 131q-112 75 -112 247q0 103 38 193t113.5 148.5t173.5 59.5l25 74zM106 284q0 -140 78 -204l185 562
q-82 -5 -143.5 -59t-90.5 -132.5t-29 -166.5zM317 36h11l187 567q-53 31 -107 38l-191 -583q46 -22 100 -22z" />
    <glyph glyph-name="naira" unicode="&#x20a6;" horiz-adv-x="691" 
d="M673 241h-94l-38 -241h-40l-111 241h-240l-37 -241h-43l38 241h-89v38h95l21 128h-96l6 38h96l37 231h53l106 -231h233l36 231h43l-37 -231h87v-38h-93l-21 -128h94zM176 407l-20 -128h217l-59 128h-138zM354 407l59 -128h131l20 128h-210zM211 631l-29 -186h114z
M431 241l80 -174l27 174h-107z" />
    <glyph glyph-name="rupee" unicode="&#x20a8;" horiz-adv-x="1080" 
d="M364 287l171 -283l-49 -11l-171 285h-178l-44 -278h-47l109 676h169q112 0 170.5 -46t58.5 -131q0 -76 -52.5 -135.5t-136.5 -76.5zM506 496q0 138 -187 138h-125l-50 -315h152q94 0 152 51t58 126zM1006 126q0 -60 -49.5 -98t-135.5 -38q-54 0 -112 15.5t-99 38.5l15 46
q89 -59 199 -59q59 0 97.5 25t38.5 64q0 37 -30.5 57.5t-112.5 42.5q-84 21 -121 49.5t-37 77.5q0 57 48.5 90t123.5 33q97 0 182 -41l-10 -48q-38 22 -88.5 34t-84.5 12q-60 0 -92.5 -21t-32.5 -54q0 -37 29 -55.5t110 -39.5q86 -22 124 -51t38 -80z" />
    <glyph glyph-name="won" unicode="&#x20a9;" horiz-adv-x="989" 
d="M967 241h-157l-108 -241h-51l-37 241h-239l-112 -241h-55l-31 241h-159v38h154l-17 128h-113l6 38h102l-29 227l48 11l30 -238h224l107 231h62l35 -231h225l103 231h50l-104 -231h96v-38h-113l-57 -128h146zM452 407l-60 -128h216l-20 128h-136zM632 407l20 -128h127
l56 128h-203zM204 407l17 -128h125l59 128h-201zM554 627l-85 -182h113zM657 241l27 -176l78 176h-105zM226 241l22 -176l81 176h-103z" />
    <glyph glyph-name="sheqel" unicode="&#x20aa;" horiz-adv-x="540" 
d="M453 0h-147q-70 0 -96 27.5t-26 98.5v210h42v-198q0 -59 16.5 -78.5t60.5 -19.5h114l73 454l39 -10zM344 164h-41l31 200q8 47 -8.5 67t-64.5 20h-138l-71 -451h-41l78 491h171q73 0 99 -31t16 -96z" />
    <glyph glyph-name="Euro" unicode="&#x20ac;" horiz-adv-x="586" 
d="M433 284l-6 -38h-253q7 -106 55 -163t125 -57q73 0 157 54v-42q-80 -51 -161 -51q-94 0 -153.5 68t-66.5 191h-92v38h92q1 67 20 132h-91l6 38h97q39 104 112 169.5t159 65.5q95 0 161 -57l-8 -45q-38 33 -73 48t-82 15q-70 0 -129.5 -54.5t-93.5 -141.5h246v-38h-259
q-19 -64 -21 -132h259z" />
    <glyph glyph-name="peso" unicode="&#x20b1;" horiz-adv-x="495" 
d="M572 492l-7 -38h-58q-14 -82 -81 -135t-163 -53h-96l-42 -266h-47l72 454h-78v38h84l29 184h125q94 0 146.5 -49t53.5 -135h62zM270 308q77 0 127.5 42.5t62.5 103.5h-263l-23 -146h96zM226 635l-23 -143h260q-2 67 -42.5 105t-115.5 38h-79z" />
    <glyph glyph-name="hryvnia" unicode="&#x20b4;" horiz-adv-x="549" 
d="M71 423l7 37l292 -35l1 1q57 45 82.5 77t25.5 68t-29.5 57.5t-87.5 21.5q-86 0 -205 -63v42q116 59 207 59q76 0 117 -31.5t41 -81.5q0 -42 -26 -78.5t-77 -77.5l120 -14v-38l-162 19l-133 -101l267 -32l-7 -37l-302 36q-95 -73 -95 -144q0 -82 120 -82q91 0 213 67v-43
q-126 -62 -215 -62q-74 0 -117.5 29.5t-43.5 86.5q0 79 90 154l-110 14v37l151 -18l133 101z" />
    <glyph glyph-name="numero" unicode="&#x2116;" horiz-adv-x="1035" 
d="M589 690l-110 -690h-32l-248 608l-96 -608h-45l110 690h46l237 -591l93 591h45zM915 0h-302l6 37h302zM982 361q0 -91 -54 -158.5t-134 -67.5q-67 0 -106.5 46.5t-39.5 123.5q0 91 54 158.5t134 67.5q67 0 106.5 -46.5t39.5 -123.5zM940 359q0 62 -28.5 98.5t-76.5 36.5
q-62 0 -103.5 -57t-41.5 -130q0 -62 28.5 -98.5t76.5 -36.5q62 0 103.5 57t41.5 130z" />
    <glyph glyph-name="published" unicode="&#x2117;" horiz-adv-x="811" 
d="M766 345q0 -158 -94 -258t-249 -100t-250 100.5t-95 257.5q0 158 94.5 258t248.5 100q155 0 250 -100t95 -258zM739 345q0 148 -87 241t-231 93t-229.5 -93t-85.5 -241t86.5 -241t231.5 -93q144 0 229.5 93t85.5 241zM558 428q0 -56 -39 -87.5t-99 -31.5h-53v-159h-41
v393h101q58 0 94.5 -31t36.5 -84zM516 426q0 38 -24.5 58.5t-66.5 20.5h-58v-159h54q44 0 69.5 20.5t25.5 59.5z" />
    <glyph glyph-name="servicemark" unicode="&#x2120;" horiz-adv-x="802" 
d="M775 345h-37l-21 286l-114 -287h-31l-112 286l-22 -285h-35l26 345h44l116 -304l116 304h43zM213 340q-47 0 -93 23l4 36q46 -27 91 -27q31 0 52.5 16.5t21.5 45.5q0 25 -16 41.5t-52 31.5q-54 24 -75 44.5t-21 56.5q0 37 29 62t70 25q46 0 83 -20l-6 -34q-39 22 -78 22
q-28 0 -46 -15t-18 -38t16 -37.5t58 -32.5q48 -21 69.5 -44t21.5 -60q0 -44 -32.5 -70t-78.5 -26z" />
    <glyph glyph-name="trademark" unicode="&#x2122;" horiz-adv-x="802" 
d="M775 345h-37l-21 286l-114 -287h-31l-112 286l-22 -285h-35l26 345h44l116 -304l116 304h43zM343 656h-110v-311h-37v311h-107v34h249z" />
    <glyph glyph-name="onethird" unicode="&#x2153;" horiz-adv-x="810" 
d="M722 103q0 -51 -36.5 -81.5t-92.5 -30.5q-59 0 -114 35l16 33q50 -34 99 -34q38 0 62.5 21t24.5 54q0 37 -28 56.5t-79 19.5h-8v33h29q48 0 78 20.5t30 55.5q0 27 -19 41t-50 14q-50 0 -100 -34v38q47 30 104 30q46 0 76.5 -22.5t30.5 -62.5q0 -76 -95 -100
q72 -22 72 -86zM435 331l-261 -339l-34 9l272 350l261 339l33 -10zM315 311h-211l6 34h87l48 297l-97 -38l6 38l108 45h27l-54 -342h80v-34z" />
    <glyph glyph-name="twothirds" unicode="&#x2154;" horiz-adv-x="810" 
d="M722 103q0 -51 -36.5 -81.5t-92.5 -30.5q-59 0 -114 35l16 33q50 -34 99 -34q38 0 62.5 21t24.5 54q0 37 -28 56.5t-79 19.5h-8v33h29q48 0 78 20.5t30 55.5q0 27 -19 41t-50 14q-50 0 -100 -34v38q47 30 104 30q46 0 76.5 -22.5t30.5 -62.5q0 -76 -95 -100
q72 -22 72 -86zM323 311h-241l4 29l164 146q63 57 63 104q0 26 -19 43.5t-52 17.5q-46 0 -98 -34v37q52 31 103 31q49 0 78 -26.5t29 -65.5q0 -36 -19.5 -65t-64.5 -68l-130 -113h183v-36zM440 331l-261 -339l-34 9l272 350l261 339l33 -10z" />
    <glyph glyph-name="onefifth" unicode="&#x2155;" horiz-adv-x="810" 
d="M445 331l-261 -339l-34 9l272 350l261 339l33 -10zM315 311h-211l6 34h87l48 297l-97 -38l6 38l108 45h27l-54 -342h80v-34zM731 109q0 -51 -37 -83.5t-95 -32.5q-61 0 -120 34l16 32q54 -33 106 -33q38 0 63.5 22.5t25.5 57.5q0 41 -38 64.5t-123 34.5l40 160h189v-35
h-162l-24 -98q159 -25 159 -123z" />
    <glyph glyph-name="twofifths" unicode="&#x2156;" horiz-adv-x="810" 
d="M445 331l-261 -339l-34 9l272 350l261 339l33 -10zM323 311h-241l4 29l164 146q63 57 63 104q0 26 -19 43.5t-52 17.5q-46 0 -98 -34v37q52 31 103 31q49 0 78 -26.5t29 -65.5q0 -36 -19.5 -65t-64.5 -68l-130 -113h183v-36zM731 109q0 -51 -37 -83.5t-95 -32.5
q-61 0 -120 34l16 32q54 -33 106 -33q38 0 63.5 22.5t25.5 57.5q0 41 -38 64.5t-123 34.5l40 160h189v-35h-162l-24 -98q159 -25 159 -123z" />
    <glyph glyph-name="threefifths" unicode="&#x2157;" horiz-adv-x="810" 
d="M322 414q0 -51 -36.5 -81.5t-92.5 -30.5q-59 0 -114 35l16 33q50 -34 99 -34q38 0 62.5 21t24.5 54q0 37 -28 56.5t-79 19.5h-8v33h29q48 0 78 20.5t30 55.5q0 27 -19 41t-50 14q-50 0 -100 -34v38q47 30 104 30q46 0 76.5 -22.5t30.5 -62.5q0 -76 -95 -100
q72 -22 72 -86zM731 109q0 -51 -37 -83.5t-95 -32.5q-61 0 -120 34l16 32q54 -33 106 -33q38 0 63.5 22.5t25.5 57.5q0 41 -38 64.5t-123 34.5l40 160h189v-35h-162l-24 -98q159 -25 159 -123zM445 331l-261 -339l-34 9l272 350l261 339l33 -10z" />
    <glyph glyph-name="fourfifths" unicode="&#x2158;" horiz-adv-x="810" 
d="M338 395h-55l-13 -86h-37l14 86h-171l4 25l203 259h45l-40 -252h55zM731 109q0 -51 -37 -83.5t-95 -32.5q-61 0 -120 34l16 32q54 -33 106 -33q38 0 63.5 22.5t25.5 57.5q0 41 -38 64.5t-123 34.5l40 160h189v-35h-162l-24 -98q159 -25 159 -123zM445 331l-261 -339
l-34 9l272 350l261 339l33 -10zM251 427l23 145l11 63h-1l-46 -60l-86 -108l-32 -39l1 -1h130z" />
    <glyph glyph-name="onesixth" unicode="&#x2159;" horiz-adv-x="810" 
d="M731 341q-74 -16 -121.5 -56t-63.5 -97q57 34 104 34q44 0 70 -26.5t26 -72.5q0 -59 -37 -96t-88 -37q-53 0 -85.5 39t-32.5 99q0 98 61.5 162.5t166.5 86.5v-36zM465 331l-261 -339l-34 9l272 350l261 339l33 -10zM315 311h-211l6 34h87l48 297l-97 -38l6 38l108 45h27
l-54 -342h80v-34zM640 189q-48 0 -100 -32q-1 -9 -1 -27q0 -47 24 -78t60 -31t60 28.5t24 68.5q0 33 -17.5 52t-49.5 19z" />
    <glyph glyph-name="fivesixths" unicode="&#x215a;" horiz-adv-x="810" 
d="M731 341q-74 -16 -121.5 -56t-63.5 -97q57 34 104 34q44 0 70 -26.5t26 -72.5q0 -59 -37 -96t-88 -37q-53 0 -85.5 39t-32.5 99q0 98 61.5 162.5t166.5 86.5v-36zM332 420q0 -51 -37 -83.5t-95 -32.5q-61 0 -120 34l16 32q54 -33 106 -33q38 0 63.5 22.5t25.5 57.5
q0 41 -38 64.5t-123 34.5l40 160h189v-35h-162l-24 -98q159 -25 159 -123zM465 331l-261 -339l-34 9l272 350l261 339l33 -10zM640 189q-48 0 -100 -32q-1 -9 -1 -27q0 -47 24 -78t60 -31t60 28.5t24 68.5q0 33 -17.5 52t-49.5 19z" />
    <glyph glyph-name="oneeighth" unicode="&#x215b;" horiz-adv-x="810" 
d="M492 87q0 75 87 109q-49 31 -49 83q0 40 32 68t81 28q51 0 79 -26.5t28 -64.5q0 -66 -80 -103q58 -36 58 -85q0 -44 -34.5 -75t-85.5 -31q-55 0 -85.5 28t-30.5 69zM445 331l-261 -339l-34 9l272 350l261 339l33 -10zM315 311h-211l6 34h87l48 297l-97 -38l6 38l108 45
h27l-54 -342h80v-34zM690 93q0 9 -2.5 17.5t-5 14.5t-9.5 12.5t-10.5 10t-14 10t-14.5 8.5t-16.5 8t-15.5 8q-74 -33 -74 -94q0 -29 22.5 -48.5t58.5 -19.5q35 0 58 20.5t23 52.5zM569 280q0 -31 19 -49t57 -37q69 34 69 86q0 29 -19.5 47t-52.5 18t-53 -19t-20 -46z" />
    <glyph glyph-name="threeeighths" unicode="&#x215c;" horiz-adv-x="810" 
d="M492 87q0 75 87 109q-49 31 -49 83q0 40 32 68t81 28q51 0 79 -26.5t28 -64.5q0 -66 -80 -103q58 -36 58 -85q0 -44 -34.5 -75t-85.5 -31q-55 0 -85.5 28t-30.5 69zM322 414q0 -51 -36.5 -81.5t-92.5 -30.5q-59 0 -114 35l16 33q50 -34 99 -34q38 0 62.5 21t24.5 54
q0 37 -28 56.5t-79 19.5h-8v33h29q48 0 78 20.5t30 55.5q0 27 -19 41t-50 14q-50 0 -100 -34v38q47 30 104 30q46 0 76.5 -22.5t30.5 -62.5q0 -76 -95 -100q72 -22 72 -86zM435 331l-261 -339l-34 9l272 350l261 339l33 -10zM690 93q0 9 -2.5 17.5t-5 14.5t-9.5 12.5
t-10.5 10t-14 10t-14.5 8.5t-16.5 8t-15.5 8q-74 -33 -74 -94q0 -29 22.5 -48.5t58.5 -19.5q35 0 58 20.5t23 52.5zM569 280q0 -31 19 -49t57 -37q69 34 69 86q0 29 -19.5 47t-52.5 18t-53 -19t-20 -46z" />
    <glyph glyph-name="fiveeighths" unicode="&#x215d;" horiz-adv-x="810" 
d="M492 87q0 75 87 109q-49 31 -49 83q0 40 32 68t81 28q51 0 79 -26.5t28 -64.5q0 -66 -80 -103q58 -36 58 -85q0 -44 -34.5 -75t-85.5 -31q-55 0 -85.5 28t-30.5 69zM332 420q0 -51 -37 -83.5t-95 -32.5q-61 0 -120 34l16 32q54 -33 106 -33q38 0 63.5 22.5t25.5 57.5
q0 41 -38 64.5t-123 34.5l40 160h189v-35h-162l-24 -98q159 -25 159 -123zM435 331l-261 -339l-34 9l272 350l261 339l33 -10zM690 93q0 9 -2.5 17.5t-5 14.5t-9.5 12.5t-10.5 10t-14 10t-14.5 8.5t-16.5 8t-15.5 8q-74 -33 -74 -94q0 -29 22.5 -48.5t58.5 -19.5
q35 0 58 20.5t23 52.5zM569 280q0 -31 19 -49t57 -37q69 34 69 86q0 29 -19.5 47t-52.5 18t-53 -19t-20 -46z" />
    <glyph glyph-name="seveneighths" unicode="&#x215e;" horiz-adv-x="810" 
d="M492 87q0 75 87 109q-49 31 -49 83q0 40 32 68t81 28q51 0 79 -26.5t28 -64.5q0 -66 -80 -103q58 -36 58 -85q0 -44 -34.5 -75t-85.5 -31q-55 0 -85.5 28t-30.5 69zM395 331l-261 -339l-34 9l272 350l261 339l33 -10zM360 645l-210 -339l-35 8l201 325h-181v37h230z
M690 93q0 9 -2.5 17.5t-5 14.5t-9.5 12.5t-10.5 10t-14 10t-14.5 8.5t-16.5 8t-15.5 8q-74 -33 -74 -94q0 -29 22.5 -48.5t58.5 -19.5q35 0 58 20.5t23 52.5zM569 280q0 -31 19 -49t57 -37q69 34 69 86q0 29 -19.5 47t-52.5 18t-53 -19t-20 -46z" />
    <glyph glyph-name="minus" unicode="&#x2212;" horiz-adv-x="568" 
d="M522 317h-448l6 42h448z" />
    <glyph glyph-name="M.alt" horiz-adv-x="849" 
d="M716 0h-47l96 602l-365 -605h-29l-172 605l-96 -602h-44l109 690h55l173 -628l374 628h55z" />
    <glyph glyph-name="Q.alt" horiz-adv-x="698" 
d="M326 -13q-117 0 -186.5 86.5t-69.5 217.5q0 96 34 179.5t94 143.5q89 89 209 89q117 0 186.5 -86.5t69.5 -217.5q0 -174 -106 -298l79 -69l-16 -46l-93 83q-88 -82 -201 -82zM328 30q91 0 165 69l-166 141l62 9l134 -119q90 108 90 269q0 116 -56.5 188.5t-151.5 72.5
q-97 0 -174 -77q-111 -111 -111 -292q0 -116 56.5 -188.5t151.5 -72.5z" />
    <glyph glyph-name="U.alt" horiz-adv-x="649" 
d="M625 690l-110 -690h-30v88q-120 -96 -231 -96q-80 0 -125.5 43t-45.5 123q0 29 4 52l76 480h47l-77 -482q-4 -30 -4 -42q0 -64 34 -98.5t94 -34.5q106 0 233 103l88 554h47z" />
    <glyph glyph-name="W.alt" horiz-adv-x="964" 
d="M501 697l124 -629l320 622h51l-365 -694h-34l-89 429l-221 -429h-34l-143 690l47 11l124 -629l214 421l-41 197z" />
    <glyph glyph-name="a.alt" horiz-adv-x="445" 
d="M338 322q10 62 -10.5 90.5t-74.5 28.5q-62 0 -147 -42v43q81 38 152 38q77 0 107.5 -40.5t18.5 -114.5l-33 -200v-125h-39l-4 90q-94 -99 -170 -99q-50 0 -82.5 30t-32.5 81q0 81 70 131.5t240 59.5zM141 30q67 0 166 103l20 124q-257 -13 -257 -152q0 -33 19 -54t52 -21
z" />
    <glyph glyph-name="g.alt" horiz-adv-x="467" 
d="M393 -48q0 -57 -61.5 -98t-146.5 -41q-92 0 -151 32.5t-59 85.5q0 41 29 73t99 66q-29 18 -31 49q-1 32 51 68q-59 43 -59 119q0 71 54.5 122.5t127.5 51.5q64 0 107 -40l121 37v-52l-101 -10q23 -34 23 -81q0 -71 -54 -122.5t-126 -51.5q-36 0 -62 11q-37 -26 -36 -43
q1 -15 19 -25t76 -26l36 -10q77 -22 110.5 -47.5t33.5 -67.5zM197 35q-40 11 -54 17q-121 -53 -121 -118q0 -37 44 -60t120 -23q69 0 114 30t45 66q0 27 -25.5 43.5t-90.5 35.5zM349 333q0 51 -27.5 80t-77.5 29q-58 0 -95.5 -41t-37.5 -94q0 -50 28.5 -79.5t77.5 -29.5
q58 0 95 41t37 94z" />
    <glyph glyph-name="a.sc" horiz-adv-x="505" 
d="M47 0h-48l272 511h50l110 -506l-43 -10l-37 171h-217zM288 458l-132 -251h186z" />
    <glyph glyph-name="b.sc" horiz-adv-x="463" 
d="M406 151q0 -68 -56 -109.5t-144 -41.5h-162l80 505h140q72 0 114 -29.5t42 -83.5q0 -48 -29.5 -80t-74.5 -47q90 -31 90 -114zM375 386q0 36 -29 57.5t-84 21.5h-98l-29 -181h103q61 0 99 28t38 74zM360 153q0 45 -36.5 69t-103.5 24h-90l-33 -205h114q68 0 108.5 30
t40.5 82z" />
    <glyph glyph-name="c.sc" horiz-adv-x="460" 
d="M385 30q-61 -38 -141 -38q-86 0 -140.5 57t-54.5 157q0 125 75.5 216.5t179.5 91.5q81 0 139 -44l-11 -49q-53 50 -132 50q-82 0 -142.5 -79t-60.5 -183q0 -82 41.5 -128t108.5 -46q70 0 138 43v-48z" />
    <glyph glyph-name="d.sc" horiz-adv-x="533" 
d="M484 294q0 -130 -91.5 -212t-229.5 -82h-119l80 505h127q109 0 171 -56.5t62 -154.5zM436 291q0 84 -49.5 128t-140.5 44h-82l-66 -421h70q115 0 191.5 69.5t76.5 179.5z" />
    <glyph glyph-name="e.sc" horiz-adv-x="428" 
d="M344 0h-300l80 505h292l-6 -42h-246l-28 -178h203v-42h-209l-32 -201h252z" />
    <glyph glyph-name="f.sc" horiz-adv-x="394" 
d="M392 463h-228l-29 -186h188v-41h-194l-38 -236h-47l80 505h274z" />
    <glyph glyph-name="g.sc" horiz-adv-x="511" 
d="M417 42q-85 -51 -164 -51q-92 0 -148 57t-56 157q0 126 76.5 217.5t184.5 91.5q88 0 147 -42l-12 -49q-61 48 -137 48q-87 0 -149 -77.5t-62 -185.5q0 -84 44 -129t114 -45q69 0 121 33l25 154h-135v42h186z" />
    <glyph glyph-name="h.sc" horiz-adv-x="544" 
d="M500 505l-80 -505h-47l39 243h-282l-39 -243h-47l80 505h47l-35 -220h282l35 220h47z" />
    <glyph glyph-name="i.sc" horiz-adv-x="227" 
d="M97 0h-47l80 505h47z" />
    <glyph glyph-name="j.sc" horiz-adv-x="288" 
d="M190 139q-12 -76 -49.5 -110t-102.5 -34q-17 0 -43 2v43q23 -3 45 -3q44 0 69.5 24.5t33.5 77.5l56 366h47z" />
    <glyph glyph-name="k.sc" horiz-adv-x="456" 
d="M132 261l-41 -261h-47l80 505h47l-37 -231l269 231h64l-282 -239l215 -261l-52 -10q-215 266 -216 266z" />
    <glyph glyph-name="l.sc" horiz-adv-x="365" 
d="M294 0h-250l80 505h47l-73 -463h196v-42z" />
    <glyph glyph-name="m.sc" horiz-adv-x="698" 
d="M590 0h-47l37 448l-251 -451h-40l-115 451l-103 -448h-45l120 505h59l112 -453l253 453h59z" />
    <glyph glyph-name="m.sc_alt" horiz-adv-x="678" 
d="M554 0h-42l70 440l-264 -442h-38l-123 441l-70 -439h-43l80 505h59l125 -454l268 454h58z" />
    <glyph glyph-name="n.sc" horiz-adv-x="544" 
d="M419 0h-35l-228 439l-68 -439h-44l80 505h47l219 -422l66 422h44z" />
    <glyph glyph-name="o.sc" horiz-adv-x="555" 
d="M506 293q0 -128 -74 -215t-179 -87q-96 0 -150 60.5t-54 161.5q0 128 73.5 214.5t178.5 86.5q96 0 150.5 -60t54.5 -161zM458 293q0 84 -42 131t-117 47q-85 0 -143.5 -73.5t-58.5 -184.5q0 -84 42.5 -131.5t115.5 -47.5q84 0 143.5 74t59.5 185z" />
    <glyph glyph-name="p.sc" horiz-adv-x="427" 
d="M401 368q0 -78 -54 -124t-148 -46h-76l-33 -198h-46l80 505h110q78 0 122.5 -35.5t44.5 -101.5zM354 365q0 47 -31.5 72.5t-91.5 25.5h-67l-35 -223h73q72 0 112 33.5t40 91.5z" />
    <glyph glyph-name="q.sc" horiz-adv-x="555" 
d="M506 297q0 -114 -57.5 -195.5t-151.5 -104.5l143 -58l-11 -46l-233 101q-72 32 -109.5 81.5t-37.5 137.5q0 128 73.5 214.5t178.5 86.5q96 0 150.5 -59.5t54.5 -157.5zM458 297q0 82 -42.5 128t-116.5 46q-85 0 -143.5 -73t-58.5 -185q0 -85 42.5 -132t115.5 -47
q84 0 143.5 74t59.5 189z" />
    <glyph glyph-name="q.sc_alt" horiz-adv-x="564" 
d="M487 35l-17 -45l-67 59q-66 -58 -150 -58q-96 0 -150 60.5t-54 161.5q0 128 73.5 214.5t178.5 86.5q96 0 150.5 -60t54.5 -161q0 -125 -73 -213zM458 293q0 85 -42.5 131.5t-116.5 46.5q-85 0 -143.5 -73t-58.5 -185q0 -85 42.5 -132t115.5 -47q63 0 115 44l-113 98
l58 10l85 -77q58 76 58 184z" />
    <glyph glyph-name="r.sc" horiz-adv-x="466" 
d="M124 214l-34 -214h-46l80 505h130q74 0 117 -35t43 -95q0 -63 -41.5 -104t-105.5 -53l131 -214l-50 -10l-131 220h-93zM367 373q0 43 -30 66.5t-87 23.5h-87l-33 -208h90q66 0 106.5 32t40.5 86z" />
    <glyph glyph-name="s.sc" horiz-adv-x="414" 
d="M355 140q0 -61 -50.5 -103.5t-127.5 -42.5q-92 0 -169 44l14 45q74 -47 161 -47q58 0 92 30.5t34 70.5q0 32 -23 54.5t-82 48.5q-68 30 -97.5 58.5t-29.5 76.5q0 58 49 97.5t115 39.5q71 0 141 -37l-16 -45q-62 40 -131 40q-47 0 -79.5 -27.5t-32.5 -64.5q0 -31 22 -51
t78 -45q73 -33 102.5 -63t29.5 -79z" />
    <glyph glyph-name="t.sc" horiz-adv-x="429" 
d="M450 463h-177l-74 -463h-47l74 463h-173l6 42h391v-42z" />
    <glyph glyph-name="u.sc" horiz-adv-x="528" 
d="M435 176q-14 -90 -65.5 -137t-133.5 -47q-76 0 -122 42.5t-46 120.5q0 19 6 55l46 295h47l-48 -302q-4 -30 -4 -45q0 -59 32.5 -92t91.5 -33q63 0 101 39.5t50 111.5l51 321h47z" />
    <glyph glyph-name="u.sc_alt" horiz-adv-x="536" 
d="M488 505l-80 -505h-34v60q-96 -66 -176 -66q-59 0 -96.5 33.5t-37.5 91.5q0 18 6 60l51 326h46l-51 -327q-5 -38 -5 -56q0 -39 25.5 -62.5t69.5 -23.5q78 0 172 71l63 398h47z" />
    <glyph glyph-name="v.sc" horiz-adv-x="497" 
d="M505 505l-279 -513h-40l-115 509l46 10l100 -459l238 453h50z" />
    <glyph glyph-name="w.sc" horiz-adv-x="751" 
d="M751 505l-229 -508h-44l-74 439l-214 -439h-44l-68 504l46 10l56 -452l216 448h40l72 -448l196 446h47z" />
    <glyph glyph-name="w.sc_alt" horiz-adv-x="737" 
d="M746 505l-266 -509h-41l-64 301l-159 -301h-41l-104 505l47 10l88 -458l156 304l-30 144l48 10l89 -458l226 452h51z" />
    <glyph glyph-name="x.sc" horiz-adv-x="480" 
d="M401 6l-46 -10l-118 234l-183 -230h-55l218 265l-123 235l46 10l106 -213l163 208h56l-199 -243z" />
    <glyph glyph-name="y.sc" horiz-adv-x="462" 
d="M472 505l-225 -294l-33 -211h-47l33 211l-131 290l46 10l114 -259l188 253h55z" />
    <glyph glyph-name="z.sc" horiz-adv-x="448" 
d="M363 0h-358l5 33l371 432h-276v40h339l-5 -33l-371 -432h295v-40z" />
    <glyph glyph-name="uni039C.alt" horiz-adv-x="849" 
d="M716 0h-47l96 602l-365 -605h-29l-172 605l-96 -602h-44l109 690h55l173 -628l374 628h55z" />
    <glyph glyph-name="uni0414.alt" horiz-adv-x="731" 
d="M3 42h43l365 652h52l158 -652h44l-30 -197l-46 -7l26 162h-574l-25 -159h-45zM430 640l-332 -598h474z" />
    <glyph glyph-name="uni041B.alt" horiz-adv-x="642" 
d="M416 694l152 -690l-45 -11l-137 635l-333 -628h-51l374 694h40z" />
    <glyph glyph-name="uni041B.bgr" horiz-adv-x="642" 
d="M416 694l152 -690l-45 -11l-137 635l-333 -628h-51l374 694h40z" />
    <glyph glyph-name="uni041C.alt" horiz-adv-x="849" 
d="M716 0h-47l96 602l-365 -605h-29l-172 605l-96 -602h-44l109 690h55l173 -628l374 628h55z" />
    <glyph glyph-name="uni0424.bgr" horiz-adv-x="798" 
d="M370 -99h-47l15 98q-125 10 -196.5 92.5t-71.5 209.5q0 170 111 281q108 108 266 111l16 96h47l-16 -98q124 -11 196.5 -94t72.5 -208q0 -170 -111 -281q-108 -108 -267 -111zM120 302q0 -113 60.5 -183t165.5 -79l96 611q-131 -5 -225 -99q-45 -45 -71 -110t-26 -140z
M713 388q0 111 -61 181.5t-166 80.5l-95 -611q129 3 225 99q45 45 71 110t26 140z" />
    <glyph glyph-name="uni0430.alt" horiz-adv-x="445" 
d="M338 322q10 62 -10.5 90.5t-74.5 28.5q-62 0 -147 -42v43q81 38 152 38q77 0 107.5 -40.5t18.5 -114.5l-33 -200v-125h-39l-4 90q-94 -99 -170 -99q-50 0 -82.5 30t-32.5 81q0 81 70 131.5t240 59.5zM141 30q67 0 166 103l20 124q-257 -13 -257 -152q0 -33 19 -54t52 -21
z" />
    <glyph glyph-name="uni0431.srb" horiz-adv-x="474" 
d="M173 584q0 81 131 102l184 29v-44l-180 -28q-88 -14 -88 -60q0 -19 16 -39t71 -71q66 -62 94.5 -116t28.5 -125q0 -100 -60.5 -171t-153.5 -71q-79 0 -126 54t-47 137q0 99 53.5 167.5t153.5 117.5q-42 37 -59.5 63t-17.5 55zM383 231q0 61 -22.5 106.5t-78.5 99.5
q-95 -45 -143.5 -106t-48.5 -149q0 -67 35.5 -109.5t91.5 -42.5q71 0 118.5 59.5t47.5 141.5z" />
    <glyph glyph-name="uni0432.bgr" horiz-adv-x="508" 
d="M49 38l76 479q14 85 66 140t135 55q74 0 114 -45t40 -115q0 -78 -42.5 -129t-111.5 -76q125 -45 125 -160q0 -88 -61.5 -142t-159.5 -54q-90 0 -181 47zM220 328h-80l-42 -266q62 -31 133 -31q77 0 125 42.5t48 111.5q0 65 -48 104t-136 39zM169 510l-23 -142h84
q91 0 147.5 53t56.5 127q0 55 -29 89t-81 34q-62 0 -103 -45t-52 -116z" />
    <glyph glyph-name="uni0433.srb" horiz-adv-x="237" 
d="M173 1q-25 -9 -50 -9q-67 0 -67 68q0 16 5 48l59 362h46l-59 -365q-4 -28 -4 -40q0 -32 28 -32q18 0 42 9v-41zM293 583h-255l7 43h255z" />
    <glyph glyph-name="uni0434.srb" horiz-adv-x="479" 
d="M431 441l-69 -435q-14 -91 -64 -137.5t-130 -46.5q-69 0 -150 34l8 43q78 -35 147 -35q123 0 145 146l14 92q-45 -52 -80 -76.5t-75 -24.5q-62 0 -97 46t-35 128q0 130 71 216t180 86q63 0 135 -36zM382 415q-48 21 -91 21q-85 0 -142 -70.5t-57 -187.5
q0 -64 24.5 -100.5t65.5 -36.5q31 0 66.5 28t92.5 92z" />
    <glyph glyph-name="uni0434.bgr" horiz-adv-x="479" 
d="M431 441l-69 -435q-14 -91 -64 -137.5t-130 -46.5q-69 0 -150 34l8 43q78 -35 147 -35q123 0 145 146l14 92q-45 -52 -80 -76.5t-75 -24.5q-62 0 -97 46t-35 128q0 130 71 216t180 86q63 0 135 -36zM382 415q-48 21 -91 21q-85 0 -142 -70.5t-57 -187.5
q0 -64 24.5 -100.5t65.5 -36.5q31 0 66.5 28t92.5 92z" />
    <glyph glyph-name="uni0436.bgr" horiz-adv-x="643" 
d="M49 0h-58l266 253l-179 213l48 9l177 -221l71 451l47 10l-76 -461l239 216h58l-251 -223l192 -243l-48 -9l-191 250l-37 -245h-46l41 245z" />
    <glyph glyph-name="uni043A.bgr" horiz-adv-x="422" 
d="M89 0h-46l112 705l47 10l-71 -451l231 206h65l-247 -214l190 -251l-50 -12l-191 260z" />
    <glyph glyph-name="uni043F.srb" horiz-adv-x="484" 
d="M53 94q0 16 4 44l53 332h46l-53 -334q-4 -28 -4 -40q0 -30 17 -47t49 -17q35 0 75.5 31.5t105.5 104.5l47 302h46l-51 -322v-148h-40l-5 114q-56 -62 -98.5 -93t-83.5 -31q-52 0 -80 26.5t-28 77.5zM415 578h-255l7 43h255z" />
    <glyph glyph-name="uni0442.srb" horiz-adv-x="755" 
d="M686 578h-527l7 43h527zM52 94q0 16 4 44l53 332h46l-53 -334q-4 -26 -4 -40q0 -30 16 -47t45 -17q35 0 76 32t104 104l48 302h46l-53 -334q-4 -26 -4 -40q0 -30 16 -47t45 -17q35 0 76 32t104 104l47 302h46l-51 -322v-148h-40l-5 114q-55 -62 -98 -93t-85 -31
q-101 0 -101 104q0 7 1 14q-54 -59 -95.5 -88.5t-82.5 -29.5q-101 0 -101 104z" />
    <glyph glyph-name="uni0448.srb" horiz-adv-x="755" 
d="M586 -175h-537l7 43h537zM52 94q0 16 4 44l53 332h46l-53 -334q-4 -26 -4 -40q0 -30 16 -47t45 -17q35 0 76 32t104 104l48 302h46l-53 -334q-4 -26 -4 -40q0 -30 16 -47t45 -17q35 0 76 32t104 104l47 302h46l-51 -322v-148h-40l-5 114q-55 -62 -98 -93t-85 -31
q-101 0 -101 104q0 7 1 14q-54 -59 -95.5 -88.5t-82.5 -29.5q-101 0 -101 104z" />
    <glyph glyph-name="uni044E.bgr" horiz-adv-x="639" 
d="M594 284q0 -116 -62 -205t-155 -89q-71 0 -111 53.5t-40 142.5q0 14 2 42h-103l-36 -228h-46l112 705l47 10l-70 -447h103q20 90 76.5 151t131.5 61q71 0 111 -54t40 -142zM547 282q0 76 -28.5 117t-76.5 41q-70 0 -119.5 -76.5t-49.5 -175.5q0 -76 28.5 -117t77.5 -41
q70 0 119 76.5t49 175.5z" />
    <glyph glyph-name="aacute.alt" horiz-adv-x="445" 
d="M338 322q10 62 -10.5 90.5t-74.5 28.5q-62 0 -147 -42v43q81 38 152 38q77 0 107.5 -40.5t18.5 -114.5l-33 -200v-125h-39l-4 90q-94 -99 -170 -99q-50 0 -82.5 30t-32.5 81q0 81 70 131.5t240 59.5zM141 30q67 0 166 103l20 124q-257 -13 -257 -152q0 -33 19 -54t52 -21
zM446 692l-160 -140h-40l131 155z" />
    <glyph glyph-name="aacute.sc" horiz-adv-x="505" 
d="M47 0h-48l272 511h50l110 -506l-43 -10l-37 171h-217zM288 458l-132 -251h186zM481 722l-160 -140h-40l131 155z" />
    <glyph glyph-name="abreve.alt" horiz-adv-x="445" 
d="M338 322q10 62 -10.5 90.5t-74.5 28.5q-62 0 -147 -42v43q81 38 152 38q77 0 107.5 -40.5t18.5 -114.5l-33 -200v-125h-39l-4 90q-94 -99 -170 -99q-50 0 -82.5 30t-32.5 81q0 81 70 131.5t240 59.5zM141 30q67 0 166 103l20 124q-257 -13 -257 -152q0 -33 19 -54t52 -21
zM412 666q-14 -45 -50 -77t-92 -32t-82 32t-24 77l36 5q4 -32 24.5 -49.5t53.5 -17.5q68 0 100 67z" />
    <glyph glyph-name="abreve.sc" horiz-adv-x="505" 
d="M47 0h-48l272 511h50l110 -506l-43 -10l-37 171h-217zM288 458l-132 -251h186zM448 696q-14 -45 -50 -77t-92 -32t-82 32t-24 77l36 5q4 -32 24.5 -49.5t53.5 -17.5q68 0 100 67z" />
    <glyph glyph-name="acircumflex.alt" horiz-adv-x="445" 
d="M338 322q10 62 -10.5 90.5t-74.5 28.5q-62 0 -147 -42v43q81 38 152 38q77 0 107.5 -40.5t18.5 -114.5l-33 -200v-125h-39l-4 90q-94 -99 -170 -99q-50 0 -82.5 30t-32.5 81q0 81 70 131.5t240 59.5zM141 30q67 0 166 103l20 124q-257 -13 -257 -152q0 -33 19 -54t52 -21
zM397 552h-26l-86 96l-110 -96h-34l132 149h42z" />
    <glyph glyph-name="acircumflex.sc" horiz-adv-x="505" 
d="M47 0h-48l272 511h50l110 -506l-43 -10l-37 171h-217zM288 458l-132 -251h186zM433 582h-26l-86 96l-110 -96h-34l132 149h42z" />
    <glyph glyph-name="adieresis.alt" horiz-adv-x="445" 
d="M338 322q10 62 -10.5 90.5t-74.5 28.5q-62 0 -147 -42v43q81 38 152 38q77 0 107.5 -40.5t18.5 -114.5l-33 -200v-125h-39l-4 90q-94 -99 -170 -99q-50 0 -82.5 30t-32.5 81q0 81 70 131.5t240 59.5zM141 30q67 0 166 103l20 124q-257 -13 -257 -152q0 -33 19 -54t52 -21
zM391 566h-70l13 79h70zM224 566h-69l13 79h69z" />
    <glyph glyph-name="adieresis.sc" horiz-adv-x="505" 
d="M47 0h-48l272 511h50l110 -506l-43 -10l-37 171h-217zM288 458l-132 -251h186zM427 596h-70l13 79h70zM260 596h-69l13 79h69z" />
    <glyph glyph-name="ae.sc" horiz-adv-x="682" 
d="M598 0h-300l26 166h-179l-123 -166h-50l379 505h319l-6 -42h-246l-28 -178h203v-42h-209l-32 -201h252zM175 207h156l42 267z" />
    <glyph glyph-name="aeacute.sc" horiz-adv-x="682" 
d="M598 0h-300l26 166h-179l-123 -166h-50l379 505h319l-6 -42h-246l-28 -178h203v-42h-209l-32 -201h252zM175 207h156l42 267zM627 722l-160 -140h-40l131 155z" />
    <glyph glyph-name="agrave.alt" horiz-adv-x="445" 
d="M338 322q10 62 -10.5 90.5t-74.5 28.5q-62 0 -147 -42v43q81 38 152 38q77 0 107.5 -40.5t18.5 -114.5l-33 -200v-125h-39l-4 90q-94 -99 -170 -99q-50 0 -82.5 30t-32.5 81q0 81 70 131.5t240 59.5zM141 30q67 0 166 103l20 124q-257 -13 -257 -152q0 -33 19 -54t52 -21
zM285 552h-33l-116 140l70 15z" />
    <glyph glyph-name="agrave.sc" horiz-adv-x="505" 
d="M47 0h-48l272 511h50l110 -506l-43 -10l-37 171h-217zM288 458l-132 -251h186zM320 582h-33l-116 140l70 15z" />
    <glyph glyph-name="amacron.alt" horiz-adv-x="445" 
d="M338 322q10 62 -10.5 90.5t-74.5 28.5q-62 0 -147 -42v43q81 38 152 38q77 0 107.5 -40.5t18.5 -114.5l-33 -200v-125h-39l-4 90q-94 -99 -170 -99q-50 0 -82.5 30t-32.5 81q0 81 70 131.5t240 59.5zM141 30q67 0 166 103l20 124q-257 -13 -257 -152q0 -33 19 -54t52 -21
zM402 583h-255l7 43h255z" />
    <glyph glyph-name="amacron.sc" horiz-adv-x="505" 
d="M47 0h-48l272 511h50l110 -506l-43 -10l-37 171h-217zM288 458l-132 -251h186zM438 613h-255l7 43h255z" />
    <glyph glyph-name="aogonek.alt" horiz-adv-x="445" 
d="M338 322q10 62 -10.5 90.5t-74.5 28.5q-62 0 -147 -42v43q81 38 152 38q77 0 107.5 -40.5t18.5 -114.5l-33 -200v-125h-14l-28 -34q-41 -50 -41 -75q0 -29 35 -29q20 0 36 5l-5 -32q-24 -8 -46 -8q-63 0 -63 51q0 25 12 45t44 55l30 34l-3 78q-94 -99 -170 -99
q-50 0 -82.5 30t-32.5 81q0 81 70 131.5t240 59.5zM141 30q67 0 166 103l20 124q-257 -13 -257 -152q0 -33 19 -54t52 -21z" />
    <glyph glyph-name="aogonek.sc" horiz-adv-x="505" 
d="M47 0h-48l272 511h50l110 -506l-9 -2l-30 -37q-41 -50 -41 -75q0 -29 35 -29q20 0 36 5l-5 -32q-24 -8 -46 -8q-63 0 -63 51q0 25 12 45t44 55l22 25l-35 163h-217zM288 458l-132 -251h186z" />
    <glyph glyph-name="aring.alt" horiz-adv-x="445" 
d="M338 322q10 62 -10.5 90.5t-74.5 28.5q-62 0 -147 -42v43q81 38 152 38q77 0 107.5 -40.5t18.5 -114.5l-33 -200v-125h-39l-4 90q-94 -99 -170 -99q-50 0 -82.5 30t-32.5 81q0 81 70 131.5t240 59.5zM141 30q67 0 166 103l20 124q-257 -13 -257 -152q0 -33 19 -54t52 -21
zM286 580q26 0 42.5 17.5t16.5 44.5t-17 45t-42 18q-26 0 -43 -18t-17 -45t17 -44.5t43 -17.5zM286 550q-40 0 -67 26t-27 66q0 39 27 66.5t67 27.5q39 0 66 -27.5t27 -66.5q0 -40 -26.5 -66t-66.5 -26z" />
    <glyph glyph-name="aring.sc" horiz-adv-x="505" 
d="M47 0h-48l253 475q-43 26 -43 79q0 39 27 66.5t67 27.5q39 0 66 -27.5t27 -66.5q0 -32 -18 -56t-48 -32l101 -461l-43 -10l-37 171h-217zM288 458l-132 -251h186zM303 492q26 0 42.5 17.5t16.5 44.5t-17 45t-42 18q-26 0 -43 -18t-17 -45t17 -44.5t43 -17.5z" />
    <glyph glyph-name="aringacute.alt" horiz-adv-x="445" 
d="M479 921l-160 -140h-40l131 155zM338 322q10 62 -10.5 90.5t-74.5 28.5q-62 0 -147 -42v43q81 38 152 38q77 0 107.5 -40.5t18.5 -114.5l-33 -200v-125h-39l-4 90q-94 -99 -170 -99q-50 0 -82.5 30t-32.5 81q0 81 70 131.5t240 59.5zM141 30q67 0 166 103l20 124
q-257 -13 -257 -152q0 -33 19 -54t52 -21zM286 580q26 0 42.5 17.5t16.5 44.5t-17 45t-42 18q-26 0 -43 -18t-17 -45t17 -44.5t43 -17.5zM286 550q-40 0 -67 26t-27 66q0 39 27 66.5t67 27.5q39 0 66 -27.5t27 -66.5q0 -40 -26.5 -66t-66.5 -26z" />
    <glyph glyph-name="aringacute.sc" horiz-adv-x="505" 
d="M47 0h-48l253 475q-43 26 -43 79q0 39 27 66.5t67 27.5q39 0 66 -27.5t27 -66.5q0 -32 -18 -56t-48 -32l101 -461l-43 -10l-37 171h-217zM288 458l-132 -251h186zM303 492q26 0 42.5 17.5t16.5 44.5t-17 45t-42 18q-26 0 -43 -18t-17 -45t17 -44.5t43 -17.5zM486 814
l-160 -140h-40l131 155z" />
    <glyph glyph-name="atilde.alt" horiz-adv-x="445" 
d="M338 322q10 62 -10.5 90.5t-74.5 28.5q-62 0 -147 -42v43q81 38 152 38q77 0 107.5 -40.5t18.5 -114.5l-33 -200v-125h-39l-4 90q-94 -99 -170 -99q-50 0 -82.5 30t-32.5 81q0 81 70 131.5t240 59.5zM141 30q67 0 166 103l20 124q-257 -13 -257 -152q0 -33 19 -54t52 -21
zM434 656q-17 -46 -40.5 -70.5t-49.5 -24.5q-28 0 -72 27q-42 27 -59 27q-26 0 -48 -55l-33 7q17 46 40.5 70.5t49.5 24.5q28 0 72 -27q42 -27 59 -27q26 0 48 55z" />
    <glyph glyph-name="atilde.sc" horiz-adv-x="505" 
d="M47 0h-48l272 511h50l110 -506l-43 -10l-37 171h-217zM288 458l-132 -251h186zM469 686q-17 -46 -40.5 -70.5t-49.5 -24.5q-29 0 -72 27q-42 27 -59 27q-26 0 -48 -55l-33 7q17 46 40.5 70.5t49.5 24.5q29 0 72 -27q42 -27 59 -27q26 0 48 55z" />
    <glyph glyph-name="cacute.sc" horiz-adv-x="460" 
d="M385 30q-61 -38 -141 -38q-86 0 -140.5 57t-54.5 157q0 125 75.5 216.5t179.5 91.5q81 0 139 -44l-11 -49q-53 50 -132 50q-82 0 -142.5 -79t-60.5 -183q0 -82 41.5 -128t108.5 -46q70 0 138 43v-48zM501 722l-160 -140h-40l131 155z" />
    <glyph glyph-name="ccaron.sc" horiz-adv-x="460" 
d="M385 30q-61 -38 -141 -38q-86 0 -140.5 57t-54.5 157q0 125 75.5 216.5t179.5 91.5q81 0 139 -44l-11 -49q-53 50 -132 50q-82 0 -142.5 -79t-60.5 -183q0 -82 41.5 -128t108.5 -46q70 0 138 43v-48zM222 731h26l86 -96l110 96h34l-132 -149h-42z" />
    <glyph glyph-name="ccedilla.sc" horiz-adv-x="460" 
d="M385 30q-61 -38 -141 -38q-86 0 -140.5 57t-54.5 157q0 125 75.5 216.5t179.5 91.5q81 0 139 -44l-11 -49q-53 50 -132 50q-82 0 -142.5 -79t-60.5 -183q0 -82 41.5 -128t108.5 -46q70 0 138 43v-48zM263 -77l-140 -119h-36l111 135z" />
    <glyph glyph-name="cdotaccent.sc" horiz-adv-x="460" 
d="M385 30q-61 -38 -141 -38q-86 0 -140.5 57t-54.5 157q0 125 75.5 216.5t179.5 91.5q81 0 139 -44l-11 -49q-53 50 -132 50q-82 0 -142.5 -79t-60.5 -183q0 -82 41.5 -128t108.5 -46q70 0 138 43v-48zM363 591h-71l13 81h71z" />
    <glyph glyph-name="dcaron.sc" horiz-adv-x="533" 
d="M484 294q0 -130 -91.5 -212t-229.5 -82h-119l80 505h127q109 0 171 -56.5t62 -154.5zM436 291q0 84 -49.5 128t-140.5 44h-82l-66 -421h70q115 0 191.5 69.5t76.5 179.5zM210 731h26l86 -96l110 96h34l-132 -149h-42z" />
    <glyph glyph-name="dcroat.sc" horiz-adv-x="539" 
d="M22 231v42h71l37 232h127q109 0 171 -56.5t62 -154.5q0 -130 -91.5 -212t-229.5 -82h-119l36 231h-64zM442 291q0 84 -49.5 128t-140.5 44h-82l-30 -190h136l-7 -42h-136l-29 -189h70q115 0 191.5 69.5t76.5 179.5z" />
    <glyph glyph-name="eacute.sc" horiz-adv-x="428" 
d="M344 0h-300l80 505h292l-6 -42h-246l-28 -178h203v-42h-209l-32 -201h252zM461 722l-160 -140h-40l131 155z" />
    <glyph glyph-name="ebreve.sc" horiz-adv-x="428" 
d="M344 0h-300l80 505h292l-6 -42h-246l-28 -178h203v-42h-209l-32 -201h252zM427 696q-14 -45 -50 -77t-92 -32t-82 32t-24 77l36 5q4 -32 24.5 -49.5t53.5 -17.5q68 0 100 67z" />
    <glyph glyph-name="ecaron.sc" horiz-adv-x="428" 
d="M344 0h-300l80 505h292l-6 -42h-246l-28 -178h203v-42h-209l-32 -201h252zM181 731h26l86 -96l110 96h34l-132 -149h-42z" />
    <glyph glyph-name="ecircumflex.sc" horiz-adv-x="428" 
d="M344 0h-300l80 505h292l-6 -42h-246l-28 -178h203v-42h-209l-32 -201h252zM412 582h-26l-86 96l-110 -96h-34l132 149h42z" />
    <glyph glyph-name="edieresis.sc" horiz-adv-x="428" 
d="M344 0h-300l80 505h292l-6 -42h-246l-28 -178h203v-42h-209l-32 -201h252zM406 596h-70l13 79h70zM239 596h-69l13 79h69z" />
    <glyph glyph-name="edotaccent.sc" horiz-adv-x="428" 
d="M344 0h-300l80 505h292l-6 -42h-246l-28 -178h203v-42h-209l-32 -201h252zM322 591h-71l13 81h71z" />
    <glyph glyph-name="egrave.sc" horiz-adv-x="428" 
d="M344 0h-300l80 505h292l-6 -42h-246l-28 -178h203v-42h-209l-32 -201h252zM300 582h-33l-116 140l70 15z" />
    <glyph glyph-name="emacron.sc" horiz-adv-x="428" 
d="M344 0h-300l80 505h292l-6 -42h-246l-28 -178h203v-42h-209l-32 -201h252zM418 613h-255l7 43h255z" />
    <glyph glyph-name="eogonek.sc" horiz-adv-x="428" 
d="M344 0h-20l-28 -34q-41 -50 -41 -75q0 -29 35 -29q20 0 36 5l-5 -32q-24 -8 -46 -8q-63 0 -63 51q0 25 12 45t44 55l19 22h-243l80 505h292l-6 -42h-246l-28 -178h203v-42h-209l-32 -201h252z" />
    <glyph glyph-name="gbreve.alt" horiz-adv-x="467" 
d="M393 -48q0 -57 -61.5 -98t-146.5 -41q-92 0 -151 32.5t-59 85.5q0 41 29 73t99 66q-29 18 -31 49q-1 32 51 68q-59 43 -59 119q0 71 54.5 122.5t127.5 51.5q64 0 107 -40l121 37v-52l-101 -10q23 -34 23 -81q0 -71 -54 -122.5t-126 -51.5q-36 0 -62 11q-37 -26 -36 -43
q1 -15 19 -25t76 -26l36 -10q77 -22 110.5 -47.5t33.5 -67.5zM197 35q-40 11 -54 17q-121 -53 -121 -118q0 -37 44 -60t120 -23q69 0 114 30t45 66q0 27 -25.5 43.5t-90.5 35.5zM349 333q0 51 -27.5 80t-77.5 29q-58 0 -95.5 -41t-37.5 -94q0 -50 28.5 -79.5t77.5 -29.5
q58 0 95 41t37 94zM416 666q-14 -45 -50 -77t-92 -32t-82 32t-24 77l36 5q4 -32 24.5 -49.5t53.5 -17.5q68 0 100 67z" />
    <glyph glyph-name="gbreve.sc" horiz-adv-x="511" 
d="M417 42q-85 -51 -164 -51q-92 0 -148 57t-56 157q0 126 76.5 217.5t184.5 91.5q88 0 147 -42l-12 -49q-61 48 -137 48q-87 0 -149 -77.5t-62 -185.5q0 -84 44 -129t114 -45q69 0 121 33l25 154h-135v42h186zM468 696q-14 -45 -50 -77t-92 -32t-82 32t-24 77l36 5
q4 -32 24.5 -49.5t53.5 -17.5q68 0 100 67z" />
    <glyph glyph-name="gcommaaccent.alt" horiz-adv-x="479" 
d="M393 -48q0 -57 -61.5 -98t-146.5 -41q-92 0 -151 32.5t-59 85.5q0 41 29 73t99 66q-29 18 -31 49q-1 32 51 68q-59 43 -59 119q0 71 54.5 122.5t127.5 51.5q64 0 107 -40l121 37v-52l-101 -10q23 -34 23 -81q0 -71 -54 -122.5t-126 -51.5q-36 0 -62 11q-37 -26 -36 -43
q1 -15 19 -25t76 -26l36 -10q77 -22 110.5 -47.5t33.5 -67.5zM197 35q-40 11 -54 17q-121 -53 -121 -118q0 -37 44 -60t120 -23q69 0 114 30t45 66q0 27 -25.5 43.5t-90.5 35.5zM349 333q0 51 -27.5 80t-77.5 29q-58 0 -95.5 -41t-37.5 -94q0 -50 28.5 -79.5t77.5 -29.5
q58 0 95 41t37 94zM325 578l-44 -21q-37 29 -37 67q0 59 92 124l32 -4q-78 -64 -78 -108q0 -27 35 -58z" />
    <glyph glyph-name="gcommaaccent.sc" horiz-adv-x="511" 
d="M417 42q-85 -51 -164 -51q-92 0 -148 57t-56 157q0 126 76.5 217.5t184.5 91.5q88 0 147 -42l-12 -49q-61 48 -137 48q-87 0 -149 -77.5t-62 -185.5q0 -84 44 -129t114 -45q69 0 121 33l25 154h-135v42h186zM176 -87l44 21q37 -29 37 -67q0 -59 -92 -124l-32 4
q78 65 78 108q0 27 -35 58z" />
    <glyph glyph-name="gdotaccent.alt" horiz-adv-x="467" 
d="M393 -48q0 -57 -61.5 -98t-146.5 -41q-92 0 -151 32.5t-59 85.5q0 41 29 73t99 66q-29 18 -31 49q-1 32 51 68q-59 43 -59 119q0 71 54.5 122.5t127.5 51.5q64 0 107 -40l121 37v-52l-101 -10q23 -34 23 -81q0 -71 -54 -122.5t-126 -51.5q-36 0 -62 11q-37 -26 -36 -43
q1 -15 19 -25t76 -26l36 -10q77 -22 110.5 -47.5t33.5 -67.5zM197 35q-40 11 -54 17q-121 -53 -121 -118q0 -37 44 -60t120 -23q69 0 114 30t45 66q0 27 -25.5 43.5t-90.5 35.5zM349 333q0 51 -27.5 80t-77.5 29q-58 0 -95.5 -41t-37.5 -94q0 -50 28.5 -79.5t77.5 -29.5
q58 0 95 41t37 94zM311 561h-71l13 81h71z" />
    <glyph glyph-name="gdotaccent.sc" horiz-adv-x="511" 
d="M417 42q-85 -51 -164 -51q-92 0 -148 57t-56 157q0 126 76.5 217.5t184.5 91.5q88 0 147 -42l-12 -49q-61 48 -137 48q-87 0 -149 -77.5t-62 -185.5q0 -84 44 -129t114 -45q69 0 121 33l25 154h-135v42h186zM363 591h-71l13 81h71z" />
    <glyph glyph-name="hbar.sc" horiz-adv-x="556" 
d="M48 432h70l12 73h47l-12 -73h282l12 73h47l-12 -73h69l-7 -41h-68l-62 -391h-47l38 238h-282l-38 -238h-47l62 391h-64v41zM141 280h282l18 111h-282z" />
    <glyph glyph-name="iacute.sc" horiz-adv-x="227" 
d="M97 0h-47l80 505h47zM342 722l-160 -140h-40l131 155z" />
    <glyph glyph-name="ibreve.sc" horiz-adv-x="227" 
d="M97 0h-47l80 505h47zM308 696q-14 -45 -50 -77t-92 -32t-82 32t-24 77l36 5q4 -32 24.5 -49.5t53.5 -17.5q68 0 100 67z" />
    <glyph glyph-name="icircumflex.sc" horiz-adv-x="227" 
d="M97 0h-47l80 505h47zM293 582h-26l-86 96l-110 -96h-34l132 149h42z" />
    <glyph glyph-name="idieresis.sc" horiz-adv-x="227" 
d="M97 0h-47l80 505h47zM287 596h-70l13 79h70zM120 596h-69l13 79h69z" />
    <glyph glyph-name="idotaccent.sc" horiz-adv-x="227" 
d="M97 0h-47l80 505h47zM203 591h-71l13 81h71z" />
    <glyph glyph-name="dotlessi.sc" horiz-adv-x="227" 
d="M97 0h-47l80 505h47z" />
    <glyph glyph-name="igrave.sc" horiz-adv-x="227" 
d="M97 0h-47l80 505h47zM181 582h-33l-116 140l70 15z" />
    <glyph glyph-name="imacron.sc" horiz-adv-x="227" 
d="M97 0h-47l80 505h47zM299 613h-255l7 43h255z" />
    <glyph glyph-name="iogonek.sc" horiz-adv-x="227" 
d="M97 0h-5l-28 -34q-41 -50 -41 -75q0 -29 35 -29q20 0 36 5l-5 -32q-24 -8 -46 -8q-63 0 -63 51q0 25 12 45t44 55l19 22h-5l80 505h47z" />
    <glyph glyph-name="kcommaaccent.sc" horiz-adv-x="456" 
d="M132 261l-41 -261h-47l80 505h47l-37 -231l269 231h64l-282 -239l215 -261l-52 -10q-215 266 -216 266zM147 -87l44 21q37 -29 37 -67q0 -59 -92 -124l-32 4q78 65 78 108q0 27 -35 58z" />
    <glyph glyph-name="lacute.sc" horiz-adv-x="365" 
d="M294 0h-250l80 505h47l-73 -463h196v-42zM348 722l-160 -140h-40l131 155z" />
    <glyph glyph-name="lcaron.sc" horiz-adv-x="365" 
d="M294 0h-250l80 505h47l-73 -463h196v-42zM295 511q10 -27 10 -50q0 -73 -81 -138l-23 5q54 62 54 115q0 22 -10 57z" />
    <glyph glyph-name="lcommaaccent.sc" horiz-adv-x="365" 
d="M294 0h-250l80 505h47l-73 -463h196v-42zM111 -87l44 21q37 -29 37 -67q0 -59 -92 -124l-32 4q78 65 78 108q0 27 -35 58z" />
    <glyph glyph-name="ldot.sc" horiz-adv-x="365" 
d="M313 227h-55l13 77h55zM294 0h-250l80 505h47l-73 -463h196v-42z" />
    <glyph glyph-name="lslash.sc" horiz-adv-x="371" 
d="M259 296l-125 -64l-30 -190h196v-42h-250l32 206l-69 -36v46l77 39l40 250h47l-35 -223l124 64z" />
    <glyph glyph-name="nacute.sc" horiz-adv-x="544" 
d="M419 0h-35l-228 439l-68 -439h-44l80 505h47l219 -422l66 422h44zM498 717l-160 -140h-40l131 155z" />
    <glyph glyph-name="ncaron.sc" horiz-adv-x="544" 
d="M419 0h-35l-228 439l-68 -439h-44l80 505h47l219 -422l66 422h44zM219 726h26l86 -96l110 96h34l-132 -149h-42z" />
    <glyph glyph-name="ncommaaccent.sc" horiz-adv-x="544" 
d="M419 0h-35l-228 439l-68 -439h-44l80 505h47l219 -422l66 422h44zM173 -87l44 21q37 -29 37 -67q0 -59 -92 -124l-32 4q78 65 78 108q0 27 -35 58z" />
    <glyph glyph-name="ntilde.sc" horiz-adv-x="544" 
d="M419 0h-35l-228 439l-68 -439h-44l80 505h47l219 -422l66 422h44zM486 681q-17 -46 -40.5 -70.5t-49.5 -24.5q-28 0 -72 27q-42 27 -59 27q-26 0 -48 -55l-33 7q17 46 40.5 70.5t49.5 24.5q28 0 72 -27q42 -27 59 -27q26 0 48 55z" />
    <glyph glyph-name="oacute.sc" horiz-adv-x="555" 
d="M506 293q0 -128 -74 -215t-179 -87q-96 0 -150 60.5t-54 161.5q0 128 73.5 214.5t178.5 86.5q96 0 150.5 -60t54.5 -161zM458 293q0 84 -42 131t-117 47q-85 0 -143.5 -73.5t-58.5 -184.5q0 -84 42.5 -131.5t115.5 -47.5q84 0 143.5 74t59.5 185zM505 722l-160 -140h-40
l131 155z" />
    <glyph glyph-name="obreve.sc" horiz-adv-x="555" 
d="M506 293q0 -128 -74 -215t-179 -87q-96 0 -150 60.5t-54 161.5q0 128 73.5 214.5t178.5 86.5q96 0 150.5 -60t54.5 -161zM458 293q0 84 -42 131t-117 47q-85 0 -143.5 -73.5t-58.5 -184.5q0 -84 42.5 -131.5t115.5 -47.5q84 0 143.5 74t59.5 185zM471 696
q-14 -45 -50 -77t-92 -32t-82 32t-24 77l36 5q4 -32 24.5 -49.5t53.5 -17.5q68 0 100 67z" />
    <glyph glyph-name="ocircumflex.sc" horiz-adv-x="555" 
d="M506 293q0 -128 -74 -215t-179 -87q-96 0 -150 60.5t-54 161.5q0 128 73.5 214.5t178.5 86.5q96 0 150.5 -60t54.5 -161zM458 293q0 84 -42 131t-117 47q-85 0 -143.5 -73.5t-58.5 -184.5q0 -84 42.5 -131.5t115.5 -47.5q84 0 143.5 74t59.5 185zM456 582h-26l-86 96
l-110 -96h-34l132 149h42z" />
    <glyph glyph-name="odieresis.sc" horiz-adv-x="555" 
d="M506 293q0 -128 -74 -215t-179 -87q-96 0 -150 60.5t-54 161.5q0 128 73.5 214.5t178.5 86.5q96 0 150.5 -60t54.5 -161zM458 293q0 84 -42 131t-117 47q-85 0 -143.5 -73.5t-58.5 -184.5q0 -84 42.5 -131.5t115.5 -47.5q84 0 143.5 74t59.5 185zM450 596h-70l13 79h70z
M283 596h-69l13 79h69z" />
    <glyph glyph-name="ograve.sc" horiz-adv-x="555" 
d="M506 293q0 -128 -74 -215t-179 -87q-96 0 -150 60.5t-54 161.5q0 128 73.5 214.5t178.5 86.5q96 0 150.5 -60t54.5 -161zM458 293q0 84 -42 131t-117 47q-85 0 -143.5 -73.5t-58.5 -184.5q0 -84 42.5 -131.5t115.5 -47.5q84 0 143.5 74t59.5 185zM344 582h-33l-116 140
l70 15z" />
    <glyph glyph-name="ohungarumlaut.sc" horiz-adv-x="555" 
d="M506 293q0 -128 -74 -215t-179 -87q-96 0 -150 60.5t-54 161.5q0 128 73.5 214.5t178.5 86.5q96 0 150.5 -60t54.5 -161zM458 293q0 84 -42 131t-117 47q-85 0 -143.5 -73.5t-58.5 -184.5q0 -84 42.5 -131.5t115.5 -47.5q84 0 143.5 74t59.5 185zM580 726l-160 -140h-35
l130 157zM419 726l-161 -140h-35l131 157z" />
    <glyph glyph-name="omacron.sc" horiz-adv-x="555" 
d="M506 293q0 -128 -74 -215t-179 -87q-96 0 -150 60.5t-54 161.5q0 128 73.5 214.5t178.5 86.5q96 0 150.5 -60t54.5 -161zM458 293q0 84 -42 131t-117 47q-85 0 -143.5 -73.5t-58.5 -184.5q0 -84 42.5 -131.5t115.5 -47.5q84 0 143.5 74t59.5 185zM462 613h-255l7 43h255z
" />
    <glyph glyph-name="oslash.sc" horiz-adv-x="555" 
d="M551 502l-77 -78q32 -55 32 -131q0 -128 -74 -215t-179 -87q-93 0 -148 57l-53 -54l-41 10l72 74q-34 53 -34 135q0 128 73.5 214.5t178.5 86.5q95 0 149 -59l55 56zM96 213q0 -61 21 -103l301 314q-42 48 -119 48q-85 0 -144 -73t-59 -186zM459 293q0 57 -20 99
l-301 -312q42 -47 117 -47q85 0 144.5 73.5t59.5 186.5z" />
    <glyph glyph-name="oslashacute.sc" horiz-adv-x="555" 
d="M551 502l-77 -78q32 -55 32 -131q0 -128 -74 -215t-179 -87q-93 0 -148 57l-53 -54l-41 10l72 74q-34 53 -34 135q0 128 73.5 214.5t178.5 86.5q95 0 149 -59l55 56zM96 213q0 -61 21 -103l301 314q-42 48 -119 48q-85 0 -144 -73t-59 -186zM459 293q0 57 -20 99
l-301 -312q42 -47 117 -47q85 0 144.5 73.5t59.5 186.5zM509 722l-160 -140h-40l131 155z" />
    <glyph glyph-name="otilde.sc" horiz-adv-x="555" 
d="M506 293q0 -128 -74 -215t-179 -87q-96 0 -150 60.5t-54 161.5q0 128 73.5 214.5t178.5 86.5q96 0 150.5 -60t54.5 -161zM458 293q0 84 -42 131t-117 47q-85 0 -143.5 -73.5t-58.5 -184.5q0 -84 42.5 -131.5t115.5 -47.5q84 0 143.5 74t59.5 185zM493 686
q-17 -46 -40.5 -70.5t-49.5 -24.5q-29 0 -72 27q-42 27 -59 27q-26 0 -48 -55l-33 7q17 46 40.5 70.5t49.5 24.5q29 0 72 -27q42 -27 59 -27q26 0 48 55z" />
    <glyph glyph-name="racute.sc" horiz-adv-x="466" 
d="M124 214l-34 -214h-46l80 505h130q74 0 117 -35t43 -95q0 -63 -41.5 -104t-105.5 -53l131 -214l-50 -10l-131 220h-93zM367 373q0 43 -30 66.5t-87 23.5h-87l-33 -208h90q66 0 106.5 32t40.5 86zM441 722l-160 -140h-40l131 155z" />
    <glyph glyph-name="rcaron.sc" horiz-adv-x="466" 
d="M124 214l-34 -214h-46l80 505h130q74 0 117 -35t43 -95q0 -63 -41.5 -104t-105.5 -53l131 -214l-50 -10l-131 220h-93zM367 373q0 43 -30 66.5t-87 23.5h-87l-33 -208h90q66 0 106.5 32t40.5 86zM162 731h26l86 -96l110 96h34l-132 -149h-42z" />
    <glyph glyph-name="rcommaaccent.sc" horiz-adv-x="466" 
d="M124 214l-34 -214h-46l80 505h130q74 0 117 -35t43 -95q0 -63 -41.5 -104t-105.5 -53l131 -214l-50 -10l-131 220h-93zM367 373q0 43 -30 66.5t-87 23.5h-87l-33 -208h90q66 0 106.5 32t40.5 86zM151 -87l44 21q37 -29 37 -67q0 -59 -92 -124l-32 4q78 65 78 108
q0 27 -35 58z" />
    </font>
</defs>
</svg>
